<svg xmlns="http://www.w3.org/2000/svg" version="1.0" viewBox="0 0 996 664"><path fill="#0AA8A7" d="M368.5 55.2c-11.8 2.2-23 10.1-26.8 18.7-2.8 6.4-3.6 20.5-1.3 25 1.6 3 1.6 3.4.2 5-2.1 2.3-2 3.5.9 12.1 1.4 4 2.5 8.1 2.5 9.1 0 2.5-7.7 5.1-27.6 9.4-21.6 4.6-25.2 5.8-30.2 10.1-4.6 3.9-7.9 10.1-14.2 26.9-2.2 6-4.9 11.9-6 13-2.6 2.7-5.1 9-4.4 10.9.3.8 1.2 1.7 2 2 2.1.8 1.7 2.6-2.7 12.3-12 25.9-19.7 44.5-25.9 63.1-3.7 11.4-7.2 22.5-7.6 24.7-.3 2.2-1.7 5.8-3 8.1-6.9 11.9-8.6 26.1-3.9 33.9 4.2 7.3 14.4 12.1 19 9.1 3.3-2.2 3.3-5.4-.1-6.2l-2.6-.7 3-1.3c3.5-1.4 4.5-3.8 4.1-10.2-.1-2.8.5-6.3 1.6-8.7 2.2-5.1 1.5-13.6-1.5-17.7-1.6-2.2-1.7-2.8-.6-2.8.8 0 2.7-2.1 4.3-4.8 1.5-2.6 4.6-7.2 6.9-10.2 2.2-3 8.4-12.1 13.7-20.3 9.2-14.2 13.7-24 13.7-29.8 0-1.4.6-3.2 1.4-3.8.7-.6 3.1-5 5.1-9.6 2.1-4.7 4.1-8.5 4.5-8.5 2.3 0 2.6 22.8.5 38-2 14.3-1.9 26.3.1 30.1 1.1 2.1 1.2 3.4.5 4.3-2.2 2.7-4.1 14.4-4.1 26.2 0 6.6-.4 12.4-.9 13-2.4 2.3-6.8 47-5.8 57.8.4 3.3.8 17.3 1.1 31.1.2 13.7.9 28.1 1.5 32 2.6 16.6 8.4 28.2 26.1 52.7 21.7 30 28.2 35 31.1 24.5 2-6.9 2.6-6.2 2.2 2.5-.1 4.6-.5 14.1-.7 21.3-.3 9.3-1.1 15.8-2.9 22.8-2.2 8.7-2.3 9.9-.9 10.5.9.3 1.8 0 2-.6 1-3.2 3.6-4.4 7.8-3.8 7.7 1 8.6 1.9 12.3 11.9 6.1 17 10 21.6 16.5 19.8 8.4-2.3.1 4.5-9.7 7.9-7.7 2.7-13.2 2.6-16.1-.3-3-3-5.9-10.9-8.1-21.7-.9-4.7-2.2-9.1-2.8-9.9-.9-1.1-4.9-1.2-21.7-.6-19.1.7-20.7.6-22.8-1.1-3-2.5-4.1-7.8-4.2-20 0-10 0-10.1-2.7-11.3-3.1-1.4-10-1.9-45.8-3-32.9-1-32-.4-33.7-22.1-.6-7.8-1.5-13.3-2.4-14.7-2.6-4.1-7.9-4.8-37.8-4.8-17.7 0-28.1.4-28.3 1-.2.7 9.2 1 26.9 1 28.4 0 35.9.9 37.7 4.4.5.9 1.1 6.3 1.5 12.1 1.1 17.1 3.3 22 10.7 24 2.2.6 18.1 1.5 35.2 1.9 18.1.5 32.4 1.3 34 2l2.7 1.1v10.2c0 12.1 1 16.6 4.6 19.9 2.5 2.3 2.9 2.4 14.7 2 6.7-.3 16.2-.5 21.2-.5l9-.1 1.8 8.9c2.4 11.7 5.4 19.4 8.8 22.8 2.2 2.3 3.6 2.8 7.6 2.8 9.8 0 24.4-6.8 25.1-11.7.3-1.7 2.8-3.1 13-7.4 24.6-10.1 29.2-10.8 43.7-6.6 13.9 4.2 22.4 3.3 35.9-3.5 5.1-2.6 6.7-2.9 10.5-2.4 13.2 2 15.7 1.9 17.8-.3 2.2-2.3 4.3-8.4 4.3-12.2 0-5-1.1-5.4-12.4-5.2-9.2.3-10.7.1-11.5-1.5-1.1-2.2-4.8-23.3-5.7-33.3-.8-9.3.2-10.4 5.3-5.9 6.5 5.8 14.9 7.6 14.1 3.2-.3-1.5-4.2-3.8-13.9-8.2-3.8-1.7-7.3-6.4-8.9-11.9-1.4-4.5-2.5-36.4-1.6-41.6l.7-3.8 2.7 3.2c7.6 8.8 31.2 9.4 48.6 1.1l5.8-2.7 1.3 3.1c1.9 4.5 1.7 3.3 7.7 72.6.6 7.4.9 14.7.5 16.1-.7 2.9-2.1 3.5-10.9 4.5l-5.6.7-1.1-5.4c-.6-3-1.3-7.4-1.6-9.9-1-7.6-3.4-16.9-7.5-29.5-3.3-10.4-3.7-12.6-3-16.5 1.5-7.5 1.2-17-.4-17-4 0-6 9.8-3.6 17.9.7 2.5.4 5.4-1 11.7-3.4 14.7-4.4 26.2-3.1 38.4 1.3 12.2 1.8 14.3 3.5 13.7.7-.2 1.4-7.2 2-20.5.5-11.1 1.2-20.2 1.5-20.2.9 0 4.1 19 4.9 29.5l.7 9 3.2.9c3.3 1 4.3 3.3 4.3 10 0 6.5 1.9 10.7 5.5 12.2 4.3 1.8 9.2 1.8 12.6 0 2.1-1.1 5.4-1.2 17-.4 18.1 1.2 41.6.7 44.7-1 1.2-.7 3.8-4.6 5.7-8.7 2.8-5.9 4.5-8.1 8.2-10.6 6.8-4.7 8.3-6.5 8.3-10.1 0-1.7-1.1-5-2.5-7.3-2.2-3.8-3-4.3-7-5-2.5-.3-5.9-.4-7.4 0-2.7.6-2.9.4-5.5-6.6-3.7-10.1-4-14.5-2.7-49.4 1.1-28.3 1-33.6-.9-61-2.2-32.8-2.6-56.9-1-66.1 1.6-8.8 4.2-19.5 5.6-23.1l1.4-3.2 4.2 2.4c6 3.3 17 5.1 22.6 3.5 8.6-2.3 2.8-5.2-14.3-7.1-7.2-.8-10.8-1.6-11.2-2.6-.6-1.4 1.3-19.1 2.3-21.8.6-1.4.9-1.4 2.8.3 6 5.6 16.2 7.7 32.4 6.9 17.3-.8 37.2-6.6 47.1-13.6l2.8-2 3.6 7.7c5.9 12.6 13.7 37.9 13.7 44.6 0 3.5-1.3 3.9-6.7 2.1-6.7-2.3-16.6-3-20.2-1.5-3.3 1.3-4.7 3.8-3.1 5.4 1.5 1.5 12.4 1.9 20.5.8 6.1-.9 7.2-.8 8.8.7 1.7 1.6 1.7 2.5.7 10.1-1.6 11.7-5 21.7-13 38.5-8.4 17.7-13.3 30.7-15 39.9-1.6 8.7-.9 22.2 2 38.1 2 10.7 2.2 14.2 1.7 31.5-1 32.8-5 66.3-8.4 68.7-1.8 1.4-11.6 1.6-14.8.4-1.8-.7-2-1.8-2.1-9-.1-4.6-1.2-20.4-2.5-35.2-1.6-19.2-1.9-27.3-1.2-28 .8-.8 2.2-.4 4.9 1.5 2.9 1.9 4.1 2.3 5.1 1.4 1.6-1.3 1.6-1.6-5.3-19.1-3-7.6-5.4-14.3-5.4-14.8s1-.3 2.3.5c1.2.9 4.1 2.2 6.4 3 3.3 1.2 4.4 1.2 5.2.2 1.3-1.6-.6-4.6-10.3-16.1-4.2-5-8.7-11.2-10.1-13.9-3-6-3.2-12.2-1.1-36.1 3.1-34 3-45-.4-45-1.9 0-2.6 3.1-6 28-1.7 12.1-3.5 24.2-4.1 27-.6 2.7-4.7 13.4-9 23.6-11.7 27.5-12.2 29.8-12.3 56.9-.1 24.4.5 30.3 3.1 29.8 2.4-.4 3.7-6.5 7.8-36.3 4-28.5 5.3-34.9 9.2-43.3l2.6-5.7.9 5.5c1.2 6.9 3.4 16.9 5.3 23.9.8 3 1.9 11.8 2.4 19.5 1.1 15.7 6.6 66.9 8.2 75.8 1 5.7.9 6.1-4.1 18.3-5.2 13-6.1 18.6-3.6 22.1 1.3 1.7 2.7 1.9 12.8 1.8 12.6-.1 21.1-2.4 25.8-6.9l2.6-2.5h80.2c62.2-.1 80.2-.3 80.2-1.3 0-.9-18-1.2-80.7-1.2h-80.7l-1.8-6.5c-3.1-10.7-4.9-15-6.4-15-2.2 0-3.4 4.4-3.4 12.3 0 8.6 1.5 11.4 6.3 11.9l3.2.3-4.2 2.3c-9 4.8-26.5 6.8-31.1 3.6-3.6-2.5-3-5.6 4.4-23.6 3.5-8.3 3.7-8.6 6.1-7.7 3.2 1.2 13.5 1.2 16.7 0 2.9-1.2 3.8-4.9 6.1-24.6 4.2-37.3 4.7-63.1 1.5-80-5.6-29.9-4-38.6 15.3-80 3.6-7.7 7.5-17.6 8.6-22.1 2.5-9.8 3.8-21.9 2.4-22.7-.6-.4-.8-2.8-.6-5.4.9-8.4-6.7-34.4-14.7-50.4-2.4-4.9-2.8-6.8-2.7-13.2.2-6.3-.2-8-2-10.5l-2.1-2.9 2.8-2.9c2.9-2.9 3.8-6.3 6.7-23.8l.8-4.9 7.6 11.9c4.2 6.5 9.2 15.1 11.2 18.9 2 3.9 4.7 8.1 6 9.5 1.3 1.4 3.8 5.2 5.5 8.6 5.4 10 36.4 47.7 40.3 48.9 1.9.6 2 .9.6 1.6-.9.5-1.9 2.9-2.2 5.3-.7 4.6 2.1 30.9 3.6 33.7 1 1.9 5 3.2 7.2 2.3 2.4-.9 2.8-3.3 1.6-9.6-.7-3.2-.9-6.1-.6-6.4.8-.9 4.5 5.3 5.9 9.8 1 3.4.8 4.1-2.1 8.6-3.3 5.2-3.9 8-1.9 10 2.1 2.1 4.5 1.3 7.8-2.5 4.3-4.8 8-12.9 8-17.4 0-6.5-7.1-25.6-13-34.9-1.5-2.5-6.3-12.8-10.6-22.9-6-14.4-10.5-23.1-20.3-39-15.3-25.2-19-32-19.1-34.5 0-1.1 1.8-4.7 4-8 5.6-8.7 7.2-13.2 7.2-20.1 0-7.3-3.1-15.6-17.7-48-5.7-12.7-12.4-28-15-34.2-11.6-27.9-26.2-44.7-40.6-46.8-10-1.5-23.4 4.1-33.5 14-9.5 9.3-14.4 21.3-13 32.1.4 2.7 1 10.5 1.5 17.4 1.5 22 6.7 32.6 16.3 33.7 5.3.6 10.4-.8 16.9-4.9 2.5-1.5 5.1-2.8 5.6-2.8 1.6 0 5.3 9.4 5.3 13.4 0 4.7-3.7 8.8-11.3 12.6-8.4 4.1-15.1 4.8-19.5 2-4.7-2.9-8-10.5-8.8-20.8-.9-11.3-1.1-11.5-10.4-9.7-10.4 2.1-19.2 5.1-28.4 9.8-9.9 5.1-19.3 14.2-29.1 28.2-3.8 5.5-12.1 15.4-18.5 22s-12.6 13.7-13.8 15.7c-2.7 4.4-5.2 16.6-5.2 25.4 0 7-1.1 9.9-6.6 17.5-3.9 5.3-4.2 7.9-1.5 14.6 1 2.6 2.1 6.5 2.5 8.5.4 2.1 1.3 4.3 2 5.1.8.8 1.7 4.8 2.1 9.8.6 8 .5 8.5-1.9 11.4l-2.5 3-.1-7c0-9.3-2.7-14.8-9.3-19.2-6.4-4.3-11.7-5.6-20.2-5.1-14.8 1-23.5 9.7-23.5 23.5v5.8l-2-2.5c-1.2-1.6-2-4.1-2-6.7 0-2.3-.5-5.4-1-6.9-.9-2.3-.7-3.1 1.4-5.3 4.3-4.7 5.9-9 5.3-14.5-.6-6.2-4.2-17.2-6.6-20.6-1.2-1.7-1.7-3.6-1.4-5.7 1.1-6.9-7.4-32.2-13-38.9-5.5-6.6-12.6-26.2-14.2-39.4-1-8.1-3.5-18.9-5.5-23.5-3.3-7.6-10.9-16.3-22.9-25.9-6.5-5.3-12.4-10.2-13.1-11.1-2-2.4-4.3-1.8-8 2.1-5 5.3-10.1 7.4-18.6 7.4-15.2 0-26.6-7-29.9-18.5-1.9-6.5-1.7-7 5-11 5.3-3.1 5.5-3.1 5.5-.3 0 3.2 4.3 12.1 8.2 16.9 4 5 10.4 8.9 14.6 8.9 7.3 0 17-5.7 20.1-11.8 1.1-2 3.1-4.8 4.6-6.2 4.1-3.8 4.4-4.9 5.5-18.1.9-9.5 1.5-12.5 2.8-13.5 1.4-1 1.7-3 1.7-11.6 0-9.7-.2-10.8-3.3-17-8.1-16.5-21.7-24.5-36.7-21.6zm18 4.3c8.6 4.2 18.6 18.2 20 28l.5 4-1.4-3.1c-1.8-3.9-7.5-8.9-12.4-11-2-.9-7.3-1.8-11.7-2.1-13.1-.9-19 2.6-30.2 17.7-2.7 3.6-5.6 6.6-6.5 6.8-4 .8-4.9-15.8-1.2-24.6 5.8-14 28.9-22.4 42.9-15.7zm7.4 21.2c3.3 1.7 6.5 4.2 7.9 6.2 2.8 4.3 2.8 4.9-.1 4.4-1.7-.3-4.2 1.1-9.7 5.7-7.3 6.1-7.5 6.2-12.5 5.7-2.7-.3-7.6-1.1-10.7-1.8-6.9-1.6-7.6-1.1-12.1 7.5l-3.2 6.1-.3-4.5c-.2-3.3-.9-5-2.7-6.5l-2.4-2 6.3-8.6c9.7-13.1 15.3-16.3 27-15.5 4.9.4 8.6 1.3 12.5 3.3zm9.2 15c.8 2.1.7 5.9-.5 14.8-.9 6.6-1.6 13.9-1.6 16.2 0 3.6-.7 5-4.5 9.3-2.4 2.8-5.1 6.3-5.9 7.8-1.6 3.2-9.3 7.7-14.7 8.7-4.8.9-8.4-1-14.2-7.5-4.2-4.7-8.7-13.8-8.7-17.6 0-3-3.4-7.4-5.6-7.4-1.9 0-2.6-1.1-4.4-6.5-2.4-7.2-1.8-9.5 2.4-9.5 3.4 0 4.2 1.2 5.2 7 1.3 8 3.3 7.8 7.9-.9 2.1-3.9 4.5-7.3 5.4-7.5.9-.3 4.1.1 7.1.9 7.4 2 14 1.9 17-.2 1.4-.9 4.7-3.6 7.4-6 2.6-2.4 5.2-4.3 5.7-4.3s1.4 1.2 2 2.7zM683.8 99c11.3 5.1 24.4 24.2 35.1 51.1 1.6 4.2 7.8 18.2 13.6 31 19.2 42 19.4 44.5 6.5 64.7l-3.4 5.3 3.2 6.5c1.8 3.5 8.1 14.4 14 24.1 6 9.8 12.2 20 13.7 22.7 4.1 7.1 17.5 39 16.7 39.8-.6.6-6.1 1.2-8.7.9-.6-.1-4-3.6-7.5-7.9-3.5-4.2-10-12-14.5-17.2-13.1-15.4-20-26-17.6-26.8.7-.2 3.6-2.3 6.5-4.6 5.1-4.2 7.3-8.6 4.1-8.6-2.6 0-11.2 4.8-12.9 7.2-1.4 2-1.8 2.1-3 .8-.8-.8-3.4-5.1-5.7-9.4-2.3-4.3-8-13.8-12.6-21-8.3-13-8.3-13.1-8.3-19.7 0-7-1.3-9.5-4.4-8.3-2.7 1-2.5 4.8.6 11.7l2.2 4.9-1.7 12c-3 20.5-4.2 21.9-20.2 22.3-18.2.6-27.2 4.9-17 8.3 6.4 2.1 13.1.8 27.2-5.4.6-.3 2.1.4 3.2 1.5 1.6 1.6 2.1 3.4 2.1 7.6 0 5.2-.1 5.5-2.5 5.5-1.4 0-6 1.8-10.3 3.9-17 8.5-23.8 9.4-40.2 4.9-4.3-1.1-11.8-2.2-17.5-2.4l-10-.4-.7-5.2c-.3-2.9-.6-8.6-.7-12.6-.1-8.3-.6-8 9.5-5.6 7.3 1.7 22.7 2.4 24 1.1 1.7-1.6-1.5-4.3-7.7-6.6-7.6-2.8-21.5-3.5-24.2-1.2-3.8 3.1-6.9-4.4-8.7-20.9-.5-5.2-1.5-12.8-2.1-16.7-1.1-6.6-1-7.9 1.1-14.2 2.5-7.8 2.4-10.6-.5-10.6-2.8 0-4.5 4.1-4.5 11.3 0 4.8-.5 7.1-2 9.2-2.5 3.5-11.9 9.6-12.9 8.4-.4-.5-3.3-4.4-6.6-8.7-3.2-4.4-6.7-8.2-7.6-8.6-1.6-.5-1.1-1.6 3.5-7.6 12.3-16.3 25-24.7 44.9-30 13.9-3.7 14.1-3.7 14.8 5.5.9 10.3 2.6 15.4 7 20.3 3.6 4.2 3.7 4.2 10.6 4.2 5.7 0 7.9-.5 13.5-3.3 8-3.9 12.8-9 12.8-13.4 0-4.6 1.1-2.8 6 9.6 2.4 6 5.7 12.7 7.5 15 2.9 3.9 3.4 4.1 9.3 4.6 3.6.3 6.7 1.1 7.6 2 .7.8 2.8 6.2 4.6 11.9 5.2 16.4 10.1 20.1 16 12 6.2-8.6 11.1-21.6 11.4-30.1.2-6.7-2.4-9.7-11-12.7-5.4-2-8.1-3.7-12.5-8.1-7.2-7.1-11.1-15.3-18.4-38.5-9.8-30.9-14.5-38.9-26.3-44.7-6-3-7.5-3.3-15.7-3.3-14.3 0-20 4.1-22.7 16.5-.6 3-1.3 4.7-1.6 3.7-.7-3.3 3.7-15.5 7.5-20.4 5.9-7.8 14.1-14.2 22.2-17.4 6.3-2.5 16.4-2.4 21.9.1zm-13.7 22.3c10.9 4.8 17.2 14.8 24.9 39.7 7.5 24.3 10.8 32.3 16.8 40.3 4.5 5.9 9 9.1 16.6 11.7 8.3 2.8 9.6 4.2 9.6 10.5 0 10.2-10.4 32.5-15.1 32.5-1.7 0-4.9-6.4-8.1-16.3-3.7-11.6-5.7-13.7-12.8-13.7-3.1 0-5.5-.6-6.8-1.8-4.9-4.1-15.3-30.5-22.2-56.4-2.3-8.4-5-17.8-6.1-20.8-4.1-11.3-12.6-20.9-20-22.5-3.9-.9-6.3 1.2-8.5 7.4-1.8 4.8-4.1 8.3-3.1 4.6.3-1.1 1.1-3.8 1.6-6 1.3-4.8 5.4-9.1 10.7-11.1 5.4-2 15.6-1.2 22.5 1.9zM348 125c0 .5-.4 1-1 1-.5 0-1-.5-1-1 0-.6.5-1 1-1 .6 0 1 .4 1 1zm307.5 7.6c5.5 5.5 9.4 13.9 12.9 27.4 1.5 5.8 3.6 13.4 4.7 16.9 2.4 7.8 2.4 7.8-.2 5.5-1.8-1.6-2.3-1.6-4.2-.4-6.6 4.1-15.2 8-18 8-7.5 0-12.3-6.3-15.2-19.8-1.9-9.3-2-23 0-25.5.7-1 2.4-4.8 3.6-8.3 3.1-8.7 5-10.6 8.9-9.2 1.7.5 5 3 7.5 5.4zm-317.9 4.2c.1 5.8 3.1 11.8 8 16.2 4.9 4.3 10.3 6.6 18.6 8 10.6 1.9 18.9-.5 26.7-7.5l3.8-3.5 2.4 2.6c1.3 1.4 5.3 4.9 8.9 7.7 20.9 16.3 26.3 24.8 29.9 47.3l1.7 11.2-4.5.6c-2.5.4-7.3 1.7-10.5 3.1-3.3 1.3-6.3 2.2-6.8 1.9-.4-.3-1.8-2.4-2.9-4.6-1.8-3.4-2-5.1-1.4-10.3 1-10.1-2.2-18-5.6-13.9-1 1.3-1 2.9.1 8.7 2 10.2 1.7 18.1-1 25-3.1 8.2-7.3 12.7-11.7 12.7-4.4 0-17.2 4.3-22.2 7.4-6.7 4.3-10.2 10.6-6.7 11.9 3.2 1.3 11.6-2.5 24.3-10.9 4.4-3 8.6-5.4 9.1-5.4.6 0 1.3.8 1.6 1.7 1 3.4 2.6 18.8 2.9 27.2l.2 8.3-7 .2c-4.8.2-8.7 1-12.3 2.5-10.2 4.6-15 14.2-7.4 14.9 3.9.4 15.8-4.9 23.4-10.4 5.5-3.9 6.5-3.2 5.3 3.4-.8 4.5-7.2 24.2-8.4 26.1-.8 1.2-2.8 1-13.1-1.3-17.7-3.9-27.5-3.7-45.4.9-13.1 3.3-14.9 3.5-29.8 3.5H292v-9.3c0-10.3 1.4-19.7 3.6-23.9 1.4-2.6 1.6-2.7 3.7-1.4 4.1 2.7 13.9 4.6 23.7 4.5 10.2 0 15.7-1.3 17.4-4.2 1.5-2.5-1.1-4.3-8.3-5.8-6.9-1.4-27.4-1.4-32 0-2.9.9-3.6.8-4.7-.7-1.8-2.3-1.7-14.1.1-27.2 1.7-12 2-23.5 1-36.5-.6-7.8-.4-9.7 1.4-14.2 4.1-10.5 3.7-20.4-1.2-23.8-3.5-2.4-4.7-.3-4.7 8.2v7.4l-2.7-1.9c-1.6-1.1-5.3-3.4-8.3-5.1-3.1-1.8-6.6-4.1-7.9-5l-2.4-1.8 3.8-9.9c5.7-15.1 10.3-23.2 14.8-26.5 2.7-2 7.2-3.6 15.5-5.4 6.4-1.5 16-3.7 21.2-5 5.2-1.3 10-2.3 10.5-2.4.6 0 1 2 1.1 4.7zm-40 47.9c1.6 3.8 1.5 7.3-.8 14.8-1.1 3.8-1.2 3.9-1.9 1.5-1.1-4-1.1-20 .2-20 .5 0 1.7 1.7 2.5 3.7zm-13.9 7.7c4.4 2.2 5.3 3.1 5.9 6.1.3 2 .4 3.9 0 4.2-.8.8-12.5-3.9-18.4-7.3-4.5-2.7-4.5-2.7-2.1-9.2l.9-2.3 4.2 2.9c2.4 1.6 6.6 4.1 9.5 5.6zm-1.8 10.5c4.4 1.7 8.7 2.8 9.5 2.5 1.1-.4 1.6-.1 1.6 1 0 1.4-10.7 24.6-11.3 24.6-.2 0-2-.9-4.2-2s-4.9-2-6.1-2c-3.6 0-7.4 1.8-7.4 3.5 0 2.1 4.1 3.5 10.6 3.5 6.4 0 6.5.3 3.1 10-1.5 4.1-6.8 13.2-14.3 24.4-6.5 9.8-13.3 20-15 22.7-4.8 7.4-5.1 7.7-10.7 8.4-2.9.3-6 .9-7.1 1.2-1.6.4-1.7.1-1.1-2.8 1.1-4.9 13.8-42.2 17.3-50.9 1.7-4.1 6.9-16 11.6-26.3 10.3-22.4 10.5-23.2 7.7-24.7-1.2-.6-2.1-1.5-2.1-2s2.2.6 5 2.5c2.7 1.8 8.5 4.7 12.9 6.4zm127.2-.7c.2 2 0 4-.4 4.4-.4.4-.7-.2-.7-1.3s-.3-3.6-.6-5.4c-.5-2.4-.3-3.1.4-2.4.6.5 1.2 2.7 1.3 4.7zm195.2 15c-.7 3.9-2.3 6.1-2.3 3.2 0-3 1.1-6.4 2.1-6.4.5 0 .6 1.5.2 3.2zM415 229.5c0 1.1 2.4 6.3 5.4 11.6 3.2 5.7 6.7 13.9 8.6 20 3.7 12.1 6.2 16.7 13.7 25.5l5.4 6.5-3.2 6.5c-1.8 3.5-3.4 8.7-3.7 11.4-.4 4.5-.3 5 1.6 5 1.8 0 2.1.6 1.9 3.8-.1 2.8.6 4.7 2.7 7.3 2.4 3 2.8 4.6 3.1 11 .3 8 4 21.1 7.6 26.9 5.2 8.3 6 18.2 2.9 34.2-1.1 5.7-2 11.2-2 12.3 0 1.1-2.1 8.5-4.6 16.4-3.6 11.5-4.3 14.6-3.2 15.2.7.5 6.1 2.8 11.9 5.1l10.7 4.3.6 5.5c.3 3 .2 7.1-.4 9-1.3 4.6-1.3 33.7.1 42 .5 3.6 2.1 8.5 3.4 10.8 2 3.6 2.3 4.8 1.4 6.5-.8 1.3-.9 4.9-.5 10.2.7 9.9 4.4 32.3 5.7 34.7.6 1.2 2.2 1.8 4.4 1.8 1.9 0 3.5.3 3.5.7 0 .4-1.7 2.4-3.7 4.5-2.8 2.9-3.4 4.1-2.6 4.9 1.7 1.7 5.7-1.2 8.5-6.1 2.9-5 8.2-6.6 12.2-3.7 1.5 1.1 1.6 1.9.6 6.2-2 8.8-4.7 9.9-16.2 7l-5.9-1.6-8.7 4c-15.9 7.2-19.5 7.5-35.9 2.9l-11.3-3.1-7.6 1.6c-4.2.9-12.7 3.7-18.8 6.2-6.1 2.6-12.9 5.3-15.1 6.2l-4.1 1.6-6.9-7.2c-10.3-10.6-11.8-13.7-11.2-23.6.3-4.4 1.7-11.6 3-16 6.7-21.3 9.7-31.9 12.1-42.5 2.8-12.8 5.9-39.9 5-43.6-.3-1.3-.2-3 .4-3.7.6-.7 2-10.2 3.1-21.2 1.2-11.6 3.8-28.2 6.1-39.5 5.1-24.5 10.7-57 11.5-67.6 1.2-13.6 7.2-12.2-54.7-12.6-39.5-.2-53.8-.6-55.3-1.5-1.6-1 .8-1.2 12.7-1.2 13.5 0 16-.3 30-3.7 14.1-3.3 16.1-3.6 25.8-3.1 6.2.3 14.8 1.6 20.9 3.2 5.8 1.4 10.8 2.2 11.2 1.8.4-.5 2.6-6.2 4.9-12.8 4.3-12.7 6.1-22.7 4.1-23.9-.6-.4-1.1-3.4-1.1-6.9 0-8.5-2.8-31.4-4.1-33.8-.8-1.6-.7-2.5.4-3.7 2.3-2.7 5.4-9.3 7.2-15.6l1.7-5.8 2.4 3.8c1.3 2.2 2.4 4.8 2.4 5.9zm20.5-5.4c0 2-.7 2.6-4.5 3.6-8.9 2.3-16.1 1.1-10.8-1.8 3.2-1.7 13.1-4.8 14.3-4.5.6.1 1 1.4 1 2.7zm7.8 12c2.2 5.5 3.7 10.1 3.5 10.3-.1.1-2.5 1.1-5.2 2.1-5.4 2.2-7.7 4.8-5.9 6.6 1.2 1.2 10.3-2.2 12.4-4.7.6-.8 1.5-1.4 1.9-1.4 2.5 0 12.5 26.8 13.2 35.4.3 4.3-.1 4.8-7.7 6.6l-5 1.1-3.4-3.8c-6.2-7-13.1-17.6-14.2-21.7-3.2-11.8-5.6-17.9-10-25.7-2.7-4.8-4.9-8.9-4.9-9.3 0-.3 2.2-.6 4.8-.6 5.5 0 15.2-2.6 15.2-4 0-3.1 2 .3 5.3 9.1zm134-2.7c3.1 4.1 5.7 7.8 5.7 8.4 0 .5-1.4 1.5-3 2.2-2.8 1.1-3.3 1-5.5-1-1.3-1.2-3.6-4.6-5.2-7.5-2.7-5.3-2.7-5.4-.9-7.4 1.1-1.2 2.2-2.1 2.5-2.1.3.1 3.2 3.4 6.4 7.4zm-300.8-2.3c1.1 1.1-1.9 1.2-6.6.2-2.8-.5-3-.7-1.4-1.4 2.2-.8 6.5-.1 8 1.2zm290.4 4.5c3.7 7.7 6.9 11.2 10.4 11.6 3 .3 2.7.6-6.5 6.5-5.3 3.5-9.9 6.3-10.1 6.3-.3 0-1-2.3-1.7-5.1-1.4-5.6-3.5-7.3-5.7-4.3-1.8 2.4-1 7.1 1.8 10 2.5 2.7 2.3 3.7-3.6 15.4-6.3 12.3-5.9 12.1-12.9 11.3l-5.9-.6.7-8.1c.8-10.1 2.7-17.5 5.7-21.8 2.5-3.6 23.9-25.8 24.9-25.8.3 0 1.6 2.1 2.9 4.6zm134.1.1c0 2.8-.3 3.4-1 2.3-1.3-2-1.3-6 0-6 .6 0 1 1.7 1 3.7zm-97.5 15.2c1.5 13.9 3.5 22 6.1 24.2 1 .8 1.4 3.6 1.4 10.4 0 5.1.3 11.9.6 15.2l.7 6h10.1c7.6 0 12.8.6 20.9 2.6 6 1.5 12.6 2.7 14.7 2.7 5.2 0 15.9-3.4 25.4-8.2 7.2-3.5 10.6-4.2 10.6-2 0 1.4-10.2 6.9-17.7 9.6-11 3.9-19.7 5.7-31 6.3-15.2.9-25.1-1.5-31.6-7.5-4.5-4.2-6.1-.5-7.3 16.8-.4 5.2-1.3 10.4-2 11.6-2.1 3.1-5.1 16.1-7 29.2-1.7 12.5-1.6 17.1 1.2 58.7 1.4 21.3 2.1 70.6.9 72.4-.3.5-.5 7.9-.6 16.4-.1 14.7.1 15.9 3.1 24.7l3.1 9.3-2.7 4.1c-1.4 2.3-6.6 8-11.5 12.7-10.2 10-11.2 12.5-5.6 15.9 5.1 3.2 11.5 5.3 13.4 4.6 1.5-.6.9-1.5-3.5-5.3l-5.3-4.6 5.9-6.1c8.2-8.4 13.2-15.3 13.2-18.2 0-2.4.2-2.5 5.7-2.2 5.3.3 5.9.6 8.1 3.8 3.4 5.1 2.6 7.6-4.3 13-4.8 3.7-6.8 6.2-10 12.4-2.9 5.6-4.6 7.9-6.5 8.4-3.2.9-46.2.5-51.8-.5-4.2-.8-4.5-1.1-6.7-6.6-1.3-3.2-2.7-7.7-3-10-.6-3.7-.4-4.3 1.7-5.2 2.2-1 2.3-1.4 2.3-11.5-.1-14.4-5.2-72.1-7.1-79.5-.9-3.3-1.7-7.4-1.9-9.2-.4-3.9-3.5-9.3-5.3-9.3-1 0-1.2-.6-.7-1.8 1.3-3.1 1.8-25.5.7-31.4-.8-4.3-.8-8.8.3-18 1.7-15.7 1.6-15.5 9.1-33.8 8.8-21.9 9.8-25.6 9.2-36.2-.3-4.8-1-9.4-1.5-10-1.6-2-2.1-5.4-1.2-6.9.8-1.2 1.1-1.1 1.9.1.7 1.2 1.3 1.3 2.7.4 1.4-.9 1.8-2.5 1.8-7.5 0-5.4-.6-7.6-3.6-13.6-3.3-6.4-3.5-7.4-2.1-8.5.8-.7 4.1-6.7 7.3-13.2l5.8-12 10.2-6.7c5.6-3.7 12-8.5 14.3-10.7 2.3-2.1 6.2-5.3 8.7-7 2.5-1.7 5.1-3.8 5.9-4.7 1.3-1.5 1.5-1.5 2.2.6.5 1.2 1.5 8.3 2.3 15.8zm-211.6-5.6c-6.6 5.5-22.3 13.9-25.1 13.5l-2-.3 2-2.6c2.6-3.3 12.4-8.5 19.3-10.3 4.8-1.2 7.1-1.3 5.8-.3zM557 257c0 2-.2 2.2-1 1-.5-.8-1-2.6-1-4 0-2 .2-2.2 1-1 .5.8 1 2.6 1 4zm80.4 20c3.6 1.2 6.6 2.3 6.6 2.7 0 .3-4.2.3-9.2.1-9.8-.6-18.8-2.4-18.8-3.9 0-1.7 14.6-.9 21.4 1.1zm45.6 7c-4.6 2.9-22 4.4-22 2 0-1.3 4.9-2.3 14-2.9 9.1-.7 10.3-.5 8 .9zm-350.6.3c5.7 1.4 7 3.3 2.9 4.4-5.6 1.6-23.5.9-29.5-1.1-5.9-1.9-7.1-3.1-4-3.9 3.5-.9 25.9-.5 30.6.6zm409 1.2c-5.4 4.3-7.4 5.6-7.4 4.8 0-1.5 1.5-3.1 5-5.1 3.7-2.3 5.5-2.1 2.4.3zm-342.6-.6c1.9 1.1-2.1 4.1-11.2 8.6-12.2 6-16.7 5.6-11.5-.9 4.2-5.4 18.7-10.3 22.7-7.7zM547 299.2c3.9 8 5.5 16.8 3 16.8-.5 0-1-1.6-1-3.5 0-8.7-5.6-14.3-13-13-2.1.4-4.8 1.7-6.1 3.1-2.2 2.4-2.3 2.7-.9 6.7 1 2.6 2.7 5 4.9 6.4 2.6 1.8 3 2.3 1.4 2.3-1 0-2.8-.7-3.9-1.5-1-.8-2.9-1.5-4.1-1.5-1.5 0-2.4-1-3.2-3.1-1.6-4.7-1.5-5 3.4-12.3 2.5-3.7 4.5-7.2 4.5-7.7s2.5-.9 5.5-.9h5.6l3.9 8.2zm-80.4-1.5c2.4 5.6 5.4 16.4 5.4 19.4 0 4.8-9.6 16.9-13.5 16.9-1.9 0-7.6-5-6.9-6.1.3-.5 2-.9 3.7-.9 4.1 0 10.7-1.8 10.7-2.9 0-.5-.7-1.2-1.6-1.5-2.6-1-14.2-.7-14.9.4-1 1.6-2.5.1-2.5-2.5 0-3.1.9-3.5 5.1-2.7 6 1.3 7.9.5 10.1-4.5 2.4-5.4 1.8-8.4-2.2-12.4-3.2-3.2-7-3.8-9.1-1.3-.8.9-2.3 4.4-3.4 7.7s-2.6 6.3-3.4 6.5c-2.1.7-.7-6.1 2.6-12.7 2.8-5.4 2.9-5.4 7.8-5.8 2.7-.2 5.1-.6 5.4-.8.2-.3 1.5-.5 2.8-.5 1.7 0 2.7 1 3.9 3.7zm-8.1 4.8c3 2.9 3.3 8.3.7 11.5-1.6 2-2.4 2.2-6.5 1.6-4.6-.7-4.6-.8-4-3.9 1-5.4 4.1-11.7 5.8-11.7.9 0 2.7 1.1 4 2.5zm85.5 1.7c1.1 1.2 2 2.7 2 3.4 0 .7.3 1.9.6 2.7.4 1-.9 1.9-4.5 3.1-5.5 1.8-7.3 1.5-9.4-1.7-2.6-4.1-2.7-5.7-.7-7.7 2.8-2.8 9.3-2.7 12 .2zm-300.9 1.9c1.9 3.6 1.6 13.2-.5 16.4-1.4 2.1-1.7 4.1-1.4 8.1.4 4.3.1 5.7-1.3 7-1.6 1.4-1.8 1.4-2.8-.5-.6-1.1-1.1-4.2-1.1-7 0-5.9-.7-8.1-2.6-8.1-2.2 0-3.6 5-2.9 10.3.8 6.8 2.4 9.6 6.4 11.6 3.2 1.7 3.3 1.9 1.5 2.9-4.3 2.3-14.1-3.8-17-10.5-2.8-6.6-.6-20.7 4.6-29.1 1.9-3.1 2.2-3.2 9-3.2 6 0 7.1.3 8.1 2.1zM545 316c0 .5-1 1-2.2 1-1.9 0-2-.2-.8-1 1.9-1.3 3-1.3 3 0zm-9.8 8c1.6 0 3.8-.5 5-1.1 1.1-.6 2.2-.8 2.5-.5.8.8-6.2 3.6-10.4 4.3-2.8.5-3.4.2-4.3-2.1-.5-1.5-1-3.6-1-4.7 0-1.8.3-1.6 2.6 1 1.8 2.2 3.5 3.1 5.6 3.1zm3.8-3c-2 1.3-5.7 1.3-6.5 0-.4-.6 1.1-1 3.7-1 3.1 0 3.9.3 2.8 1zm-31.9 3.5c2.4.9 5.3 2.2 6.3 3 2 1.5 2 1.5 0 4.2-2 2.6-2.2 2.7-13.5 2.7-14 .1-17.1 1.6-21.5 10.1-1.6 3-3.2 5.5-3.6 5.5-1.6 0-.7-10.6 1.1-14.5 2.4-5.2 5.7-8.1 11.7-10.5 6-2.3 13.6-2.5 19.5-.5zm-50.8.2c-.7.2-2.1.2-3 0-1-.3-.4-.5 1.2-.5 1.7 0 2.4.2 1.8.5zm-222.6 9.5c-.2 1.8-.4.6-.4-2.7 0-3.3.2-4.8.4-3.3s.2 4.2 0 6zm116.3-5.4c36.4.2 52.9.7 53.8 1.4 1 .9 1.2 2.8.7 7.7-1.1 11.3-5.3 36.6-10.5 62.6-4.6 23-6.8 37.9-8.5 57.5-.4 4.1-.9 7.8-1.1 8.2-.2.3-1.9-.1-3.6-1-4.8-2.3-20.6-2.3-22.2 0-.8 1.4-.6 2.2 1.1 4 2.5 2.4 9.7 3 18.7 1.5l4.9-.9-.7 11.8c-1.2 21-4.8 38.8-13.6 65.9-3.6 11.1-5.4 18.3-5.7 23.5l-.6 7.6-4.6-2.4c-3.5-1.8-5.9-2.2-9.9-2-5.2.3-5.3.3-4.7-2.2 2.7-10.5 3.5-19.1 4.6-50 .8-24.2.8-39.4.1-51-.5-9.1-.7-27.1-.5-40 .4-19.5.2-25.1-1.2-33-1.2-6.6-1.7-13.9-1.5-23.8.1-12.5 0-14.2-1.5-14.2-2.1 0-4.5 5.8-4.5 10.7 0 2.1.6 6.4 1.4 9.6 1.4 5.8 1.3 5.9-3.1 20-3.6 11.6-4.6 16.5-5.4 26.7-.6 6.9-1.3 15.4-1.7 19l-.7 6.5-11.5.1c-12.8.1-18 .9-18 2.9 0 5.1 11.8 5.7 28 1.4 1.9-.5 7.6 11.1 12.5 25.4 3.7 11.1 3.8 11.3 3.2 22.7-.6 11.2-1.9 18.3-3.9 20.7-2.3 2.9-9.7-5.3-28.6-31.6-18.4-25.7-22.1-35.3-24.2-62.2-1.2-14.7-1.1-38.1 0-39.3.3-.3 4.8-.1 10 .5 9.9 1 16.3.4 15.7-1.5-.9-2.9-17.3-5.2-23.8-3.4-2.5.7-2.7.6-3.3-3.5-1.1-7 2.1-45.4 4.5-54.9.9-3.6 1-3.6 4.2-2.5 2.1.7 20.6 1.2 55.7 1.5zm196.4 1.9c1.5 9.6-.3 18.9-7 34.9l-1.6 3.7-4.6-4.9c-7.6-7.8-7.6-8.2-2.6-15.2.1-.2 2.5.5 5.3 1.5 3.5 1.2 5.4 1.4 6.1.7 2.6-2.6-2-6.4-7.6-6.4-2.2 0-2.4-.4-2.4-4.9 0-2.7-.3-5.6-.6-6.5-.5-1.2.3-1.7 3.4-2.2 2.2-.3 5.3-1.4 6.9-2.4 3.9-2.5 4-2.5 4.7 1.7zm-24.4 7.2c1.4 5.1 1.3 15.1-.2 15.1-.6 0-2.1-.9-3.3-2-1.9-1.8-2-2.6-1.4-8.7.5-3.8.8-7.6.8-8.7.1-3 2.9-.1 4.1 4.3zm-7.2 4.3-.8 8.2 3.5 3.2c1.9 1.7 3.5 3.9 3.5 4.7 0 2.2 1.8 3.1 3.5 1.7 2-1.7 1.9-.7-.5 4-3 5.8-4 5.8-4 .1 0-6.6-.6-7.9-4.6-9.6l-3.4-1.4.6-5.5c.6-4.8.4-5.5-1.5-6.5-3.1-1.7-13.8-2.4-20.3-1.3-6.7 1-7.6-.1-2-2.5 2.9-1.2 5.7-1.4 13.3-.9 7.9.5 9.9.3 10.9-.9 2.3-2.8 2.6-1.6 1.8 6.7zm-58.9-5.6c2.4 1.2 3.8 1.3 6.1.6 3.1-1.1 4-.2 4 4.4 0 1.8-.7 2.5-2.7 3-4.2 1-5.6 2.4-4.2 4 1.4 1.7 5.1 1.8 6.7.2.9-.9 1.5-.8 2.7.8 1.9 2.5 1.9 3.4-.2 3.4-.9 0-3.4 1.7-5.5 3.7-2.6 2.5-4.1 3.4-4.8 2.7-1.8-1.8-7.1-24.4-5.7-24.4.2 0 1.8.7 3.6 1.6zm174 4c2.5.4 3.1.8 2.1 1.4-1.6 1-7.3.5-13.7-1.2-9.7-2.4-2-2.6 11.6-.2zm-120.2 2.1c1.1.4 1.3 1.8.7 5.9-.6 5.3-.6 5.4 2.9 7.4 3.2 1.9 3.5 2.5 4 8.3l.5 6.2-4.3 4.1c-6.1 5.7-10.1 7.4-17.7 7.4-8.8 0-12.7-2.2-15.1-8.6-1.1-2.7-3.1-7.3-4.5-10.3-3.7-7.4-3.6-7.3-1.6-6.9 1.4.2 2.2-.7 3.2-3.7 2.2-7.1 5-9.6 11.7-10.5 5.8-.8 17.4-.4 20.2.7zM540 349c0 .5-.9.6-2 .3s-2-.9-2-1.3c0-.5.9-.6 2-.3s2 .9 2 1.3zm242.8-1.3c-1 .2-2.6.2-3.5 0-1-.3-.2-.5 1.7-.5s2.7.2 1.8.5zm8.7 9.7c3.9 8.5 8.5 22.7 8.5 26 0 5.5-9.3 19.7-11.9 18.1-1.7-1-1.3-2.7 1.9-7.5 1.6-2.5 3-5.6 3-7 0-3.3-4.1-12-6.8-14.3-3.6-3.2-4.5-1.3-3.7 7.4.6 7.4.5 7.9-1.3 7.9-1.1 0-2.4-.6-2.9-1.3-1.4-1.7-3.3-17.6-3.3-27.4 0-9.2-.2-9 8.3-9.2l4.8-.1 3.4 7.4zm-323.5.5c0 2.4-3.7 7.1-5.6 7.1-2.3 0-1.6-3.2 1.3-6.2 3.1-3.3 4.3-3.5 4.3-.9zm231.2 1.3 5.3 1.2-4 .7c-9.3 1.8-19.2.3-13.5-2 3.4-1.3 6-1.3 12.2.1zm-226.9 4.5c.8 1.6 1.8 4.6 2.1 6.8 1.5 7.9 5.6 13.5 12.5 17 2.8 1.4 5.1 1.7 11.7 1.2l8.2-.5-4.4 5.5c-4.7 5.8-5.8 10.3-2.5 10.3 3.1 0 16.4-16.4 16-19.7-.3-2.3 3.9-11 7-14.5l2.4-2.8 1.1 2.3c.7 1.2 2.8 3.3 4.8 4.6l3.6 2.3-2.3 6.2c-2 5.3-2.8 10.2-5.1 29.1l-.4 4-11.3-.3c-9.4-.3-11.5-.1-12.6 1.2-1.9 2.2 0 4.3 5.1 5.7 4.3 1.1 10.3.5 15.5-1.7 3.2-1.2 3.3-1.2 4 1.4.5 1.5.8 8.8.7 16.3-.1 11.6-.4 14.2-2 17-4.9 8.4-30.6 13.7-43.9 9-4.6-1.6-5-2-5.8-6-.5-2.4-.7-4.4-.5-4.7.2-.2 2.5.3 5.1 1.1 8.3 2.5 24.3 3.7 34.1 2.6 4.9-.6 9.3-1.4 9.8-1.9s1.1-3.1 1.4-5.8l.6-4.9-11.8-.1c-15.8 0-23.2-1.5-39.9-7.9-7.7-3-15.2-5.7-16.6-6l-2.6-.6 2-6.7c1.1-3.7 2.1-6.8 2.2-7 .1-.1 2.7 1.3 5.8 3.1 7.2 4.4 14.3 6.5 16 4.8.9-1 .3-2.1-3-5-4.2-3.8-9.8-6.1-14.6-6.1-1.4 0-2.8-.4-3.1-.9-.4-.5.3-5.6 1.4-11.3 2.2-11.6 2.5-20.8.9-27.4-1.2-4.5-1.1-4.6 2.7-8.5 2.1-2.1 3.9-3.9 4.1-3.9.1 0 .9 1.2 1.6 2.7zm63 8.4c-2 2-7.3-2.6-7.3-6.4v-3.2l4.2 4.2c3.2 3.2 3.9 4.6 3.1 5.4zm-192.4-.9c-.1 6.2-.2 6.8-1 3.8-.7-3.1-.2-11 .7-11 .2 0 .4 3.3.3 7.2zm171.1 9c-1.7 2.9-3.1 3.8-7.8 5.2-7.9 2.2-14.4 2-19.3-.5-5.3-2.7-4.6-3.2 1.6-1.3 8.6 2.7 20.6-.2 25.5-6.1 2.2-2.6 2.2-1 0 2.7zm135.5 41.5c-.8 9.4-1.5 21.4-1.5 26.5 0 11.8 1.5 15.2 13.9 30.3 5 6 8.8 11.1 8.6 11.3-.2.2-2.7-.8-5.5-2.2-2.8-1.4-6.1-2.6-7.2-2.6-2.7 0-2.2 1.7 4.9 19.3 3 7.6 5.3 14.1 5 14.3-.3.3-1.7-.2-3.1-1.1-1.3-.9-3.5-1.5-4.8-1.3-2 .3-2.3.9-2.6 5.4-.2 2.9.6 15.6 1.8 28.3 1.9 21.8 2.4 30.9 1.4 28.6-.7-1.8-6.4-56.8-7.4-71-.7-9.6-1.7-16.5-3.4-22.1-1.9-6.4-4.6-21.9-4.6-26.7 0-.4-.8-.7-1.8-.7-3.3 0-9 12.8-11.2 24.8-.5 3.1-1.9 12.7-3 21.2-2.8 21.3-5.1 35.3-6 36.3-1.8 2-2.5-26.3-1-41.3 1.3-12.4 2.7-16.8 11.6-37.8 8.8-20.7 9.6-23.6 13.5-51.6 1.6-11.6 3-21.5 3.1-22.1.1-.5.4 3 .6 8 .1 4.9-.4 16.7-1.3 26.2zm-140.4-30c-7 8.6-8.1 9.7-8.1 8.6 0-1.4 9.1-12.2 10.3-12.3.5 0-.5 1.7-2.2 3.7zm-207.3-1c-1.5.2-4.2.2-6 0-1.8-.2-.6-.4 2.7-.4 3.3 0 4.8.2 3.3.4zm42.8 7.5c.4 2.9.9 20.8.9 39.8 0 19 .5 39 .9 44.5.5 5.5.5 9.7.1 9.3-.4-.4-2.2-5.3-4.1-11-1.9-5.7-5.3-14-7.5-18.6-2.2-4.5-3.7-8.7-3.4-9.2.4-.6 1.2-9 2-18.8 1.1-15.5 1.8-19.4 5.1-30 2-6.7 4-11.9 4.4-11.7.4.3 1.1 2.8 1.6 5.7zm128 19.2c5 2.3 7.7 4.6 5.4 4.6-1 0-13-5.6-13.9-6.6-1.3-1.3 4.1 0 8.5 2zm49.4.5c0 1.4-2.8 2.1-8.5 2.1s-8.5-.7-8.5-2.1c0-.5 3.8-.9 8.5-.9s8.5.4 8.5.9zM473 438c17.2 6.7 23 8 38.8 8.7l13.3.6-.6 2.6c-.4 1.4-1.1 3-1.6 3.6-.6.6-7.7 1-17.2 1-12.7 0-17.7-.4-22.9-1.9-6.4-1.7-6.8-2-7.4-5.3-.7-3.9-1.3-4.2-12.2-7.3-5.7-1.7-7.2-2.5-6.8-3.6.3-.9.6-2 .6-2.5 0-1.7 3-.9 16 4.1zm-17.4 1.8c.5.5 4.6 1.9 9.2 3.2 6.5 1.8 8.2 2.7 8.2 4.1 0 1.1-.5 1.9-1 1.9-2.6 0-19-7.5-19-8.7 0-1.5 1.1-1.7 2.6-.5zm-131.8 15.7c-1.2 1.2-12.3 2.6-15.9 2-7.2-1.2-4-2.5 6.3-2.5 5.6 0 9.9.2 9.6.5zm207.1 8.4c1.8 3.2.3 4.5-9.5 8-13.8 5-28 5.1-37.3.3-3.1-1.6-6.7-6-5.7-6.9.2-.2 2.2.4 4.6 1.2 5.9 2.1 17.9 1.9 27.8-.5 9.3-2.2 12.8-3.8 15.7-7l1.9-2.2.7 2.4c.3 1.3 1.2 3.4 1.8 4.7zm-155.2 2.2c3.7 1 4.2 1.4 2.8 2.2-4.5 2.5-19.7.5-18-2.4.8-1.3 9.6-1.1 15.2.2zm135.4 34.2c-1.3 1.3-1.5-5-.3-8 .5-1.3.8-.5 1 2.6.2 2.4-.2 4.9-.7 5.4zm8.8 44c1.1 5.6 2.4 12.8 2.9 15.9.9 5.6.8 5.8-1.3 5.8s-2.2-.6-2.8-10.3c-.7-10.9-4.1-29.5-5.7-31.1-2.3-2.3-3.5 1.9-4.6 17.2l-1.1 15.7-.2-11.5c-.1-11.5.7-18.9 3-27.1l1.2-4.4 3.3 9.8c1.8 5.4 4.2 14.4 5.3 20zm-26.4-13.6c1.9.9 3.5 2 3.5 2.4 0 1.2-5.7-1-7.1-2.7-1.5-1.8-.7-1.8 3.6.3zM606 555.1c-.7 1.2-5 6.4-9.6 11.5s-8.4 9.8-8.4 10.4c0 .6 1.2 2.2 2.6 3.5 3 2.8 2.6 3.2-1.5 1.1-6.3-3.3-6.1-3.8 3.8-13.9 5-5.1 10-10.7 11.2-12.6 2.2-3.6 3.8-3.7 1.9 0zm-68.5 30.1c.4 1.6 1.1 2.8 1.6 2.8s.9.5.9 1.1c0 1.7-7.8.4-10-1.6-1.7-1.6-2.7-6.1-3.3-16-.2-2.9 0-3 4.3-3.5l4.5-.5.6 7.5c.3 4.1.9 8.7 1.4 10.2zm5.2 1.5c-1.7 1.7-4.7-5.2-4.7-10.7 0-1.7.9-.5 2.6 3.8 1.4 3.5 2.4 6.6 2.1 6.9zm-167.9 12.4c2.8 3.1 5.2 5.8 5.2 6.1 0 1.3-4 1.5-5.8.2-1.8-1.2-9.3-15.3-9.1-17.1 0-.4 1 .5 2.2 2.2 1.2 1.6 4.6 5.5 7.5 8.6zm312.1 8.7c2 7.3 1.7 8.8-1.8 7.7-2.3-.7-3.1-3.3-3.1-10.6 0-9.8 1.6-8.8 4.9 2.9z"/></svg>