<svg xmlns="http://www.w3.org/2000/svg" version="1.0" viewBox="0 0 1000 500"><g class="layer"><g fill="#00bfb8"><path d="M619.5 54.4c-.5.2-3.4 1.2-6.4 2.1-10.4 3.2-13.8 5.3-16.1 10-1.2 2.6-2 5.8-1.8 7.7l.3 3.3 3.9-5.3c2.1-2.9 5.1-5.9 6.6-6.7l2.7-1.4.5 8.4c.4 5.8 1.3 9.8 2.8 13 2.7 5.6 3.6 5.4 1.5-.5-.8-2.3-1.5-4.3-1.5-4.4 0-.1 2.2 1.9 4.9 4.4 4.3 4 4.7 4.8 3.9 7-.5 1.4-2.1 3.8-3.6 5.4-2.2 2.4-2.4 2.8-.7 2.1 2.3-.9 3.9-.9 7.9.1 6.2 1.5 14.8-7 16.2-16.2.6-3.9.8-4.3 2.6-3.3 1.5.8 2.8.6 5.6-.9 4.7-2.4 7.2-5.9 7.9-11.1.5-3.5.2-4.6-1.7-6.6-1.3-1.4-3.3-2.5-4.4-2.5-1.6 0-1.8-.2-.7-.9 1-.7.5-1.1-1.8-1.6-3.8-.8-8.6.1-10.2 2.1-1 1.3-1.6 1.1-4-1.2-2.2-2.1-4-2.8-8.1-3-2.9-.2-5.7-.2-6.3 0zM241.3 72c-16.8 4.4-23.3 11.7-17.2 19.4 2.6 3.3 3.7 3.3 10.2-.4 3-1.7 6.3-3 7.5-3 1.2 0 4 1.6 6.2 3.6 3.8 3.5 4.2 3.6 5.4 1.9 1.7-2.3 3.2-1.3 4 2.6.6 3.3 2.2 5.9 3.6 5.9 3.6 0 5.5-19.5 2.5-26.5-2.4-5.9-9.1-6.9-22.2-3.5zM581.6 111.1c-4.9 1.2-9.8 4.8-13.7 10.2-3.7 5.1-3.7 6.4.5 8.3 3.3 1.6 3.3 1.7 3.9 10.3.4 4.7 1.1 12.9 1.6 18.1 1.6 15.4-1.1 34.3-6 42.9-1.3 2.2-1.6 3.7-1 4.5.6.7.5 3.4-.4 7.6-5.5 27.1-6.7 74.1-2.5 100 3.7 23.2 3 37.1-4.1 76-4 22-4 22.2-9.4 28.5-3.6 4.2-5.7 5.7-8.9 6.5-2.2.6-5.1 1.5-6.3 2-2.3 1-6.1-.1-9.3-2.6-2.2-1.7-9.1-2.5-10.7-1.2-.7.6-1.3 2.8-1.3 4.9v3.9h-10.4c-9.4 0-10.5-.2-11.1-1.9-.3-1-2-2.5-3.8-3.2-1.8-.7-3.9-1.8-4.7-2.4-.8-.7-3.4-1.5-5.7-1.9-4.8-.7-6.3.8-6.3 6.3v3l-10.7.4c-8.5.2 53 1.1 79.2 1.1 3 0 77.2-.2 164.8-.4 87.5-.3 149.6-.6 138-.7-19.4-.3-21.3-.5-21.3-2.1 0-.9-.9-3.1-2-4.7-2.3-3.5-2.5-4.5-.7-4.5.6-.1 6.7-8.2 13.5-18l12.3-18 .8-10c.5-5.4.8-12.4.8-15.5-.1-3 .1-5.5.5-5.5 1.1 0 11.8 17.7 11.8 19.6 0 2.9-10.7 25.7-13 27.6-1.1.9-2 2.2-2 2.9 0 1.6 10.8 15.9 12 15.9 1.6 0 2.2-4.4 1.1-7.3-.8-2-.7-2.7.2-2.7 1.9 0 16.6-18.8 22.2-28.4 2.8-4.8 2.8-5 1.7-11.6-.6-3.7-3.7-14.5-6.7-24-4.8-14.6-5.9-17.1-7.3-16.5-7.4 3.1-32.5 4.6-42.9 2.6-4-.8-4.1-.7-4.7 2.2-1 4.9-.7 12.4 1.1 28.5l1.6 15.3-3.3 7.7c-1.8 4.2-5.5 12.1-8.2 17.6-2.7 5.4-4.7 10.4-4.4 11.1.3.8-.2 1.9-1 2.5-2.9 2.5-1.5 4.8 5.6 9.2 3.8 2.4 7 4.6 7 5 0 .5-12.6.8-28 .8-26.2 0-28-.1-28.9-1.9-.6-1-3.5-3-6.5-4.5-4.4-2.1-5.9-2.5-7.5-1.7-1.1.6-2.9 1.1-4 1.1-1.7 0-2.1.6-2.1 3.5v3.5h-31.1l-3.4-3.4c-1.9-1.8-3.5-4-3.5-5 0-.9-.8-1.6-1.8-1.6s-2.7-.7-3.9-1.5c-2-1.4-2.3-1.3-4.2 1.1-2.8 3.6-2.6 5.2.9 7.2 1.6.9 3 2 3 2.4 0 .5-12.1.8-26.9.8h-26.8l-.7-4.7c-.3-2.7-1.5-6.2-2.6-7.8-2.4-3.6-2.5-5.9-.4-20 1.2-8 1.5-15.3 1.1-27-.5-18.1-2.4-27-8.2-39.3-1.9-4.1-3.3-7.7-3.1-8.1 1.4-2.1 4.7-75.8 4.9-107.1l.1-17.5-3.8-11c-4.4-12.6-4.4-12.8.7-31.3 2.9-10.6 3.2-12.5 2-14.2-1.2-1.7-1-2 2.2-2.9 5.2-1.4 13.4-6.9 15-10.1 1.3-2.6 1.2-2.9-2.3-6.2-4.7-4.5-9.1-7-17.1-9.9l-6.4-2.3-1.5 2.5c-.9 1.3-4.5 5.2-8.1 8.7l-6.6 6.4-10.6-.4c-13-.4-14.6-1.3-12.3-6.6.8-2.1 2.6-5.4 3.9-7.4 1.4-2.1 2.5-4 2.5-4.3 0-.8-6-.4-10.4.6zM600 319.5c1.8 5.5 4.7 12.9 6.5 16.5 5.5 11.1 10 27.3 17 61.3l3.7 17.8-3.6 4.3c-2.8 3.4-4.4 4.5-7.7 5-2.8.4-5.1 1.7-6.9 3.6l-2.8 3h-39l-.6-4.3c-.3-2.3-.8-5.8-1.2-7.9-.5-3.1.1-4.7 4.5-12.3 10.8-18.3 18.5-36 22.3-51.1 1.7-7.1 2.2-12.2 2.3-24.9.2-13.8 1-22.4 2-21.3.2.2 1.8 4.8 3.5 10.3zM166.1 183.4c-7.3 2.6-14.1 10.7-14.1 16.7 0 4.8 4.2 16.1 7.1 19.2 2.2 2.3 2.9 2.6 2.4 1.2-.4-1.1-1-5.2-1.2-9.2-.5-6.7-.4-7.3 2-9.7 2.1-2.1 3.6-2.6 7.4-2.6 6.4 0 9.3 2.1 9.3 6.5 0 4.7.9 6.5 3.8 7.6 2.3.9 2.4 1.2 1.8 6.9-.9 7.6.1 7.7 7.7.6 6.2-5.9 6-5.2 6-19.2.1-8.1-2.3-11.4-11.4-15.9-7.5-3.8-14.2-4.5-20.8-2.1z"/><path d="M465 213.2c-4.5 3.1-5.6 6.8-4.1 13.9 1.2 6.2.8 8.3-3.3 14.6-3.9 6.1-4 7.7-1 11.3 2.2 2.5 2.7 4.1 2.5 7.5-.1 3.3.4 4.9 2.4 7.3 1.4 1.6 2.5 3.9 2.5 5 0 2.7 4.3 6 9.7 7.3 2.4.6 4.3 1.3 4.3 1.4 0 .2-1.3 3.4-2.9 7.2-2.4 5.6-2.8 7.6-2.2 10.5 1.1 4.9 6.7 12.7 9.6 13.4 4 1 5.2 3.2 2.9 5.5-2 1.9-2 1.9-8.1-2.6l-6.2-4.4-.5 2.7c-1.4 7-1.7 12-.8 12.5.5.4 6.1 1.2 12.4 1.8 13.5 1.4 25.9.5 28.7-1.9 1.9-1.6 1.9-2.1.5-10.7-.8-5-1.5-14.4-1.6-21l-.3-12.1 3.6-3.6c4.8-4.8 5.5-8.9 2-12.2-5.4-5-12.3-9.6-14.4-9.6-1.2 0-2.8.9-3.5 2-1.6 2.6-6.1 2.6-11.1 0l-3.8-1.9 1-4.4c.9-3.9.7-4.8-1.3-7.5l-2.3-3.1 2.7-3.1c1.4-1.7 2.6-3.8 2.6-4.5 0-.8.4-1.6.9-1.9.4-.3.6.7.4 2.2l-.5 2.7 1.6-2.2c1-1.3 2-4.2 2.4-6.5 1-6 3.3-6.1 8.8-.4l4.4 4.6v-3.4c0-8.1-12.6-15.9-21.5-13.5-1.8.5-4.5 2.3-5.9 3.9-2.9 3.5-3.6 3.7-3.6 1 0-1.3 1.2-2.8 3-3.8 1.6-.9 3-2.2 3-2.8 0-3.7-8.2-4.4-13-1.2zM838 213.5c-2.5.9-5.8 2.6-7.4 3.9-6.2 5.1-4.1 17.5 4.2 24.7 4.3 3.8 5.3 2.5 2.8-3.6-1.8-4.2-1.3-5.9 1.4-5 1.4.4 2-.2 2.7-3.2l.9-3.8 6.7.3c7.5.3 10.7-.9 10.7-3.9 0-7.6-12-12.7-22-9.4zM337.5 237.6c-8 4.5-28.2 11-40.5 13.1-8.3 1.5-10 2.1-10 3.5 0 1 1.8 24.4 4 52.1 2.1 27.6 4.4 58.5 5 68.7 1.2 19.8 2.6 35.6 3.6 39.6.9 3.6-4.3 7.9-12.7 10.5-4.2 1.3-7.3 2.8-8 4-.9 1.8-2.9 1.9-48.4 1.9h-47.4l.7-3.3c.4-1.7.6-5 .5-7.2-.2-2.2-.5-7.5-.7-11.8l-.3-7.8-8.2-.4-8.1-.5v3.9c0 5.5-2.7 8.5-9.3 10-2.9.6-6.3 1.9-7.5 2.7-2.7 1.9-2.9 5.8-.4 7.6 1 .7 2.2 2.5 2.6 4l.6 2.8H98.4c-30.1 0-54.5.2-54.2.5.7.8 394.9.8 395.6.1.3-.3-28.4-.6-63.8-.6-50.1 0-64.1-.3-63.2-1.2.7-.7 1.2-3.8 1.2-6.9 0-3.2.4-6 .9-6.3.5-.4 2.1-5.4 3.5-11.4 5.6-23.4 9.1-46.2 10.3-66.8.3-6.3.9-11.7 1.3-11.9.4-.2 3.9 6 7.7 13.8 3.9 7.8 13.8 26.1 22.2 40.7 14.6 25.6 15.1 26.7 15.1 32.2 0 7.2-1.3 10.1-5.6 12.1-5.9 2.9-4.5 4.7 3.6 4.7 6.2 0 7.4-.3 9.5-2.5 1.4-1.3 2.5-3.2 2.5-4.3 0-1 1.8-4.3 4-7.2 2.2-2.9 4-5.9 4-6.5 0-.7-1.3-3-2.8-5.1-2.3-3.2-3-5.4-3.5-11.5-1-11.8-6.3-41.2-10.1-56-3.8-14.8-6.9-22.6-12.2-30.6-4.3-6.6-8.3-15.9-12.3-28.8-3.6-12-4.7-18.5-5.6-32.8-.5-7.1-1.1-10.7-1.8-10.6-.7.1-3.9 1.6-7.2 3.5zM177 426.9c0 .5.3 1.6.6 2.5.5 1.4-.7 1.6-9.6 1.6s-10.1-.2-9.6-1.6c.3-.9.6-2 .6-2.5s4.1-.9 9-.9c5 0 9 .4 9 .9z"/><path d="M207.8 269.3c-4.9 5.2-6.3 9.5-6.3 18.7 0 7.8.3 9 3.4 14.8 1.9 3.4 5.3 8 7.7 10.2 2.4 2.2 4.4 4.2 4.4 4.4 0 .5-11.9 3.3-19.9 4.6-3.5.6-10.9 1.3-16.4 1.4l-10.1.4-3.2 14.8-3.3 14.9 2.5 2.2c3.4 3.2 11.6 5.3 19.9 5.3h7.2l2.5-5.8 2.5-5.7 1.3 4.4c.8 2.3 2 4.5 2.7 4.8.8.3 4.2-.2 7.6-1.2 13.1-3.7 22.3-10.3 21.1-15.3-1.9-7.9-5.7-19.9-7.4-23.5-1.1-2.2-2-4.7-2-5.5 0-.8-2.1-7.4-4.6-14.6-3.1-8.8-5-16.2-5.8-22.6l-1.2-9.5-2.6 2.8zM701.3 273.9c-3.9 2.4-4.5 5-4.1 18.3.3 9.3.1 10.8-1.7 12.7-1.7 2-1.8 2.5-.6 5.4.8 1.8 1.6 4.8 1.8 6.7.3 1.9 1.2 4 2 4.7 1.3 1 2.2.7 5.1-1.8 1.9-1.7 5.4-4 7.8-5.1 4.5-2.2 7.3-6.9 5.5-9.2-.5-.6-1.2-3-1.6-5.4-.6-3.7-.5-4.2 1.2-4.2 1.3 0 2.2-1.1 2.8-3.3 1-3.1 1.2-3.2 7.8-3.8 3.7-.3 7.2-1 7.6-1.5 5.6-6-3.7-13.5-14.7-12-3.5.5-4.9.2-6.9-1.4-3.2-2.5-7.9-2.5-12-.1zM711.8 334.5c-1.6 2.8-1.8 7.2-.3 8.5 2.2 1.8 2.5 1.1 1.7-4.5-.4-2.8-1-4.6-1.4-4zM706.3 356.3c-.9 4.3-.8 5.3.5 6.3 1.4 1 1.4 1.9-.2 9.3-1 4.5-1.6 8.8-1.3 9.5.9 2.3 10.9 6.6 15.7 6.7 5.8.1 16-1.7 20.6-3.6 2.6-1.1 3.4-1.9 3-3.2-.3-1-1-4.6-1.6-7.9l-1.2-6.1-4.2.9c-2.2.5-6.6.7-9.6.4-5.4-.6-15.8-3.1-16.7-3.9-.2-.3.3-2.8 1.3-5.7 1.8-5.5 1.5-6.4-2.7-7.3-2.4-.6-2.6-.3-3.6 4.6zM239.3 392.7c-3.4 1.7-6.7 3.3-7.3 3.5-.8.2-.6 1.3.4 3.3 2.9 5.5 2.1 8.3-3.9 14.6-3 3.2-5.5 6.6-5.5 7.6 0 2.4 1.9 4.3 4.2 4.3 1 0 2.7.9 3.8 2 2.7 2.7 6.4 1.1 5.7-2.6-.4-2.1.5-2.9 7.1-6.4 7.2-3.9 7.6-4 9.4-2.3 2.3 2.1 5.4.7 5.1-2.3-.7-6-1.5-8-4.7-11.3-1.9-2-4.5-5.9-5.8-8.6l-2.3-5-6.2 3.2zM865.1 431.4c.2.2 21.7.6 47.7 1 32 .4 47.2.3 47.2-.4s-15.8-1-47.7-1c-26.2 0-47.4.2-47.2.4z"/></g></g></svg>