<?xml version="1.0"?><svg width="891.29496" height="745.19434" xmlns="http://www.w3.org/2000/svg" xmlns:svg="http://www.w3.org/2000/svg" data-name="Layer 1"><g class="layer"><title>Layer 1</title><ellipse cx="418.64" cy="727.19" fill="#f2f2f2" id="svg_1" rx="352" ry="18"/><path d="m624.3,172.95l-4,0l0,-109.55a63.4,63.4 0 0 0 -63.4,-63.4l-232.09,0a63.4,63.4 0 0 0 -63.4,63.4l0,600.98a63.4,63.4 0 0 0 63.4,63.4l232.09,0a63.4,63.4 0 0 0 63.4,-63.4l0,-413.45l4,0l0,-77.98z" fill="#3f3d56" id="svg_2" transform="matrix(1 0 0 1 0 0)"/><path d="m761.16,141.25l0,600.09a47.35,47.35 0 0 1 -47.35,47.35l-233.2,0a47.35,47.35 0 0 1 -47.35,-47.35l0,-600.09a47.35,47.35 0 0 1 47.35,-47.35l28.29,0a22.51,22.51 0 0 0 20.83,30.99l132.96,0a22.51,22.51 0 0 0 20.83,-30.99l30.29,0a47.35,47.35 0 0 1 47.35,47.35z" fill="#fff" id="svg_3" transform="translate(-154.35252 -77.40283)"/><path d="m686.03,400q-2.33,1.22 -4.73,2.3q-2.19,0.99 -4.45,1.86c-0.55,0.21 -1.11,0.42 -1.67,0.63a89.53,89.53 0 0 1 -13.6,3.75q-3.43,0.68 -6.96,1.06q-2.91,0.33 -5.88,0.47c-1.41,0.07 -2.82,0.1 -4.24,0.1a89.84,89.84 0 0 1 -16.76,-1.57c-1.44,-0.26 -2.85,-0.57 -4.26,-0.91a88.78,88.78 0 0 1 -19.67,-7.26c-0.56,-0.28 -1.12,-0.58 -1.68,-0.87c-0.83,-0.44 -1.64,-0.9 -2.45,-1.38c0.39,-0.54 0.81,-1.07 1.24,-1.59a53.03,53.03 0 0 1 78.87,-4.1a54.28,54.28 0 0 1 5.06,5.86c0.41,0.54 0.8,1.09 1.18,1.65z" fill="#0aa8a7" id="svg_4" transform="translate(-154.35252 -77.40283)"/><circle cx="492.14" cy="234.76" fill="#2f2e41" id="svg_5" r="43.91" transform="matrix(1 0 0 1 0 0)"/><circle cx="642.5" cy="327.46" fill="#a0616a" id="svg_6" r="32.68" transform="translate(-232.6876 270.90663) rotate(-28.66315)"/><path d="m676.84,306.91a44.45,44.45 0 0 1 -25.4,7.85a27.24,27.24 0 0 0 10.79,4.44a89.63,89.63 0 0 1 -36.61,0.2a23.69,23.69 0 0 1 -7.66,-2.63a9.7,9.7 0 0 1 -4.73,-6.33c-0.8,-4.58 2.77,-8.75 6.49,-11.56a47.86,47.86 0 0 1 40.21,-8.04c4.5,1.16 9,3.12 11.91,6.73s3.79,9.17 1.01,12.89l3.99,-3.55z" fill="#2f2e41" id="svg_7" transform="translate(-154.35252 -77.40283)"/><path d="m644.5,230.17a89.99,89.99 0 0 0 -46.84,166.83l0.58,0.34q0.72,0.44 1.44,0.84c0.81,0.48 1.62,0.94 2.45,1.38c0.56,0.29 1.12,0.59 1.68,0.87a88.78,88.78 0 0 0 19.67,7.26c1.41,0.34 2.82,0.65 4.26,0.91a89.84,89.84 0 0 0 16.76,1.57c1.42,0 2.83,-0.03 4.24,-0.1q2.97,-0.13 5.88,-0.47q3.53,-0.39 6.96,-1.06a89.53,89.53 0 0 0 13.6,-3.75c0.56,-0.21 1.12,-0.42 1.67,-0.63q2.26,-0.87 4.45,-1.86q2.4,-1.08 4.73,-2.3a90.79,90.79 0 0 0 37.04,-35.97c0.04,-0.08 0.09,-0.16 0.13,-0.24a89.31,89.31 0 0 0 9.65,-26.41a90.05,90.05 0 0 0 -88.35,-107.21zm77.06,132.45c-0.08,0.14 -0.15,0.28 -0.23,0.41a88.17,88.17 0 0 1 -36.48,35.32q-2.3,1.2 -4.67,2.25c-1.31,0.59 -2.65,1.15 -4,1.67c-0.57,0.22 -1.15,0.44 -1.73,0.64a85.72,85.72 0 0 1 -11.73,3.36a84.69,84.69 0 0 1 -8.95,1.41c-1.85,0.2 -3.73,0.34 -5.62,0.41c-1.21,0.05 -2.43,0.08 -3.65,0.08a86.76,86.76 0 0 1 -16.22,-1.51a85.62,85.62 0 0 1 -9.63,-2.36a88.47,88.47 0 0 1 -13.99,-5.67c-0.52,-0.27 -1.04,-0.54 -1.55,-0.82c-0.73,-0.39 -1.47,-0.79 -2.19,-1.22c-0.54,-0.3 -1.08,-0.62 -1.61,-0.94c-0.31,-0.18 -0.62,-0.37 -0.93,-0.56a88.07,88.07 0 1 1 123.18,-32.47z" fill="#3f3d56" id="svg_8" transform="translate(-154.35252 -77.40283)"/><path d="m624.26,268.86c-0.47,-4.97 -6.56,-8.02 -11.32,-6.52s-7.88,6.29 -8.83,11.19a16.06,16.06 0 0 0 2.17,12.12c2.4,3.46 6.82,5.63 10.95,4.75c4.71,-1.01 7.97,-5.6 8.9,-10.32s0.01,-9.59 -0.92,-14.32l-0.95,3.1z" fill="#2f2e41" id="svg_9" transform="translate(-154.35252 -77.40283)"/><path d="m691.24,275.96c-0.47,-4.97 -6.56,-8.03 -11.32,-6.53s-7.88,6.3 -8.82,11.2a16.06,16.06 0 0 0 2.16,12.12c2.41,3.46 6.83,5.62 10.95,4.74c4.71,-1 7.97,-5.6 8.9,-10.32s0.01,-9.59 -0.92,-14.31l-0.95,3.1z" fill="#2f2e41" id="svg_10" transform="translate(-154.35252 -77.40283)"/><path d="m488.94,356.14a4.48,4.48 0 0 1 -3.31,-1.46l-49.62,-54.14a6.02,6.02 0 0 0 -4.43,-1.94l-262.22,0a15.03,15.03 0 0 1 -15.01,-15.01l0,-94.56a15.03,15.03 0 0 1 15.01,-15.01l339.73,0a15.03,15.03 0 0 1 15.01,15.01l0,94.56a15.03,15.03 0 0 1 -15.01,15.01l-9.63,0a6.01,6.01 0 0 0 -6.01,6l0,47.03a4.47,4.47 0 0 1 -2.87,4.2a4.53,4.53 0 0 1 -1.64,0.31z" fill="#fff" id="svg_11" transform="translate(-154.35252 -77.40283)"/><path d="m488.94,356.14a4.48,4.48 0 0 1 -3.31,-1.46l-49.62,-54.14a6.02,6.02 0 0 0 -4.43,-1.94l-262.22,0a15.03,15.03 0 0 1 -15.01,-15.01l0,-94.56a15.03,15.03 0 0 1 15.01,-15.01l339.73,0a15.03,15.03 0 0 1 15.01,15.01l0,94.56a15.03,15.03 0 0 1 -15.01,15.01l-9.63,0a6.01,6.01 0 0 0 -6.01,6l0,47.03a4.47,4.47 0 0 1 -2.87,4.2a4.53,4.53 0 0 1 -1.64,0.31zm-319.58,-180.12a13.02,13.02 0 0 0 -13.01,13.01l0,94.56a13.02,13.02 0 0 0 13.01,13.01l262.22,0a8.02,8.02 0 0 1 5.9,2.59l49.62,54.14a2.5,2.5 0 0 0 4.35,-1.7l0,-47.03a8.01,8.01 0 0 1 8.01,-8l9.63,0a13.02,13.02 0 0 0 13.01,-13.01l0,-94.56a13.02,13.02 0 0 0 -13.01,-13.01l-339.73,0z" fill="#3f3d56" id="svg_12" transform="translate(-154.35252 -77.40283)"/><circle cx="36.82" cy="125.19" fill="#0aa8a7" id="svg_13" r="13.13"/><path d="m493.76,275.27l-309.08,0a7,7 0 1 1 0,-14.01l309.08,0a7,7 0 0 1 0,14.01z" fill="#e6e6e6" id="svg_14" transform="translate(-154.35252 -77.40283)"/><path d="m393.07,245.5l-208.39,0a7,7 0 1 1 0,-14.01l208.39,0a7,7 0 0 1 0,14.01z" fill="#e6e6e6" id="svg_15" transform="translate(-154.35252 -77.40283)"/><path d="m555.07,599.43a4.47,4.47 0 0 1 -2.87,-4.2l0,-47.03a6.01,6.01 0 0 0 -6.01,-6l-9.63,0a15.03,15.03 0 0 1 -15.01,-15.01l0,-94.57a15.03,15.03 0 0 1 15.01,-15l339.73,0a15.03,15.03 0 0 1 15.01,15l0,94.57a15.03,15.03 0 0 1 -15.01,15.01l-262.22,0a6.02,6.02 0 0 0 -4.43,1.94l-49.62,54.14a4.48,4.48 0 0 1 -3.31,1.46a4.53,4.53 0 0 1 -1.64,-0.31z" fill="#fff" id="svg_16" transform="matrix(1 0 0 1 0 0)"/><path d="m709.42,676.83a4.47,4.47 0 0 1 -2.87,-4.2l0,-47.03a6.01,6.01 0 0 0 -6.01,-6l-9.63,0a15.03,15.03 0 0 1 -15.01,-15.01l0,-94.57a15.03,15.03 0 0 1 15.01,-15l339.73,0a15.03,15.03 0 0 1 15.01,15l0,94.57a15.03,15.03 0 0 1 -15.01,15.01l-262.22,0a6.02,6.02 0 0 0 -4.43,1.94l-49.62,54.14a4.48,4.48 0 0 1 -3.31,1.46a4.53,4.53 0 0 1 -1.64,-0.31zm-18.51,-179.81a13.02,13.02 0 0 0 -13.01,13l0,94.57a13.02,13.02 0 0 0 13.01,13.01l9.63,0a8.01,8.01 0 0 1 8.01,8l0,47.03a2.5,2.5 0 0 0 4.35,1.7l49.62,-54.14a8.02,8.02 0 0 1 5.9,-2.59l262.22,0a13.02,13.02 0 0 0 13.01,-13.01l0,-94.57a13.02,13.02 0 0 0 -13.01,-13l-339.73,0z" fill="#3f3d56" id="svg_17" transform="translate(-154.35252 -77.40283)"/><path d="m603.53,706.11a89.07,89.07 0 0 1 -93.65,1.49a54.13,54.13 0 0 1 9.4,-12.65a53.43,53.43 0 0 1 83.91,10.57c0.11,0.19 0.23,0.39 0.34,0.59z" fill="#0aa8a7" id="svg_18" transform="translate(-154.35252 -77.40283)"/><circle cx="398.44" cy="536.69" fill="#dbdb00" id="svg_19" r="44.2" transform="matrix(1 0 0 1 0 0)"/><circle cx="556.82" cy="629.49" fill="#ffb8b8" id="svg_20" r="32.9" transform="translate(-416.96496 738.72884) rotate(-61.33685)"/><path d="m367.9,531.4a44.74,44.74 0 0 0 25.57,7.9a27.42,27.42 0 0 1 -10.87,4.47a90.22,90.22 0 0 0 36.86,0.21a23.85,23.85 0 0 0 7.71,-2.65a9.76,9.76 0 0 0 4.76,-6.37c0.81,-4.62 -2.79,-8.82 -6.53,-11.65a48.18,48.18 0 0 0 -40.48,-8.09c-4.52,1.17 -9.05,3.15 -11.99,6.78s-3.81,9.23 -1.01,12.97l-4.02,-3.57z" fill="#dbdb00" id="svg_21" transform="matrix(1 0 0 1 0 0)"/><path d="m555.5,721.17a89.97,89.97 0 1 1 48.57,-14.22a89.88,89.88 0 0 1 -48.57,14.22zm0,-178a88.01,88.01 0 1 0 88,88a88.1,88.1 0 0 0 -88,-88z" fill="#3f3d56" id="svg_22" transform="translate(-154.35252 -77.40283)"/><circle cx="563.82" cy="445.19" fill="#0aa8a7" id="svg_23" r="13.13"/><path d="m1020.76,595.27l-309.08,0a7,7 0 1 1 0,-14.01l309.08,0a7,7 0 0 1 0,14.01z" fill="#e6e6e6" id="svg_24" transform="translate(-154.35252 -77.40283)"/><path d="m920.07,565.5l-208.39,0a7,7 0 1 1 0,-14.01l208.39,0a7,7 0 0 1 0,14.01z" fill="#e6e6e6" id="svg_25" transform="translate(-154.35252 -77.40283)"/><ellipse cx="554.64" cy="605.66" fill="#f2f2f2" id="svg_26" rx="24.5" ry="2.72"/><ellipse cx="335.64" cy="285.66" fill="#f2f2f2" id="svg_27" rx="24.5" ry="2.72"/></g></svg>