<?xml version="1.0"?>
<svg width="1097.1" height="790.89" xmlns="http://www.w3.org/2000/svg" xmlns:svg="http://www.w3.org/2000/svg" data-name="Layer 1">
 <defs>
  <linearGradient id="a" x1="0.5" x2="0.5" y1="1" y2="0">
   <stop offset="0" stop-color="gray" stop-opacity="0.25"/>
   <stop offset="0.54" stop-color="gray" stop-opacity="0.12"/>
   <stop offset="1" stop-color="gray" stop-opacity="0.1"/>
  </linearGradient>
 </defs>
 <g class="layer">
  <title>Layer 1</title>
  <path d="m11.85,427.97c17.36,74.2 54.11,138.34 112.18,169.47c120.71,64.61 392.92,31.28 596.07,-7a465.2,465.2 0 0 0 264.54,-151.22l-972.79,-11.25zm1065.35,-349.26l-111.47,0a9.63,9.63 0 1 1 0,-19.26l19.27,0a9.64,9.64 0 0 1 0,-19.27l-13.76,0a9.64,9.64 0 0 1 0,-19.27l58.18,0c-12.91,-6 -28,-10.27 -45.39,-12.51c-158.64,-20.37 -215.28,-6.89 -235.26,7c-24.65,17.1 -52.15,29.68 -81.54,35.74c-97.88,20.19 -280.93,44.49 -446.84,-7.78c-82.46,-26 -143.74,17.92 -180.48,91.28l1056.64,0c-1.38,-21.32 -5.51,-41 -13.09,-58.24a9.56,9.56 0 0 1 -6.26,2.31zm-1074.81,194.39a491.11,491.11 0 0 0 4.32,129.45l978.68,35.8a459.85,459.85 0 0 0 68,-103.71l-1051,-61.54zm387.08,92.34l-19.27,0a9.63,9.63 0 1 1 0,19.26l-111.47,0a9.63,9.63 0 1 1 0,-19.26l19.27,0a9.64,9.64 0 0 1 0,-19.27l-13.76,0a9.64,9.64 0 0 1 0,-19.27l111.47,0a9.64,9.64 0 0 1 0,19.27l13.76,0a9.64,9.64 0 0 1 0,19.27zm707.13,-230.16l-1068.48,26c-13,33.41 -21.57,71.16 -25.57,110.33l1075.33,0a457.06,457.06 0 0 0 15.53,-70.33c3.2,-23.01 4.48,-45.27 3.19,-66zm-877.13,85.16l-19.27,0a9.63,9.63 0 1 1 0,19.26l-111.47,0a9.63,9.63 0 0 1 0,-19.26l19.27,0a9.64,9.64 0 0 1 0,-19.27l-13.76,0a9.64,9.64 0 0 1 0,-19.27l111.47,0a9.64,9.64 0 0 1 0,19.27l13.76,0a9.64,9.64 0 0 1 0,19.27z" fill="#ffae35" id="svg_1" opacity="0.1"/>
  <ellipse cx="563.62" cy="772.01" fill="#0aa8a7" id="svg_2" opacity="0.1" rx="348.83" ry="18.88"/>
  <path d="m853.21,633.18s5.49,7.19 -2.54,18s-14.65,20 -12,26.77c0,0 12.11,-20.15 22,-20.43s3.38,-12.22 -7.46,-24.34z" fill="#ffc9bd" id="svg_3" transform="matrix(1 0 0 1 0 0)"/>
  <path d="m853.21,633.18a9.28,9.28 0 0 1 1.12,2.25c9.62,11.31 14.74,21.86 5.5,22.12c-8.62,0.25 -18.95,15.65 -21.42,19.54a7.69,7.69 0 0 0 0.29,0.89s12.11,-20.15 22,-20.43s3.35,-12.25 -7.49,-24.37z" id="svg_4" opacity="0.1"/>
  <path d="m863.42,642.34c0,2.53 -0.28,4.58 -0.63,4.58s-0.64,-2.05 -0.64,-4.58s0.36,-1.34 0.71,-1.34s0.56,-1.19 0.56,1.34z" fill="#ffd037" id="svg_5"/>
  <path d="m866.92,645.36c-2.22,1.21 -4.15,1.94 -4.32,1.63s1.5,-1.54 3.72,-2.75s1.34,-0.33 1.51,0s1.31,-0.09 -0.91,1.12z" fill="#ffd037" id="svg_6"/>
  <path d="m824.19,633.18s-5.49,7.19 2.54,18s14.64,20 12,26.77c0,0 -12.12,-20.15 -22,-20.43s-3.39,-12.22 7.46,-24.34z" fill="#ffc9bd" id="svg_7" transform="matrix(1 0 0 1 0 0)"/>
  <path d="m824.19,633.18a8.86,8.86 0 0 0 -1.12,2.25c-9.62,11.31 -14.75,21.86 -5.5,22.12c8.61,0.25 19,15.65 21.42,19.54c-0.08,0.3 -0.18,0.59 -0.29,0.89c0,0 -12.12,-20.15 -22,-20.43s-3.36,-12.25 7.49,-24.37z" id="svg_8" opacity="0.1"/>
  <path d="m813.98,642.34c0,2.53 0.28,4.58 0.63,4.58s0.64,-2.05 0.64,-4.58s-0.36,-1.34 -0.71,-1.34s-0.56,-1.19 -0.56,1.34z" fill="#ffd037" id="svg_9"/>
  <path d="m810.47,645.36c2.22,1.21 4.16,1.94 4.33,1.63s-1.5,-1.54 -3.72,-2.75s-1.34,-0.33 -1.51,0s-1.32,-0.09 0.9,1.12z" fill="#ffd037" id="svg_10"/>
  <path d="m815.73,677.04s15.36,-0.48 20,-3.77s23.63,-7.24 24.78,-2s23.08,26.29 5.74,26.43s-40.29,-2.7 -44.91,-5.51s-5.61,-15.15 -5.61,-15.15z" fill="#a8a8a8" id="svg_11"/>
  <path d="m866.55,695.91c-17.34,0.14 -40.29,-2.7 -44.91,-5.51c-3.52,-2.15 -4.92,-9.84 -5.39,-13.38l-0.51,0s1,12.38 5.59,15.2s27.57,5.65 44.91,5.51c5,0 6.74,-1.82 6.64,-4.46c-0.7,1.62 -2.61,2.61 -6.33,2.64z" id="svg_12" opacity="0.2"/>
  <path d="m269.23,682.66a11.73,11.73 0 0 0 3.84,-5.79c0.49,-2.29 -0.49,-5 -2.68,-5.89c-2.46,-0.94 -5.09,0.77 -7.09,2.49s-4.27,3.69 -6.88,3.32a10.47,10.47 0 0 0 3.24,-9.81a4.12,4.12 0 0 0 -0.9,-2c-1.37,-1.46 -3.84,-0.84 -5.48,0.31c-5.2,3.66 -6.65,10.73 -6.68,17.08c-0.52,-2.29 -0.08,-4.68 -0.09,-7s-0.66,-5 -2.64,-6.23a8,8 0 0 0 -4,-0.94c-2.34,-0.09 -4.94,0.15 -6.54,1.85c-2,2.13 -1.47,5.69 0.26,8s4.35,3.81 6.76,5.42a15,15 0 0 1 4.84,4.61a5.76,5.76 0 0 1 0.36,0.83l14.65,0a40.77,40.77 0 0 0 9.03,-6.25z" fill="#ffc9bd" id="svg_13" transform="matrix(1 0 0 1 0 0)"/>
  <path d="m152.8,698.44s-14.06,-47.71 2.63,-82.82a75.36,75.36 0 0 0 6.12,-47.29a126.22,126.22 0 0 0 -6.69,-22.18" fill="none" id="svg_14" stroke="#535461" stroke-miterlimit="10" stroke-width="2"/>
  <path d="m165.21,523.95c0,5.85 -10.58,22.81 -10.58,22.81s-10.59,-17 -10.59,-22.81a10.59,10.59 0 0 1 21.17,0zm17.5,32.39c-3.17,4.91 -21.28,13.39 -21.28,13.39s0.33,-20 3.51,-24.9a10.59,10.59 0 0 1 17.77,11.51zm-0.76,55.35c-5.22,2.63 -25.13,0.81 -25.13,0.81s10.38,-17.09 15.6,-19.72a10.59,10.59 0 1 1 9.53,18.91zm-10.01,41.75c-4.7,3.48 -24.63,5 -24.63,5s7.34,-18.59 12,-22.07a10.59,10.59 0 1 1 12.59,17l0.04,0.07zm-32.73,-82.58c4.19,4.07 23.73,8.3 23.73,8.3s-4.79,-19.41 -9,-23.49a10.59,10.59 0 1 0 -14.75,15.19l0.02,0zm-11.09,48.97c5.22,2.63 25.13,0.81 25.13,0.81s-10.38,-17.08 -15.6,-19.72a10.59,10.59 0 0 0 -9.53,18.91zm-4.24,49.08c4.7,3.47 24.62,5 24.62,5s-7.33,-18.59 -12,-22.07a10.59,10.59 0 0 0 -12.59,17l-0.03,0.07z" fill="#0aa8a7" id="svg_15"/>
  <path d="m165.21,523.95c0,5.85 -10.58,22.81 -10.58,22.81s-10.59,-17 -10.59,-22.81a10.59,10.59 0 0 1 21.17,0zm17.5,32.39c-3.17,4.91 -21.28,13.39 -21.28,13.39s0.33,-20 3.51,-24.9a10.59,10.59 0 0 1 17.77,11.51zm-0.76,55.35c-5.22,2.63 -25.13,0.81 -25.13,0.81s10.38,-17.09 15.6,-19.72a10.59,10.59 0 1 1 9.53,18.91zm-10.01,41.75c-4.7,3.48 -24.63,5 -24.63,5s7.34,-18.59 12,-22.07a10.59,10.59 0 1 1 12.59,17l0.04,0.07zm-32.73,-82.58c4.19,4.07 23.73,8.3 23.73,8.3s-4.79,-19.41 -9,-23.49a10.59,10.59 0 1 0 -14.75,15.19l0.02,0zm-11.09,48.97c5.22,2.63 25.13,0.81 25.13,0.81s-10.38,-17.08 -15.6,-19.72a10.59,10.59 0 0 0 -9.53,18.91zm-4.24,49.08c4.7,3.47 24.62,5 24.62,5s-7.33,-18.59 -12,-22.07a10.59,10.59 0 0 0 -12.59,17l-0.03,0.07z" fill="#ffc9bd" id="svg_16" transform="matrix(1 0 0 1 0 0)"/>
  <path d="m119.55,695.44s17.12,-3.4 21.68,-7.93s25.1,-12.46 27.38,-6.8s30.8,24.92 11.4,28.32s-45.63,4.53 -51.33,2.26s-9.13,-15.85 -9.13,-15.85z" fill="#a8a8a8" id="svg_17"/>
  <path d="m180.04,706.91c-19.39,3.4 -45.63,4.53 -51.33,2.27c-4.34,-1.73 -7.36,-10 -8.55,-13.87l-0.61,0.13s3.43,13.59 9.13,15.85s31.94,1.13 51.33,-2.26c5.6,-1 7.2,-3.29 6.6,-6.2c-0.45,1.89 -2.4,3.35 -6.57,4.08z" id="svg_18" opacity="0.2"/>
  <path d="m775.72,316.54c5.37,-6 3.27,-15.35 3.27,-15.35s-25.34,-64.58 -28.15,-65.29s-9.86,-17 -9.86,-17s-67.57,-64.23 -70,-64.23s-27.1,-17.74 -30.26,-18.09s-8.1,-2.13 -13.38,-5s-58.78,0.36 -60.89,2.84s-12,4.26 -12,4.26s-20.06,1.06 -22.88,4.61s-23.57,5.43 -23.57,5.43s-10.21,3.8 3.65,13.89c-4.44,0.7 -9.63,1.24 -14.9,1.62c-1.32,0.09 -2.66,0.18 -4,0.25l-0.79,0a13.08,13.08 0 0 0 -4.92,-6.61a41.26,41.26 0 0 0 -4.67,-2.17a37.28,37.28 0 0 1 -6.92,-4.75a226.78,226.78 0 0 0 -32.72,-21.68a15.67,15.67 0 0 0 -5.83,-2.19c-4.29,-0.41 -8.12,2.6 -12.32,3.61c-7.38,1.77 -14.82,-2.73 -22.41,-2.8c-9.48,-0.09 -18.11,7.29 -21,16.39c-1.07,3.37 -1.55,7.12 -3.86,9.79c-3,3.49 -8.07,4 -12.18,6.07a18.38,18.38 0 0 0 -9.88,16.29l0,0.08c0,0.53 0,1.06 0.09,1.59c0.47,4.28 2.45,8.23 3.9,12.29a50.83,50.83 0 0 1 2.8,12.9a0.66,0.66 0 0 1 0,0.14c0.06,0.73 0.11,1.46 0.14,2.2l0,2.59c0,3.82 -0.13,7.67 -0.12,11.49l0,2.35c0,0.51 0,1 0.06,1.54l0,0.54c0,0.47 0.07,0.95 0.12,1.42c0,0.2 0,0.41 0.05,0.61c0,0.46 0.11,0.91 0.17,1.36l0.09,0.64c0.07,0.45 0.15,0.9 0.23,1.35l0.12,0.62c0.1,0.48 0.22,1 0.34,1.44c0.05,0.17 0.08,0.33 0.12,0.5q0.27,1 0.6,1.92a28.18,28.18 0 0 0 18.66,17.59a17.33,17.33 0 0 0 4.95,0.62c3,-0.07 5.87,-1 7.65,-3.05c0.44,0.5 0.87,1 1.33,1.5a59.93,59.93 0 0 0 97.33,-13c1.05,-0.23 2.09,-0.44 3.14,-0.64c1.82,-0.34 3.65,-0.66 5.49,-1l1.77,-0.28l0.7,-0.12c9,-1.42 17.74,-2.37 24,-3l-24.74,3.07s-6,28.81 -7.73,32s6,8.51 6,8.51s6.69,8.16 6.69,10.65s7.74,9.58 9.85,13.48a6,6 0 0 0 1,1.35a14.15,14.15 0 0 0 -4.26,2.59c-4.89,4.63 -3.26,12.75 -5.5,19.11c-1.4,4 -4.33,7.24 -7.15,10.39a14.18,14.18 0 0 0 -2.52,3.49a8.58,8.58 0 0 0 -0.67,2.68a13.13,13.13 0 0 0 -0.06,1.54l0,0.18c0,0.4 0,0.79 0.08,1.18l0,0.51c0.49,4.18 1.91,8.22 2.34,12.4s-0.09,8.39 0.77,12.46a18.58,18.58 0 0 0 1.38,4.11l-14.32,16s-0.09,0.79 -0.12,2.09c-11.94,9.91 -30.4,28.61 -23.81,45.1q1.08,2.71 2,5.19c-4.85,3.09 -6.45,6.76 0.82,10.42c1.15,0.58 2.26,1.08 3.35,1.53c3.73,10.95 5.19,14 11.44,5.93c0.67,-0.88 1.45,-2 2.3,-3.21c8.8,-0.18 13.89,-4.25 13.89,-4.25s24.63,-1.42 31,2.49c3.19,2 10.69,2.4 17.33,2.35a181.51,181.51 0 0 0 1,21.42s-1.06,30.16 1.76,36.55s4.38,17.39 4.38,17.39s-4.73,10.64 -1.92,16.32s-2.46,13.84 -2.46,13.84l0,20.93l2,-0.14a63.4,63.4 0 0 1 -0.59,4.3c-0.58,3.27 -1.45,6.2 -2.79,7.15c-3.52,2.53 -3.87,16 -3.87,16s-5.63,16.33 -4.58,19.17s-6.68,8.51 -4.92,12.77s5.36,31.22 8.49,39s-6.38,5.68 -6.38,5.68l2.81,20.22s2.82,20.58 0.71,22s-14.25,11.71 -5.9,17.74c0.65,0.47 1.31,0.9 2,1.31a21.64,21.64 0 0 1 -0.07,2.8c-0.16,1.59 -0.56,2.86 -1.45,3c-2.48,0.36 -7.41,2.84 -8.45,1.78s-7,2.68 -13,3.9l-0.83,0.13l-7.79,-2a54.82,54.82 0 0 0 -35.2,-1.3s-5.65,0.88 -8.39,5.1c-1.39,2.16 -2,5.2 -0.76,9.44c3.76,12.54 29.39,16.86 29.39,16.86s8.88,1.83 19.55,4.25l-1.07,0a11.77,11.77 0 1 0 4,0.73c12,2.76 25.29,6.12 30.69,8.49a93.9,93.9 0 0 0 12.33,3.7a11.7,11.7 0 0 0 21.78,4.9c16.33,3.41 32.06,6.3 32.06,6.3l26.27,0.43l0.18,0a11.7,11.7 0 1 0 0.16,0l39.77,0.65a11.74,11.74 0 1 0 23,3.23a11.73,11.73 0 0 0 -0.36,-2.86l35.08,0.57l7,-7.7a6.22,6.22 0 0 0 0.69,-2.41c0.21,-2.53 -1.1,-6.37 -10.06,-8c-0.66,-0.12 -18.94,0.17 -35.09,0.44l0,-6.34s-0.45,-3.49 -0.73,-7.6c-0.08,-1.21 -0.15,-2.47 -0.18,-3.71a9.62,9.62 0 0 0 3,1.37c6.69,1.07 15.84,-18.45 15.84,-18.45s0,-11 2.11,-19.87s6,-38.68 6,-38.68l8.46,-35.83s3.5,-73.1 1.74,-75.94s2.12,-7.81 2.12,-7.81s2.81,-15.61 -1.41,-20.93s2.46,-10.65 2.46,-10.65s1.76,-18.45 -3.17,-25.54s2.31,-12.06 2.31,-12.06l1.76,-28.74c7.39,-7.45 14.07,-51.8 14.43,-61.38a39.42,39.42 0 0 1 3.52,-15.62s4.92,-7.45 5.63,-12.42s6,-15.25 6,-15.25l9.15,-34.07c3.69,-13.74 2.75,-23.9 0.3,-31.14c-0.36,-1.02 -0.74,-1.95 -1.13,-2.84zm-165.31,2c5.63,3.55 3.87,4.61 5.63,6.74s0.35,1.77 -1.06,5.32s-0.35,2.49 0.35,6.39s0.36,3.9 0.36,3.9l1.76,0.25l-2.45,16.47c-4,2.61 -5.83,7.61 -6.66,12.77c-2.36,-3.08 -4.74,-6.28 -6.87,-9.26c0.73,-1.63 0.59,-3.57 0.61,-5.4c0.08,-6 2.32,-11.73 3.35,-17.64a44.57,44.57 0 0 0 -0.57,-18.11a27.52,27.52 0 0 0 -2.35,-6.43c2.28,1.52 5.17,3.32 7.9,5.04l0,-0.04zm6.33,347.73s4.45,-3 8.77,-5.73c1.45,10.53 2.82,21.48 3.79,31.38c-1.55,-3.44 -2.63,-5.78 -2.63,-5.78a11.9,11.9 0 0 1 -2.72,-6.74c-0.17,-3.86 -7.21,-13.09 -7.21,-13.09l0,-0.04zm-26.39,-364.72c1,0.14 2.42,1.41 3.76,2.93c-1.24,-1 -2.49,-2 -3.77,-2.94l0.01,0.01zm-64.41,131.28c-4.06,1.28 -17.82,1.09 -26,0.61c3.06,-5.23 6.1,-10.55 8.8,-15.32a32.51,32.51 0 0 0 4.85,0.87l26.79,-23.53a46.14,46.14 0 0 0 31.1,-0.2l0.73,1.14c0.31,0.5 0.64,1 1,1.56l-0.67,-1.09s-10.34,6.16 -9.29,9s-1.4,9.93 -5.27,17.53c-1,1.9 -1.87,3.78 -2.71,5.67c-8.76,0.82 -25.27,2.48 -29.33,3.76zm50.83,327.84l-0.15,-2.81c1.7,-0.37 2.82,-0.71 2.82,-0.71a110.7,110.7 0 0 0 -1.76,-12.42c-1.06,-4.26 -0.51,-2.84 3.61,-6s0,-39 0,-39s2,-2.49 5.17,3.9s6.35,10.29 7.41,10.64s-4.23,7.46 0,14.2a40.8,40.8 0 0 1 5.27,14.19s-2.81,11.27 1.41,16.28a6.2,6.2 0 0 0 2,1.37l0,2.85c0,1.87 0,3.47 -0.09,3.81a1.41,1.41 0 0 1 -2.25,0.88c-1.09,-0.71 -8,0.88 -7.53,5.33a32.73,32.73 0 0 1 -5.52,5.17l-9.59,-2.48l-0.8,-15.2z" fill="url(#a)" id="svg_19" transform="translate(-51.45 -54.56)"/>
  <path d="m438.95,338.5s-3.35,27.45 23.22,30.26l4,-19l-8.37,-11.26l-11.99,-4.06l-6.86,4.06z" fill="#0aa8a7" id="svg_20"/>
  <path d="m445.81,334.44l-6.86,4.05s-3.35,27.45 23.22,30.26" id="svg_21" opacity="0.1"/>
  <path d="m487.16,183.29s-17.93,1.1 -35.91,4.08q-2.76,0.47 -5.49,1c-1.06,0.2 -2.1,0.41 -3.14,0.64c-9.42,1.94 -18,4.46 -23,7.68c-6,3.85 -8,-6.52 -8.19,-20.93c-0.08,-5.07 0.09,-10.63 0.36,-16.25c0.35,-6.5 0.86,-13.08 1.4,-19c1.19,-13.12 2.56,-23.32 2.56,-23.32s6.28,0 14.67,-0.29l2.7,-0.1c2.63,-0.1 5.42,-0.24 8.23,-0.41c1.33,-0.07 2.67,-0.15 4,-0.25c5.32,-0.38 10.57,-0.92 15,-1.62c4.72,-0.76 8.55,-1.72 10.63,-3c9.5,-5.66 16.18,71.77 16.18,71.77z" fill="#f8bdc5" id="svg_22"/>
  <path d="m567.05,284.65l-3.5,23.23s-7.63,9.5 -6.63,14.78s9.8,238.62 9.8,238.62s17.25,98.54 11.26,111.21s-0.35,42.24 -0.35,42.24l35.9,-5.63l12,-430.79l-58.48,6.34z" fill="#474463" id="svg_23"/>
  <path d="m567.05,284.65l-3.5,23.23s-7.63,9.5 -6.63,14.78s9.8,238.62 9.8,238.62s17.25,98.54 11.26,111.21s-0.35,42.24 -0.35,42.24l35.9,-5.63l12,-430.79l-58.48,6.34z" id="svg_24" opacity="0.1"/>
  <path d="m646.24,720.71c-1.14,1.89 -1.05,7.45 -0.73,12.18c0.28,4.07 0.73,7.53 0.73,7.53l0,23.93s-38.36,-13.37 -59.48,-27.45c-8.71,-5.81 -11.19,-11.21 -10.71,-15.53c0.7,-6.15 7.4,-10.16 10.71,-10.16c3.16,0 13.14,-5.51 21.32,-10.38c6.43,-3.81 11.77,-7.22 11.77,-7.22s28.5,23.58 26.39,27.1z" fill="#575988" id="svg_25"/>
  <path d="m646.24,720.71c-1.14,1.89 -1.05,7.45 -0.73,12.18c-8.53,-4 -34.94,-29.62 -37.43,-32.06c6.43,-3.81 11.77,-7.22 11.77,-7.22s28.5,23.58 26.39,27.1z" id="svg_26" opacity="0.1"/>
  <path d="m725.08,300.84l-9.15,33.79s-5.28,10.2 -6,15.13s-5.63,12.32 -5.63,12.32a39,39 0 0 0 -3.52,15.48c-0.35,9.51 -7,53.5 -14.43,60.89l-1.76,28.51s-7,4.92 -2.11,12s3.17,25.34 3.17,25.34s-6.69,5.28 -2.46,10.56s1.4,20.77 1.4,20.77s-3.87,4.92 -2.11,7.74s-1.74,75.32 -1.74,75.32l-8.46,35.54s-3.88,29.57 -6,38.37s-2.11,19.7 -2.11,19.7s-9.15,19.36 -15.84,18.31s-39.06,-32.74 -39.06,-32.74l4.57,-107s3.87,-45.4 1.41,-54.2s-4.22,-52.79 -4.22,-52.79l-4.93,-69.33l-49.22,-77.43s-3.57,-22.53 6.63,-29.21l1.85,-12.17l1.67,-11.06l58.43,-6.34l89.39,-23.22s6.89,4.25 10.5,14.86c2.47,7.15 3.42,17.23 -0.27,30.86z" fill="#474463" id="svg_27"/>
  <path d="m569.55,336.44s-41.53,51 -39.77,36.75c1.1,-8.95 -4.58,-19.88 -9,-26.79c-2.61,-4.11 -4.77,-6.8 -4.77,-6.8s25.34,-46.45 26.75,-40.12c0.45,2 3.38,6.59 7.15,11.83c7.95,10.98 19.64,25.13 19.64,25.13z" fill="#ffc1c8" id="svg_28"/>
  <path d="m646.24,759.37l0,5s-38.36,-13.37 -59.48,-27.45c-8.71,-5.81 -11.19,-11.21 -10.71,-15.53c11.66,5.9 33.35,17.15 39.92,22.22c5.58,4.3 20,11.11 30.27,15.76z" fill="#fff" id="svg_29" opacity="0.3"/>
  <circle cx="637.21" cy="766.63" fill="#474463" id="svg_30" r="11.73"/>
  <circle cx="517.39" cy="750.16" fill="#474463" id="svg_31" r="11.73"/>
  <path d="m691.39,754.33a6.19,6.19 0 0 1 -0.69,2.39l-7,7.63l-97.84,-1.57l-26.31,-0.43s-55.38,-10.08 -66.17,-14.78s-53.21,-13.3 -53.21,-13.3s-25.62,-4.3 -29.38,-16.73c-1.27,-4.21 -0.63,-7.22 0.76,-9.36c2.73,-4.19 8.39,-5.07 8.39,-5.07a55.3,55.3 0 0 1 35.2,1.3l164,42.19l2.54,0.65s58.46,-1.09 59.64,-0.88c8.97,1.64 10.28,5.45 10.07,7.96z" fill="#0aa8a7" id="svg_32"/>
  <path d="m691.39,754.33c-9.84,-1.28 -27,-3.17 -31.42,-1.35c0,0 -31.21,-3.86 -74.15,9.8l-26.27,-0.43s-55.38,-10.08 -66.17,-14.78s-53.21,-13.3 -53.21,-13.3s-25.62,-4.3 -29.38,-16.73c-1.27,-4.21 -0.63,-7.22 0.76,-9.36c1.75,5.1 5.12,12.49 10.5,14.56c8.45,3.25 43.18,9.87 43.18,9.87l68.74,16.83s39.69,8.61 55.14,3c6.33,-2.28 18.21,-4.31 30,-5.9l2.54,0.65s58.46,-1.09 59.64,-0.88c9,1.7 10.31,5.51 10.1,8.02z" fill="#fff" id="svg_33" opacity="0.3"/>
  <path d="m596.46,741.66a32.49,32.49 0 0 1 -0.55,4.39s-38.88,1.39 -59.12,-1.61c-5.59,-0.83 -8.75,-2.62 -10.32,-4.76a7.31,7.31 0 0 1 -0.73,-7a11,11 0 0 1 0.85,-1.88c1.51,-2.64 3.83,-4.51 5.1,-4.26c3.52,0.71 9.56,-6.51 9.56,-6.51c-0.48,-4.41 6.45,-6 7.53,-5.28a1.41,1.41 0 0 0 2.25,-0.88c0.07,-0.33 0.09,-1.92 0.09,-3.78c0,-3.1 -0.09,-7 -0.09,-7l39.08,4.75l1.55,7.47c1.42,6.66 3.4,15.81 4.25,18.94a22.6,22.6 0 0 1 0.55,7.41z" fill="#474463" id="svg_34"/>
  <path d="m596.46,741.66a32.49,32.49 0 0 1 -0.55,4.39s-38.88,1.39 -59.12,-1.61c-5.59,-0.83 -8.75,-2.62 -10.32,-4.76c5.19,-0.31 11.94,-0.48 16.12,0.54c5.96,1.48 41.61,1.48 53.87,1.44z" id="svg_35" opacity="0.1"/>
  <path d="m526.55,730.78a2,2 0 0 1 -0.85,1.88c-4.92,3.8 -28.53,-0.33 -28.53,-0.33s-48.24,-3 -55.45,-7.92a5.09,5.09 0 0 1 -1.59,-1.67c-3,-5.42 7.86,-14.52 8.8,-14.52s13.91,-1.77 14.78,-1.94c6,-1.21 12,-4.93 13,-3.87s6,-1.41 8.44,-1.76c0.89,-0.13 1.3,-1.39 1.45,-3a33.34,33.34 0 0 0 -0.22,-6.53l38.53,10.37l0.34,6.14l1.11,20.44l0.14,2.51a0.91,0.91 0 0 1 0.05,0.2z" fill="#474463" id="svg_36"/>
  <path d="m497.21,732.33s-48.24,-3 -55.45,-7.92a5.09,5.09 0 0 1 -1.59,-1.67c9.77,0.8 26.06,2.15 29,2.9c4.23,1 28,2.46 28,2.46l29.23,0l0.14,2.51c1.27,7.08 -29.33,1.72 -29.33,1.72z" id="svg_37" opacity="0.1"/>
  <circle cx="458.65" cy="750.16" fill="#474463" id="svg_38" r="11.73"/>
  <circle cx="586.05" cy="774.51" fill="#474463" id="svg_39" r="11.73"/>
  <path d="m466.75,351.17s-2.22,4 -5.56,9.94c-8,14.12 -22.39,39.15 -28.58,47.07c-8.8,11.26 -8.09,0.71 -17.6,-22.87c-7.06,-17.54 14.67,-37.61 26.29,-46.73c4,-3.17 6.8,-5 6.8,-5l18.65,17.59z" fill="#f8bdc5" id="svg_40"/>
  <path d="m509.33,378.27s-29.21,2.46 -34.84,4.22s-29.91,0.7 -32,0s-43.65,8.8 -24.64,18.3s31,0 31,0s24.64,-1.41 31,2.47s29.56,1.76 29.56,1.76l-0.08,-26.75z" fill="#ffc1c8" id="svg_41"/>
  <path d="m448.65,162.88c3.6,9.21 1.35,17.23 -2.89,25.46c-10.62,2 -20.61,4.75 -26.17,8.32c-15.84,10.21 -3.87,-79.54 -3.87,-79.54s7.66,0 17.37,-0.39c-2.94,13.42 8.2,27.35 15.56,46.15z" id="svg_42" opacity="0.1"/>
  <path d="m449.55,160.88a60,60 0 1 1 -6,-26.23a60,60 0 0 1 6,26.23z" fill="#f8bdc5" id="svg_43"/>
  <path d="m725.37,269.95a13.74,13.74 0 0 1 -8,5.55c-13.73,3.87 -110.52,27.1 -116.85,25.69c-5.59,-1.24 -29.58,-4.69 -35.11,-5.48l1.67,-11.06l58.43,-6.34l89.39,-23.22s6.86,4.25 10.47,14.86zm-238.21,-86.66a337.35,337.35 0 0 0 -34.15,3.8a2.35,2.35 0 0 0 -0.06,-1.57l23.4,-2.89s-3.42,-55 -16,-68.18c4.72,-0.76 8.55,-1.72 10.63,-3c9.5,-5.59 16.18,71.84 16.18,71.84z" id="svg_44" opacity="0.1"/>
  <path d="m456.55,100.69s20.77,-1.87 23.58,-5.39s22.88,-4.57 22.88,-4.57s9.85,-1.76 12,-4.23s55.6,-5.63 60.88,-2.81s10.21,4.57 13.38,4.93s27.8,17.94 30.26,17.94s70,63.71 70,63.71s7,16.19 9.86,16.89s28.16,64.76 28.16,64.76s3.52,15.48 -10.2,19.36s-110.52,27.1 -116.85,25.69s-36.25,-5.63 -36.25,-5.63s0.35,0 -0.35,-3.87s-1.76,-2.82 -0.36,-6.34s2.82,-3.17 1.06,-5.28s0,-3.17 -5.63,-6.69s-12,-7.39 -12.32,-8.44s-5.28,-8.1 -7.74,-8.45s-71.45,-19.71 -71.45,-19.71l-16.19,-5.28s-7.74,-5.28 -6,-8.44s7.73,-31.75 7.73,-31.75l24.75,-3.05s-3.69,-59.6 -17.55,-69.6s-3.65,-13.75 -3.65,-13.75z" fill="#0aa8a7" id="svg_45"/>
  <path d="m466.75,351.17s-2.22,4 -5.56,9.94c-0.52,-18.36 -13.36,-21.92 -19.89,-22.53c4,-3.17 6.8,-5 6.8,-5l18.65,17.59z" id="svg_46" opacity="0.1"/>
  <path d="m449.55,217.78l1.7,9.5s6.69,8.1 6.69,10.56s7.74,9.5 9.86,13.37s9.5,4.58 6.68,11.27s-19,57.72 -19,57.72l-16.54,18.3s27.45,-2.47 23.22,30.26l35.55,-31l27.84,-50.65s-27.1,-51.38 -28.15,-55.6s-47.85,-13.73 -47.85,-13.73z" fill="#0aa8a7" id="svg_47"/>
  <path d="m531.86,235.38s22.52,-15.84 22.52,-17.6s-22.52,17.6 -22.52,17.6zm37.69,19.71s12,-2.82 13,-9.15s-13,9.15 -13,9.15zm9.82,16.19s16.9,-8.37 16.19,-9.82s-16.19,9.82 -16.19,9.82zm90.45,-53.61s-7,4.57 -4.92,8.85s4.92,-8.85 4.92,-8.85zm20.73,1.87s-19.94,19 -15.43,19.36s15.43,-19.36 15.43,-19.36zm-45.36,294.58s25.69,4.93 26.39,6.69s-26.39,-6.69 -26.39,-6.69zm9.15,16.89s13.72,8.45 14.07,10.91s-14.07,-10.91 -14.07,-10.91zm-3.17,19.01s2.11,9.5 5.63,10.91s-5.63,-10.91 -5.63,-10.91zm-207.56,-415.68c0,0.1 0,0.21 -0.05,0.31c-0.48,3.13 -1.76,6.52 -4.7,7.56a7.48,7.48 0 0 1 -5.33,-0.49c-5,-2.19 -9.45,-7.45 -14.79,-6.18c-2.54,0.6 -4.32,2.53 -5.58,4.9a24.6,24.6 0 0 0 -2,5.37c-1,3.92 -1.8,8.18 -0.27,11.91a12.14,12.14 0 0 0 0.9,1.76c1.42,2.27 3.42,4.2 4.82,6.49c1.74,2.86 2.19,7.15 -0.52,9.11a5.49,5.49 0 0 1 -4.66,0.65a27.72,27.72 0 0 1 -5.69,-2.52c-3.54,-1.85 -8,-3 -11.36,-0.86c-1.16,0.72 -2.09,1.76 -3.2,2.52a11.54,11.54 0 0 1 -7.73,1.61c-6.36,-0.65 -8.74,-4.68 -13.6,-7.8c-3.56,-2.3 -11,-3.28 -13.12,1.42c-1.36,3 0.66,6.78 -0.67,9.84s-5.56,4 -7.52,6.84c-2.58,3.74 -0.18,9.15 -2.07,13.3a6.78,6.78 0 0 1 -1.15,1.76a60.18,60.18 0 0 1 85.1,-85l2.7,-0.1c2.63,-0.1 5.42,-0.24 8.23,-0.41a22.91,22.91 0 0 1 1.55,4.39a36.6,36.6 0 0 1 0.71,13.62z" id="svg_48" opacity="0.1"/>
  <path d="m355.3,168.7c-1.37,3 0.65,6.78 -0.67,9.83s-5.58,4 -7.52,6.84c-2.59,3.75 -0.19,9.16 -2.07,13.3c-2.16,4.73 -8.68,5.47 -13.68,4.09a28,28 0 0 1 -18.66,-17.45c-3.39,-9.65 -1.2,-20.27 -2.08,-30.46a50.53,50.53 0 0 0 -2.8,-12.79c-1.45,-4 -3.43,-7.94 -3.9,-12.19a18.12,18.12 0 0 1 9.78,-17.81c4.12,-2 9.19,-2.57 12.19,-6c2.3,-2.66 2.79,-6.37 3.86,-9.72c2.89,-9 11.52,-16.34 21,-16.25c7.58,0.06 15,4.53 22.41,2.77c4.19,-1 8,-4 12.32,-3.57a15.63,15.63 0 0 1 5.83,2.17a227.2,227.2 0 0 1 32.71,21.5a36.82,36.82 0 0 0 6.93,4.71a43,43 0 0 1 4.67,2.15c3.23,2 4.92,5.81 5.84,9.51a36.33,36.33 0 0 1 0.74,13.62c-0.44,3.21 -1.7,6.81 -4.75,7.88a7.47,7.47 0 0 1 -5.34,-0.51c-5,-2.17 -9.44,-7.43 -14.78,-6.17c-4.36,1 -6.46,5.94 -7.6,10.27c-1,3.92 -1.82,8.18 -0.27,11.92c1.28,3.1 4,5.37 5.71,8.24s2.2,7.16 -0.52,9.11c-3,2.17 -7.07,-0.14 -10.36,-1.86c-3.52,-1.85 -8,-3 -11.35,-0.87c-1.15,0.72 -2.08,1.76 -3.2,2.53a11.64,11.64 0 0 1 -7.72,1.6c-6.37,-0.65 -8.75,-4.68 -13.6,-7.8c-3.57,-2.32 -10.99,-3.3 -13.12,1.41z" fill="#474463" id="svg_49"/>
  <path d="m549.92,311.26c-0.27,1.5 -2.33,1.67 -2.75,3.13c-4,14.11 -12.8,26.8 -26.38,32c-2.61,-4.11 -4.77,-6.8 -4.77,-6.8s25.34,-46.45 26.75,-40.12c0.45,1.97 3.38,6.55 7.15,11.79z" id="svg_50" opacity="0.1"/>
  <path d="m550.67,301.54a46.46,46.46 0 1 1 -46.46,-46.45a46.29,46.29 0 0 1 46.46,46.45z" fill="#ffc1c8" id="svg_51"/>
  <path d="m524.99,701.52l0.34,6.14c-4.07,0.9 -11.81,2.08 -16.32,-0.68c-5.83,-3.57 -14.44,-4.44 -22.33,-9.3a33.34,33.34 0 0 0 -0.22,-6.53l38.53,10.37zm66.67,13.81c-0.27,1.37 -0.52,2.21 -0.52,2.21s-31.05,-3.18 -40,-7.47c0,-3.1 -0.09,-7 -0.09,-7l39.08,4.75l1.53,7.51z" id="svg_52" opacity="0.1"/>
  <path d="m584.65,575.71c-2.11,5.63 -3.17,6.69 -1.05,9.5s1.05,17.6 -2.31,19s-16,9.85 -16,9.85s7,9.15 7.21,13a11.78,11.78 0 0 0 2.72,6.69s10.84,23.23 13,30.62s4.14,19 4.14,19s-3.79,10.56 -1.17,16.55s0,14.78 0,14.78s-37.81,-3.87 -42,-8.84s-1.4,-16.15 -1.4,-16.15a40.43,40.43 0 0 0 -5.28,-14.08c-4.23,-6.69 1,-13.72 0,-14.08s-4.23,-4.22 -7.41,-10.55s-5.16,-3.88 -5.16,-3.88s4.12,35.55 0,38.72s-4.68,1.76 -3.62,6a108.8,108.8 0 0 1 1.76,12.32s-12.67,3.87 -19,0s-15.86,-4.58 -24.23,-10.56s3.79,-16.19 5.9,-17.6s-0.7,-21.82 -0.7,-21.82l-2.82,-20.06s9.5,2.11 6.38,-5.63s-6.73,-34.49 -8.49,-38.71s6,-9.86 4.93,-12.67s4.57,-19 4.57,-19s0.36,-13.37 3.87,-15.88c1.34,-0.94 2.21,-3.86 2.79,-7.09a88.11,88.11 0 0 0 1.09,-11.52s80.59,-5.63 93.61,2.11c5.86,3.48 5.45,9.89 3,16.38c-3,7.92 -9.16,16 -10.71,18.93c-2.91,5.4 -1.51,9.04 -3.62,14.67z" fill="#575988" id="svg_53"/>
  <path d="m598.88,542.11c-10,2.81 -23.32,6.94 -25.49,9.31c-3.52,3.88 -15.49,-21.82 -15.49,-21.82s0.71,19.32 -15.13,11.24c-13.71,-7 -35.84,-6.08 -41.56,-5.7a88.11,88.11 0 0 0 1.09,-11.52s80.59,-5.63 93.61,2.11c5.86,3.48 5.45,9.89 2.97,16.38z" id="svg_54" opacity="0.1"/>
  <path d="m557.9,329.35s7,-8.45 8.45,-5.28s9.71,9.5 9.71,9.5s2.37,7.39 6.54,8.45s35.49,43.29 35.49,43.29l-11.27,22.87l-9.15,55.61s0.4,8.8 -2.09,12s-12,2.46 -7.59,6.33s10.74,7.39 14.26,25s7.74,27.8 7.74,27.8s-33.08,8.45 -36.6,12.32s-15.49,-21.82 -15.49,-21.82s0.71,19.31 -15.13,11.24s-42.94,-5.61 -42.94,-5.61l0,-20.8s5.28,-8.1 2.47,-13.73s1.92,-16.19 1.92,-16.19s-1.57,-10.91 -4.39,-17.24s-1.76,-36.25 -1.76,-36.25s-2.14,-19.36 -0.19,-29.22a87.4,87.4 0 0 1 8.67,-24.48c3.87,-7.54 6.32,-14.58 5.27,-17.4s9.29,-8.92 9.29,-8.92l5.73,9.27l1.46,5.54s30.31,-21.72 29.6,-32.28z" fill="#dce6f2" id="svg_55"/>
  <path d="m608.55,378.27s19.71,19.35 21.82,22.52s9.18,19.65 0.03,24.65s-45,12.71 -48.56,10.05s-25,3 -25,3s-35.86,8.8 -28.12,-5.63s26.05,-12 26.05,-12s29.58,-0.05 32.74,-3s27,-9.28 21.6,-22.32s-0.56,-17.27 -0.56,-17.27z" fill="#ffc1c8" id="svg_56"/>
  <path d="m550.67,464.85s-45.91,39.77 -41.34,39.77s41.34,-39.77 41.34,-39.77zm30.62,16.19s-14.59,3.51 -11.77,5.63s11.77,-5.63 11.77,-5.63zm-51.45,-96.44s18.21,1.63 15,7.33s-15,-7.33 -15,-7.33zm-11.35,170.93s-2.47,7.16 0,11s0,13 0,13l0,32s-0.34,23.23 8.09,31.32l-8.09,-87.32zm-24.11,99.72s4.92,7.21 5.63,9.85s-5.63,-9.85 -5.63,-9.85zm1.23,-14.43s11.44,-2.11 13.2,-0.88s-13.2,0.88 -13.2,0.88zm-3.34,43.11s-3.35,0.35 3.34,4s19.71,8.27 19.88,6.69s-23.22,-10.69 -23.22,-10.69zm48.97,-35.02c1.18,0 15.91,-0.88 15.06,1.41s-15.06,-1.41 -15.06,-1.41zm20.01,-20.59s3.34,-5.8 4.57,-3.34s-4.57,3.34 -4.57,3.34zm-10.58,-326.78a46.29,46.29 0 0 1 -1.78,12.77c-1.94,1.76 -5.29,1.78 -7.68,0.47c-2.8,-1.54 -4.63,-4.34 -6.45,-7s-3.89,-5.32 -6.87,-6.46c-3.77,-1.42 -8.07,0 -11.35,2.36s-5.9,5.48 -9,8s-7.05,4.56 -11,3.94c-2.55,-0.39 -4.81,-1.83 -7,-3.22c-3,-1.89 -6.22,-4.83 -9.51,-6.1s-6,1 -9.13,1c-2.49,0.9 -5.2,2.95 -4.7,5.54a8.59,8.59 0 0 0 1.28,2.68a11.25,11.25 0 0 1 -1.47,12.39a46.46,46.46 0 1 1 84.67,-26.43l-0.01,0.06z" id="svg_57" opacity="0.1"/>
  <path d="m470.89,305.95c-2.49,0.9 -5.2,2.95 -4.71,5.55a8.91,8.91 0 0 0 1.29,2.67c2.92,5.21 0.45,12.69 -5,15.11a4.43,4.43 0 0 1 -2.78,0.44a4.92,4.92 0 0 1 -2,-1.2a18.51,18.51 0 0 1 -5.77,-9.95c-0.86,-4 -0.33,-8.24 -0.77,-12.35s-1.85,-8.16 -2.34,-12.3a11.41,11.41 0 0 1 0.63,-6.08a14.14,14.14 0 0 1 2.52,-3.46c2.81,-3.13 5.74,-6.33 7.15,-10.3c2.23,-6.32 0.61,-14.37 5.49,-19c2.26,-2.12 5.42,-2.91 8.22,-4.25a57.9,57.9 0 0 0 7.55,-4.79c9.05,-6.22 20.05,-11 30.81,-8.8a43.82,43.82 0 0 1 12.21,5a137.27,137.27 0 0 1 20,13.44a31.12,31.12 0 0 1 7,7.19a24.94,24.94 0 0 1 3.06,7.65a43.84,43.84 0 0 1 0.58,18c-1,5.86 -3.27,11.55 -3.36,17.5c0,2 0.16,4.16 -0.87,5.88c-1.65,2.74 -5.74,3 -8.54,1.48s-4.63,-4.34 -6.44,-7s-3.89,-5.32 -6.87,-6.45c-3.77,-1.43 -8.07,0 -11.35,2.35s-5.89,5.48 -9,8s-7,4.56 -11,3.94c-2.55,-0.39 -4.81,-1.82 -7,-3.21c-3,-1.9 -6.22,-4.84 -9.5,-6.1s-6.09,1.04 -9.21,1.04z" fill="#794f6a" id="svg_58"/>
  <path d="m577.61,378.27s-51.73,47.86 -41.18,71.79s57,-18.3 57,-18.3l16.56,-38.32l-32.38,-15.17z" fill="#f8bdc5" id="svg_59"/>
  <g id="svg_60" opacity="0.1">
   <path d="m462.45,326.44a4.4,4.4 0 0 1 -2.77,0.44a4.78,4.78 0 0 1 -2,-1.21a18.54,18.54 0 0 1 -5.78,-9.94c-0.85,-4.05 -0.32,-8.25 -0.76,-12.36s-1.86,-8.15 -2.34,-12.3c0,-0.2 0,-0.41 -0.05,-0.62a15.83,15.83 0 0 0 0.05,3.44c0.48,4.14 1.9,8.14 2.34,12.3s-0.09,8.31 0.76,12.35a18.53,18.53 0 0 0 5.78,9.95a4.86,4.86 0 0 0 2,1.2a4.4,4.4 0 0 0 2.77,-0.44c4.3,-1.91 6.73,-6.94 6.16,-11.54a11.09,11.09 0 0 1 -6.16,8.73zm91.51,-40.75c-1,5.86 -3.27,11.55 -3.35,17.5c0,2 0.16,4.16 -0.88,5.88c-1.64,2.74 -5.73,3 -8.53,1.48s-4.63,-4.33 -6.45,-7s-3.88,-5.32 -6.87,-6.45c-3.76,-1.42 -8.06,0 -11.34,2.36s-5.9,5.47 -9,8s-7.05,4.56 -11,3.95c-2.55,-0.4 -4.81,-1.83 -7,-3.22c-3,-1.9 -6.22,-4.83 -9.5,-6.1s-6,1 -9.13,1c-2.49,0.91 -5.2,2.95 -4.72,5.56a4.14,4.14 0 0 0 0.27,0.82a7.78,7.78 0 0 1 4.45,-3.56c3.12,0 5.88,-2.24 9.13,-1s6.53,4.2 9.5,6.1c2.17,1.39 4.43,2.82 7,3.21c4,0.62 7.92,-1.39 11,-3.94s5.73,-5.7 9,-8s7.58,-3.78 11.34,-2.35c3,1.13 5.06,3.82 6.87,6.45s3.65,5.42 6.45,7s6.89,1.26 8.53,-1.48c1,-1.72 0.85,-3.87 0.88,-5.88c0.08,-5.95 2.32,-11.64 3.35,-17.5a44.25,44.25 0 0 0 0.64,-9.12a44.39,44.39 0 0 1 -0.64,6.29z" id="svg_61"/>
  </g>
  <path d="m515.67,134.72s-19,34.49 7,52.09s28.51,15.84 28.51,15.84s-0.36,4.22 0,5.28s7,3.51 7,3.51s8.09,13 19.7,18.66s13.73,19 13.73,19s0,4.58 6,8.8s10.62,16.54 10.62,16.54l0,11.27c0,1.76 2.11,7 -2.46,7.56s-0.71,11.09 -0.71,11.09s-4.92,6 -3.87,8.8s-2.11,8.44 -2.11,8.44s-3.87,5.63 -3.52,6.69s-4.22,4.93 -3.17,7.39s-5.27,5.63 -4.22,8.45s-4.5,4.22 -4.5,4.22l-15.21,35.2s32,7 40.26,24.63l40.34,-73.91s22.52,-55.25 23.23,-58.77s-4.93,-16.19 -4.93,-16.19l-27.45,-50l-41.18,-58.07s-32.73,-69.66 -83.06,-16.52z" id="svg_62" opacity="0.1"/>
  <path d="m556.3,149.27s-49.44,17.35 -23.4,34.95s28.51,15.83 28.51,15.83s-0.35,4.23 0,5.28s7,3.52 7,3.52s8.1,13 19.71,18.66s13.73,19 13.73,19s0,4.58 6,8.8s10.56,16.54 10.56,16.54l0,11.26c0,1.76 2.11,7 -2.47,7.57s-0.7,11.09 -0.7,11.09s-4.93,6 -3.87,8.79s-2.11,8.45 -2.11,8.45s-3.87,5.63 -3.52,6.69s-4.23,4.93 -3.17,7.39s-5.28,5.63 -4.22,8.45s-4.51,4.22 -4.51,4.22l-15.2,35.19s26.36,1.36 34.68,19l45.91,-68.23s22.53,-55.25 23.23,-58.77s-4.91,-16.23 -4.91,-16.23l-27.45,-50l-62.62,-36.12s19.15,-74.48 -31.18,-21.33z" id="svg_63" opacity="0.1"/>
  <path d="m518.49,134.72s-19,34.49 7,52.09s28.51,15.84 28.51,15.84s-0.35,4.22 0,5.28s7,3.51 7,3.51s8.1,13 19.71,18.66s13.73,19 13.73,19s0,4.58 6,8.8s10.61,16.54 10.61,16.54l0,11.27c0,1.76 2.11,7 -2.47,7.56s-0.7,11.09 -0.7,11.09s-4.93,6 -3.87,8.8s-2.11,8.44 -2.11,8.44s-3.87,5.63 -3.52,6.69s-4.23,4.93 -3.17,7.39s-5.28,5.63 -4.22,8.45s-4.51,4.22 -4.51,4.22l-15.2,35.2s31.94,7 40.25,24.63l40.34,-73.91s22.53,-55.25 23.23,-58.77s-4.93,-16.19 -4.93,-16.19l-27.45,-50l-41.17,-58.05s-32.74,-69.68 -83.06,-16.54z" fill="#0aa8a7" id="svg_64"/>
  <g id="svg_65" opacity="0.1">
   <path d="m310.62,152.04a50.18,50.18 0 0 0 -2.8,-12.8c-1.45,-4 -3.43,-7.94 -3.9,-12.19l0,-0.38a16.3,16.3 0 0 0 0,3.2c0.47,4.25 2.45,8.16 3.9,12.19a50.1,50.1 0 0 1 2.8,12.79c0.14,1.64 0.2,3.3 0.22,5c0.03,-2.65 0,-5.24 -0.22,-7.81zm34.42,43.82c-2.15,4.72 -8.68,5.47 -13.68,4.08a28.06,28.06 0 0 1 -18.66,-17.44a41.3,41.3 0 0 1 -2,-13.31c-0.06,5.51 0.15,10.95 2,16.12a28.07,28.07 0 0 0 18.66,17.45c5,1.38 11.53,0.64 13.68,-4.09c0.91,-2 0.82,-4.32 0.78,-6.6a10.31,10.31 0 0 1 -0.78,3.79zm97.16,-65.74c-0.43,3.2 -1.7,6.8 -4.75,7.87a7.48,7.48 0 0 1 -5.33,-0.5c-5,-2.18 -9.45,-7.44 -14.79,-6.17c-4.36,1 -6.45,5.93 -7.6,10.27a25.29,25.29 0 0 0 -1.07,8.47a33,33 0 0 1 1.07,-5.66c1.15,-4.33 3.24,-9.23 7.6,-10.27c5.34,-1.26 9.75,4 14.79,6.17a7.44,7.44 0 0 0 5.33,0.51c3.05,-1.07 4.32,-4.67 4.75,-7.88a36.35,36.35 0 0 0 0.3,-6.17c-0.05,1.12 -0.15,2.25 -0.3,3.36zm-27.55,40.74c-3,2.17 -7.07,-0.14 -10.36,-1.87c-3.52,-1.85 -8,-3 -11.35,-0.87c-1.15,0.72 -2.08,1.76 -3.2,2.53a11.51,11.51 0 0 1 -7.72,1.6c-6.37,-0.65 -8.75,-4.68 -13.6,-7.8c-3.56,-2.29 -11,-3.27 -13.12,1.43a8.53,8.53 0 0 0 -0.41,4.33a5.63,5.63 0 0 1 0.41,-1.51c2.13,-4.71 9.56,-3.73 13.12,-1.43c4.85,3.12 7.23,7.15 13.6,7.8a11.57,11.57 0 0 0 7.72,-1.61c1.12,-0.76 2.05,-1.8 3.2,-2.52c3.38,-2.1 7.83,-1 11.35,0.87c3.29,1.72 7.34,4 10.36,1.86c1.76,-1.26 2.18,-3.5 1.79,-5.71a4.62,4.62 0 0 1 -1.79,2.9zm-60.02,4.86c-1.37,3.14 -5.58,4 -7.52,6.83c-1.45,2.1 -1.33,4.72 -1.28,7.35a8.32,8.32 0 0 1 1.28,-4.53c1.94,-2.83 6.15,-3.7 7.52,-6.84a8.7,8.7 0 0 0 0.38,-4.26a5.64,5.64 0 0 1 -0.38,1.45z" id="svg_66"/>
  </g>
 </g>
</svg>