<svg xmlns="http://www.w3.org/2000/svg" viewBox="0 0 452.553 472.429"><g class="layer"><g fill="#f2f2f2"><path d="M182.78 380.82c-.85-1.42-4.5.1-5.17-1.19-.67-1.28 2.72-3.25 4.66-7.73.35-.81 2.55-5.9.92-7.47-3.09-2.98-17.24 9.31-22.19 5.29-1.08-.88-1.84-2.64-5.13-5.5-1.31-1.14-2.1-1.66-2.87-1.46-1.08.27-1.17 1.72-2.33 4.58-1.75 4.29-2.78 4.03-3.8 7.45-.76 2.54-.59 4.01-1.48 4.3-1.25.41-2.41-2.29-4.01-2.04-1.62.24-2.61 3.38-2.92 5.73-.58 4.4 1.04 7.31 1.93 10.37.98 3.32 1.56 8.37-.69 15.52l-22.28 62.77c4.92-12.88 19.16-48.19 25.14-61.3 1.73-3.79 3.63-7.63 7.55-9.15 3.77-1.46 8.95-.59 15.55-2.18.77-.18 2.91-.73 3.18-1.99.22-1.04-1.03-1.62-.84-2.59.26-1.31 2.73-1.33 5.78-2.83 2.14-1.07 3.48-2.33 4.62-3.42.35-.33 5.5-5.26 4.38-7.16z"/><path d="M95.13 413.87c-.94 0-1.25 2.23-2.08 2.19-.82-.04-.8-2.28-2.44-4.52-.3-.41-2.16-2.96-3.41-2.61-2.35.66-.4 11.15-3.8 12.42-.75.28-1.83.14-4.18.93-.94.31-1.42.55-1.55.99-.18.61.51 1.07 1.58 2.47 1.6 2.09 1.17 2.52 2.56 4.01 1.03 1.1 1.8 1.44 1.68 1.96-.16.74-1.82.53-2.16 1.38-.35.87.91 2.26 1.97 3.09 2 1.56 3.89 1.6 5.65 2.04 1.91.48 4.56 1.66 7.42 4.83l24.38 29.04c-4.9-6.13-18.12-23.31-22.84-30.03-1.36-1.94-2.69-3.98-2.31-6.34.37-2.28 2.3-4.57 3.42-8.26.13-.44.48-1.64-.06-2.14-.44-.41-1.09.04-1.51-.33-.57-.51.14-1.73.27-3.66.1-1.36-.14-2.38-.34-3.25-.06-.27-1-4.22-2.25-4.21zm18.8 4.22-.57-5.07.26-.39c1.2-1.77 1.81-3.51 1.82-5.15 0-.27-.01-.53-.02-.79-.05-1.06-.11-2.38.57-3.91.39-.85 1.47-2.83 3.09-2.59.44.07.77.27 1.02.5l.11-.18c.51-.77.91-1.1 1.29-1.42.3-.24.6-.5 1.08-1.09.21-.26.38-.5.52-.69.42-.58.97-1.28 1.93-1.27 1.03.05 1.58.91 1.93 1.47.64 1.01.93 1.74 1.13 2.22.07.17.15.37.19.43.33.49 3.03.03 4.05-.13 2.29-.38 4.27-.71 5.09.73.58 1.03.15 2.4-1.33 4.17-.46.55-.95.97-1.39 1.3.36.21.68.54.82 1.06.3 1.23-.75 2.46-3.14 3.66-.59.3-1.39.71-2.51.9a9.87 9.87 0 0 1-1.41.12c-.01.24-.07.49-.21.76-.42.77-1.29 1.13-2.61 1.05-1.45-.08-2.64-.36-3.69-.6-.92-.21-1.71-.39-2.33-.35-1.16.1-2.05 1.02-3.09 2.22l-2.6 3.04zm2.63-30.18-4.75 1.84-.44-.16c-2.03-.71-3.86-.86-5.45-.45-.26.07-.51.14-.76.22-1.01.32-2.27.71-3.92.44-.93-.16-3.11-.7-3.29-2.33a1.84 1.84 0 0 1 .22-1.11l-.2-.07c-.87-.29-1.3-.59-1.7-.89-.31-.22-.63-.45-1.33-.76-.31-.14-.57-.24-.8-.33-.67-.25-1.48-.61-1.72-1.55-.21-1.01.48-1.75.93-2.24a12.22 12.22 0 0 1 1.86-1.65c.16-.11.33-.24.38-.29.39-.45-.74-2.95-1.16-3.89-.95-2.12-1.77-3.95-.58-5.11.85-.82 2.28-.75 4.36.23.65.31 1.18.68 1.61 1.02.12-.41.35-.8.82-1.06 1.11-.61 2.57.1 4.34 2.1.44.5 1.04 1.17 1.51 2.21.22.48.36.94.47 1.33.23-.05.49-.06.78.01.86.21 1.43.96 1.68 2.26.3 1.42.33 2.64.36 3.72.03.94.06 1.75.26 2.34.38 1.09 1.5 1.72 2.92 2.43l3.6 1.74zm-2.63-14.93-.57-5.07.26-.38c1.2-1.78 1.81-3.52 1.82-5.16 0-.26-.01-.53-.02-.79-.05-1.06-.11-2.37.57-3.91.39-.85 1.47-2.83 3.09-2.58.44.06.77.26 1.02.49l.11-.18c.51-.77.91-1.1 1.29-1.42.3-.24.6-.49 1.08-1.09.21-.26.38-.49.52-.69.42-.58.97-1.28 1.93-1.26 1.03.04 1.58.9 1.93 1.46.64 1.01.93 1.74 1.13 2.22.07.18.15.38.19.44.33.49 3.03.03 4.05-.14 2.29-.38 4.27-.71 5.09.73.58 1.04.15 2.4-1.33 4.17-.46.55-.95.97-1.39 1.3.36.21.68.54.82 1.06.3 1.23-.75 2.46-3.14 3.67-.59.3-1.39.7-2.51.89a9.87 9.87 0 0 1-1.41.13c-.01.23-.07.49-.21.75-.42.77-1.29 1.14-2.61 1.05-1.45-.08-2.64-.35-3.69-.6-.92-.21-1.71-.39-2.33-.34-1.16.09-2.05 1.01-3.09 2.21l-2.6 3.04z"/><path d="m119.11 471.36-1.06-.67-.25-1.22.25 1.22-1.24.14c-.01-.11-.08-.38-.18-.79-.56-2.27-2.25-9.16-3.66-20.02a204.15 204.15 0 0 1-1.65-23.17c-.12-7.81.25-13.72.55-18.47.22-3.58.49-6.99.76-10.32.71-8.87 1.38-17.26.88-26.55-.11-2.07-.34-6.38-2.86-10.98-1.46-2.66-3.48-5.02-5.99-7.02l1.56-1.96c2.78 2.21 5 4.82 6.63 7.78 2.79 5.09 3.04 9.79 3.17 12.05.5 9.45-.17 17.92-.89 26.88-.27 3.31-.54 6.71-.76 10.28-.29 4.7-.66 10.56-.55 18.27.12 7.7.67 15.4 1.64 22.88 1.39 10.73 3.05 17.52 3.6 19.75.29 1.19.35 1.44.06 1.92h-.01z"/><path d="M100.07 357.49c-.11 0-.21 0-.32-.01-2.13-.11-4.11-1.39-5.87-3.79-.83-1.13-1.25-2.42-2.09-4.99-.14-.4-.77-2.41-1.16-5.18-.25-1.81-.22-2.56.14-3.23.4-.75 1.04-1.26 1.76-1.61a1.42 1.42 0 0 1 .1-.74c.43-1.05 1.56-.91 2.18-.85.31.04.7.09 1.12.07.65-.03 1.01-.22 1.54-.52.52-.28 1.15-.63 2.1-.82 1.86-.39 3.43.14 3.94.31 2.71.9 4.05 3.01 5.6 5.45.3.49 1.36 2.27 2.06 4.71.5 1.76.43 2.55.28 3.13-.31 1.2-1.03 1.88-2.88 3.39-1.93 1.59-2.9 2.38-3.74 2.86-1.93 1.12-3.15 1.82-4.76 1.82z"/></g><path fill="#ffb6b6" d="M217.45 467.07h6.56l3.12-25.32-9.68.01v25.31z"/><path fill="#2f2e41" d="M239.94 466.92c.2.34.31 1.45.31 1.85 0 1.23-1 2.23-2.23 2.23H217.7c-.84 0-1.52-.68-1.52-1.52v-.84s-1.01-2.55 1.06-5.68c0 0 2.57 2.45 6.42-1.39l1.13-2.05 8.21 6 4.55.56c.99.12 1.87-.02 2.39.84z"/><path fill="#ffb6b6" d="M197.45 467.07h6.56l3.12-25.32-9.68.01v25.31z"/><path fill="#2f2e41" d="M219.94 466.92c.2.34.31 1.45.31 1.85 0 1.23-1 2.23-2.23 2.23H197.7c-.84 0-1.52-.68-1.52-1.52v-.84s-1.01-2.55 1.06-5.68c0 0 2.57 2.45 6.42-1.39l1.13-2.05 8.21 6 4.55.56c.99.12 1.87-.02 2.39.84zm5.09-109.17 7 27.11-3.5 69.61-16.5 1.11-1-40.08-2 41.25-17-3.53-1-90.75 34-4.72z"/><path fill="#ffb6b6" d="M157.27 266.49c-2.26-3.97-6.14-6.01-8.66-4.57-2.52 1.43-2.73 5.81-.47 9.77a11.42 11.42 0 0 0 3.64 3.98l9.78 16.67 7.73-4.76-10.46-15.93c-.1-1.82-.64-3.59-1.56-5.16z"/><path fill="#0aa8a7" d="M201.72 325.34s-9.27 12.78-14.94 8.22c-5.67-4.57-37-55.9-37-55.9l12.44-6.66 39.5 54.34z"/><path fill="#ffb6b6" d="m193.03 309.75 12-18 12 5-3 16-21-3z"/><path fill="#0aa8a7" d="m194.03 305.75 21-1 14 4 3 74-42-4v-39.02l-6-19.98 10-14z"/><path fill="#3f3d56" d="M228.69 355.67a16.39 16.39 0 0 1-.84-6.69c.53-6.4.64-18.94-5.89-24.6l-3.68-3.99c-.08-.08-.16-.15-.24-.23l6.09-14.33-3.68-1.56-5.65 13.29a16.15 16.15 0 0 0-8.4-2.37c-3.46 0-6.76 1.13-9.49 3.11l-3.45-12.64-3.86 1.06 4.31 14.41c-.16.19-.33.37-.48.57l-2.1 2.83a16.49 16.49 0 0 1-1.7 1.93c-1.29 1.26-3.81 4.34-3.84 9.07-.01 1.62-.34 3.23-.83 4.77l-2.51 7.83c-.23.73-.42 1.48-.54 2.24-1.11 6.7-4.93 38.28 21.2 37.65 24.36-.59 25.96-15.42 25.82-20.34-.03-1.07.06-2.13.26-3.18.37-1.93.7-5.34-.5-8.83z"/><path fill="#ffb6b6" d="M338.72 36.02 341 71.18l-28.64 6.57 2-28.43 24.36-13.3zm2.18 427.39h-12.91l-6.14-49.8h19.06l-.01 49.8z"/><path fill="#2f2e41" d="M296.67 463.12c-.4.67-.61 2.86-.61 3.64a4.38 4.38 0 0 0 4.38 4.39h39.98a2.99 2.99 0 0 0 2.99-2.99v-1.67s1.98-5-2.09-11.17c0 0-5.06 4.83-12.63-2.73l-2.23-4.04-16.14 11.8-8.95 1.11c-1.95.24-3.69-.04-4.7 1.65v.01z"/><path fill="#ffb6b6" d="M375.9 463.41h-12.91l-6.14-49.8h19.06l-.01 49.8z"/><path fill="#2f2e41" d="M331.67 463.12c-.4.67-.61 2.86-.61 3.64a4.38 4.38 0 0 0 4.38 4.39h39.98a2.99 2.99 0 0 0 2.99-2.99v-1.67s1.98-5-2.09-11.17c0 0-5.06 4.83-12.63-2.73l-2.23-4.04-16.14 11.8-8.95 1.11c-1.95.24-3.69-.04-4.7 1.65v.01zm52.36-236.37s11 14 9 22-16 192-16 192l-20-1-12-165-3.08 166-18.92-1-24-206 85-7z"/><path fill="#ffb6b6" d="M268.4 271.39c-1.89 7.25-7.16 12.15-11.77 10.95s-6.82-8.06-4.93-15.31a18.75 18.75 0 0 1 4.09-7.85l8.4-30.61 14.28 4.25-9.79 29.72c.61 2.93.52 5.97-.28 8.85z"/><circle cx="315.46" cy="36.63" r="28.57" fill="#ffb6b6"/><path fill="#eaf4ff" d="m312.03 72.75 30-6 33 17 7 109 9 41-93 1 4-55-6-87 16-20z"/><path fill="#eaf4ff" d="M305.03 95.75s-16-5-22 4-17 90-17 90l-11 61 20 3 33-107-3-51z"/><path fill="#ffb6b6" d="M450.56 236.34c3.26 6.74 2.43 13.89-1.87 15.96s-10.41-1.71-13.67-8.46a18.75 18.75 0 0 1-1.98-8.63l-13.45-28.75 13.63-6.02 11.81 28.98a18.65 18.65 0 0 1 5.53 6.92z"/><path fill="#eaf4ff" d="M362.51 84.79s14.37-8.63 22.32-1.3c7.95 7.33 37.75 83.45 37.75 83.45l25.08 56.68-18.73 7.64-57.31-96.2-9.11-50.27z"/><path fill="#3f3d56" d="M431.67 471.24c0 .66-.53 1.19-1.19 1.19H1.19c-.66 0-1.19-.53-1.19-1.19 0-.32.12-.6.32-.81h89.72c1.91 0 3.78-.13 5.62-.38h334.82c.66 0 1.19.53 1.19 1.19z"/><path fill="#ffb6b6" d="M255.9 274.55c1.79-4.2 5.4-6.68 8.07-5.55 2.67 1.14 3.39 5.46 1.6 9.66a11.42 11.42 0 0 1-3.16 4.37l-7.78 17.69-8.23-3.83 8.55-17.04c-.11-1.82.22-3.64.95-5.31v.01z"/><circle cx="203.9" cy="286.65" r="18.39" fill="#ffb6b6"/><path fill="#0aa8a7" d="m227.03 308.75 18-7 6-21 13 5-10 30-27 10.32v-17.32z"/><path fill="#2f2e41" d="m201.48 307.1 10.97-8.92s-1.04-13.38 2.9-14.58 8.06-6.01 8.06-6.01-6.53-14.74-18.01-12.51c-11.49 2.24-8.87-1.16-15.95 2.59s-8.74 8.75-7.88 14.07c.86 5.31-1.7 18.52 6.87 19.2s13.04 6.16 13.04 6.16zm96.67-264.08c-2.08-3.8-1-5.61-2.88-7.1 0 0-.76-.6-6.46-1.36-.54-9.33-2.05-10.57-2.05-10.57-1.74-1.44-4.51-1.24-6.28-.59-3.73 1.38-3.6 5.02-6.08 5.51-3.43.69 5.91-5.17 5.8-11.36-.09-5.05 3.53-9.66 4.79-9.3 1.25.36 4.6-3.28 6.24-3.09 1.12.13 5.86-1.5 7.08-1.24 1.33.27 5.58 2.95 5.81 2.43 1.58-3.57 1.28-4.62 2.45-5.59 2.09-1.71 5.14-.16 10.05.94 10.08 2.24 12.13-.98 17.18 1.72 2.55 1.36 4.51 4.65 8.33 11.16 5.34 9.1 8.01 13.65 7.63 18.68-.39 5.13-2.85 4.61-4.54 12.11-1.89 8.36.38 12.43-2.66 14.95-2.35 1.94-21.82 2.09-23.99.05-3.73-3.51 2.1-10.79-1.86-16.76-2.43-3.67-7.75-5.64-10.38-4.13-2.97 1.7-1.87 7.49-3.89 7.86-1.74.33-3.92-3.66-4.29-4.32z"/><path fill="#ffb6b6" d="M159.66 275.48c3.98-3.36 2.92-11.16-2.36-17.41-2.31-2.74-5.05-4.73-7.74-5.82l-3.08-3.56-39.83-49.9s-22.05-49.64-28.56-55c-6.51-5.37-14.17-2.57-14.17-2.57l-5.98 7.39 37.24 69.31 38.12 38.36 5.14 5.37c.63 2.82 2.13 5.86 4.45 8.6 5.28 6.25 12.79 8.6 16.77 5.23z"/><path fill="#e6e6e6" d="m84.48 153.02 9.98 14.64 14.33 21.2-25.74 8.91-22.74-39.01 24.17-5.74z"/><path fill="#ffb6b6" d="m94.61 103.2-7.22 27.56-27.56-5.42s10.84-19.88 8.13-28.92l26.65 6.78zM65.52 461.93h16.6l7.89-64.02-24.49.01v64.01z"/><path fill="#2f2e41" d="M122.38 461.55c.52.87.79 3.68.79 4.69a5.63 5.63 0 0 1-5.63 5.64h-51.4a3.84 3.84 0 0 1-3.84-3.85v-2.14s-2.54-6.43 2.69-14.35c0 0 6.51 6.2 16.23-3.52l2.87-5.19L104.84 458l11.5 1.42c2.52.31 4.75-.05 6.04 2.13zM111.6 276.68 88.73 432.29H60.05l3.81-88.83 2.01-46.71-5.83-22.23s-2.65-4.94-4.89-10.93c-2.52-6.76-4.51-14.86-1.55-18.71 1.08-1.41 3.91-2.46 7.76-3.24 2.34-.48 5.08-.86 8.03-1.15 16.96-1.68 41.1-.63 41.1-.63l.61 20.25.34 11.31.16 5.26z"/><path fill="#ffb6b6" d="m36.29 454.32 16.42 2.41 17.12-62.18-24.23-3.56-9.31 63.33z"/><path fill="#2f2e41" d="M92.6 462.22c.38.93.24 3.75.1 4.75a5.63 5.63 0 0 1-6.39 4.75l-50.85-7.47a3.84 3.84 0 0 1-3.25-4.36l.32-2.12s-1.58-6.73 4.75-13.81c0 0 5.53 7.09 16.56-1.12l3.59-4.72 18.33 18.03 11.17 3.08c2.45.67 4.7.64 5.67 2.99zm19.36-211.5-3.13 27.02-17.11 56.92-28.16 93.71-28.38-4.17 25.47-133.25-2.52-22.84s-.82-2.28-1.76-5.6c-1.87-6.58-4.21-17.29-1.64-22.75.35-.75.79-1.39 1.33-1.91 1.02-.99 3.08-1.58 5.84-1.9 11.54-1.31 35.32 2.43 45.9 4.26l4.16 10.51z"/><path fill="#d1e8ff" d="m89.1 122.63 31.17 39.3-5.6 40.98-4.79 41.7-56.47-8.59s12.19-29.36 13.55-30.72 4.76 2 2.38-2.39-5.09-4.38-2.83-6.64-17.62-31.63-17.62-47.44c0-15.81 9.49-28.46 9.49-28.46l30.72 2.26z"/><circle cx="82.82" cy="87.41" r="21" fill="#ffb6b6"/><path fill="#2f2e41" d="M81.84 127.56s3.14-24.87 3.7-32.1S96.3 76.94 96.3 76.94l7.23 5.84s6.12 0 1.95-8.9-11.96-10.29-11.96-10.29-.83-11.68-15.29-10.29c-14.46 1.39-20.86 13.08-20.86 13.08s-.83-14.75-10.01-3.9-14.46 15.3-4.73 18.91c9.73 3.62 16.97.84 16.97.84s-9.46 1.94-7.79 8.62c1.67 6.67-21.97 36.98-11.13 40.32 10.85 3.34 35.04 11.4 37.82 6.12 2.79-5.28 3.34-9.73 3.34-9.73z"/><path fill="#ffb6b6" d="M168.41 277.56c4.01-3.32 3.01-11.13-2.22-17.43-2.29-2.76-5.01-4.77-7.68-5.88l-3.06-3.58-39.41-50.24s-21.63-49.82-28.1-55.24c-6.47-5.42-14.15-2.69-14.15-2.69l-6.04 7.34 36.66 69.63 37.8 38.67 5.1 5.41c.6 2.83 2.08 5.88 4.37 8.64 5.23 6.3 12.72 8.7 16.73 5.37z"/><path fill="#d1e8ff" d="M65.47 138.64s9.64 50.06 20.62 57.44l21.87-17.06s1.92-.08-1.64-4.1c-3.57-4.03-2.65-12.67-2.65-12.67s1.6 2.07-1.89-.81-.24-22.68-.24-22.68l-36.07-.12z"/><path fill="#ffb6b6" d="M224.79 345.18a1 1 0 0 1-.97-.79l-1.1-5.11a16.93 16.93 0 0 0-15.79-13.34c-7.11-.32-13.7 3.9-16.4 10.48l-2.76 6.73a1 1 0 1 1-1.85-.76l2.76-6.73c3.02-7.36 10.38-12.06 18.34-11.71a18.93 18.93 0 0 1 17.65 14.91l1.1 5.11a1 1 0 0 1-.98 1.21zm1.18 16.26h-.09l-37-3.3a1 1 0 0 1 .18-1.99l37 3.3a1 1 0 0 1-.09 1.99z"/></g></svg>