<?xml version="1.0"?>
<svg width="883.782" height="672.254" xmlns="http://www.w3.org/2000/svg" xmlns:svg="http://www.w3.org/2000/svg" data-name="Layer 1">
 <g class="layer">
  <title>Layer 1</title>
  <path d="m0.22,607l883.56,0l0,65.25l-883.56,0l0,-65.25z" fill="#e6e6e6" id="svg_1" transform="matrix(1 0 0 1 0 0)"/>
  <path d="m882.56,607.05l-882.56,0l0,-2.18l882.95,0l-0.39,2.18z" fill="#3f3d56" id="svg_2"/>
  <path d="m693.19,251.19l0,193.18l-502.38,0l0,-193.18a251.19,251.19 0 0 1 236.69,-250.78q7.19,-0.42 14.5,-0.41c2.78,0 5.54,0.04 8.29,0.15a250.33,250.33 0 0 1 169.32,73.43a301.64,301.64 0 0 1 4.03,4.11a251.04,251.04 0 0 1 69.55,173.5z" fill="#d1e8ff" id="svg_3"/>
  <path d="m450.29,0.15l0,444.22l-22.79,0l0,-443.96q7.19,-0.42 14.5,-0.41c2.78,0 5.54,0.04 8.29,0.15z" fill="#fff" id="svg_4"/>
  <path d="m642.96,100.48l-401.92,0a251.95,251.95 0 0 1 19.32,-22.79l363.28,0a251.95,251.95 0 0 1 19.32,22.79zm-166.05,65.25l178.05,0l0,301.43l-178.05,0l0,-301.43z" fill="#fff" id="svg_5"/>
  <path d="m512.07,216.66l26.93,0l0,26.93l-26.93,0l0,-26.93zm43.39,0l26.93,0l0,26.93l-26.93,0l0,-26.93zm43.39,0l26.93,0l0,26.93l-26.93,0l0,-26.93zm-86.04,61.34l26.94,0l0,26.93l-26.94,0l0,-26.93zm43.39,0l26.94,0l0,26.93l-26.94,0l0,-26.93zm43.4,0l26.93,0l0,26.93l-26.93,0l0,-26.93zm-86.04,61.35l26.93,0l0,26.93l-26.93,0l0,-26.93zm43.39,0l26.93,0l0,26.93l-26.93,0l0,-26.93zm43.39,0l26.93,0l0,26.93l-26.93,0l0,-26.93zm-86.03,61.34l26.93,0l0,26.93l-26.93,0l0,-26.93zm43.39,0l26.93,0l0,26.93l-26.93,0l0,-26.93zm43.39,0l26.93,0l0,26.93l-26.93,0l0,-26.93z" fill="#e6e6e6" id="svg_6"/>
  <path d="m514.31,400.69l26.93,0l0,26.93l-26.93,0l0,-26.93zm43.39,0l26.93,0l0,26.93l-26.93,0l0,-26.93zm43.39,0l26.93,0l0,26.93l-26.93,0l0,-26.93z" fill="#e6e6e6" id="svg_7"/>
  <circle cx="250.53" cy="345.96" fill="#fff" id="svg_8" r="37.12"/>
  <path d="m250.63,345.96l0.1,0l1.84,105.24l-3.88,0l1.94,-105.24z" fill="#fff" id="svg_9"/>
  <path d="m256.53,401.66l0.86,1.63l-6.14,3.23l-0.85,-1.63l6.13,-3.23z" fill="#fff" id="svg_10"/>
  <circle cx="359.66" cy="291.17" fill="#fff" id="svg_11" r="56.45"/>
  <path d="m359.81,291.17l0.16,0l2.79,160.03l-5.89,0l2.94,-160.03z" fill="#fff" id="svg_12"/>
  <path d="m368.79,375.87l1.3,2.47l-9.33,4.91l-1.3,-2.47l9.33,-4.91zm-125.55,-138.6l9.53,-7.63c-7.41,-0.82 -10.45,3.22 -11.7,6.42c-5.78,-2.4 -12.08,0.75 -12.08,0.75l19.08,6.92a14.44,14.44 0 0 0 -4.83,-6.46zm100.47,-62.15l9.54,-7.63c-7.41,-0.82 -10.46,3.22 -11.7,6.42c-5.79,-2.4 -12.09,0.75 -12.09,0.75l19.08,6.92a14.44,14.44 0 0 0 -4.83,-6.46zm-38.33,59.04l9.54,-7.63c-7.41,-0.82 -10.45,3.22 -11.7,6.42c-5.78,-2.4 -12.08,0.75 -12.08,0.75l19.08,6.93a14.44,14.44 0 0 0 -4.83,-6.47l-0.01,0z" fill="#fff" id="svg_13"/>
  <path d="m163.4,418.58l555.2,0l0,45.58l-555.2,0l0,-45.58zm-82.93,118.64s-112.3,-51.7 -72.85,-87.55s72.85,87.55 72.85,87.55z" fill="#e6e6e6" id="svg_14"/>
  <path d="m79.52,552.28s-51.62,-169.6 24.39,-161.49s-24.39,161.49 -24.39,161.49z" fill="#ffc9bd" id="svg_15" transform="matrix(1 0 0 1 0 0)"/>
  <path d="m41.88,537.24l2.17,28.38l0.03,0.49a130.35,130.35 0 0 0 0.67,13.26c2.94,28.94 15.58,42.13 30.35,42.13s26.86,-13.19 29.8,-42.13a130.36,130.36 0 0 0 0.67,-13.26l0.02,-0.4l0.01,-0.09l2.17,-28.38l-65.89,0z" fill="#b6d8b1" id="svg_16"/>
  <path d="m105.6,565.62l-0.01,0.09l-0.02,0.4a130.36,130.36 0 0 1 -0.67,13.26l-60.15,0a130.35,130.35 0 0 1 -0.67,-13.26l-0.03,-0.49l61.55,0z" fill="#fff" id="svg_17"/>
  <path d="m832.9,540.22s-112.31,-51.7 -72.86,-87.55s72.86,87.55 72.86,87.55z" fill="#e6e6e6" id="svg_18"/>
  <path d="m830.94,552.28s-51.62,-169.6 24.39,-161.49s-24.39,161.49 -24.39,161.49z" fill="#ffc9bd" id="svg_19" transform="matrix(1 0 0 1 0 0)"/>
  <path d="m793.3,537.24l2.17,28.38l0.04,0.49a130.35,130.35 0 0 0 0.67,13.26c2.94,28.94 15.57,42.13 30.35,42.13s26.85,-13.19 29.79,-42.13a130.35,130.35 0 0 0 0.67,-13.26l0.02,-0.4l0.01,-0.09l2.18,-28.38l-65.9,0z" fill="#b6d8b1" id="svg_20" transform="matrix(1 0 0 1 0 0)"/>
  <path d="m857.02,565.62l-0.01,0.09l-0.02,0.4a130.35,130.35 0 0 1 -0.67,13.26l-60.14,0a130.35,130.35 0 0 1 -0.67,-13.26l-0.04,-0.49l61.55,0z" fill="#fff" id="svg_21"/>
  <path d="m683.78,642.93l-7.36,0.87c-5.82,3.5 -12.64,4.82 -20.2,4.55a6.06,6.06 0 0 1 -5.13,-3.14a6,6 0 0 1 3.91,-8.71l5.6,-1.3l13.5,-13.2l8.14,-14.74l11.83,1.35l2.46,18.72a14.49,14.49 0 0 1 -12.75,15.6zm-114.67,-9.47l-7.22,1.7c-5.38,4.14 -12.01,6.23 -19.55,6.83a6.06,6.06 0 0 1 -5.46,-2.54a6,6 0 0 1 2.9,-9.1l5.41,-1.93l11.91,-14.66l6.41,-15.57l11.91,0l4.58,18.32a14.49,14.49 0 0 1 -10.89,16.95z" fill="#ffb8b8" id="svg_22" transform="matrix(1 0 0 1 0 0)"/>
  <path d="m563.19,599.23l13.47,2.07l21.23,-107.21l36.77,-62.67l44.55,182.31l16.57,3.11c-1.86,-102.67 7.21,-231.92 -13.47,-247.57l-90.11,10.36l-39.37,105.66l10.36,113.94z" fill="#2f2e41" id="svg_23"/>
  <circle cx="628.45" cy="178.68" fill="#ffb8b8" id="svg_24" r="31.07"/>
  <path d="m671.95,226.33l-37.29,6.21l-9.32,-33.14l26.93,-8.29l19.68,35.22z" fill="#ffb8b8" id="svg_25"/>
  <path d="m687.49,373.42l-99.44,9.32c7.97,-27.72 15.28,-55.34 9.32,-82.87c-7.56,-24.57 -0.26,-39.18 19.68,-50.75l13.47,-30.04l36.25,-4.15a78.26,78.26 0 0 1 11.11,51.75c-5.16,39.18 -3.77,75.54 9.61,106.74z" fill="#0aa8a7" id="svg_26"/>
  <path d="m627.75,141.98c-10.37,2.37 -22.17,5.73 -22.84,8.85c-10.66,2.68 -18.72,9.12 -20.36,18.94a5.88,5.88 0 0 0 5.9,6.82c5.8,-0.08 14.51,-0.63 20.26,-3.03c16.71,10.76 19.51,38.76 12.21,57.82l11.49,-1.06l11.87,-34.77l3.04,33.41l26.2,-3.47l-3.38,-42.59a63.47,63.47 0 0 0 -9.96,-28.15a23.97,23.97 0 0 0 -1.88,-2.43a33.3,33.3 0 0 0 -32.55,-10.34z" fill="#2f2e41" id="svg_27"/>
  <path d="m561.95,653.62a3.65,3.65 0 0 0 3.59,4.05l11.65,0.12a2.48,2.48 0 0 0 2.31,-2.48a2.48,2.48 0 0 0 -1.56,-2.31l-3.44,-1.37l-5,-7l-4,0a18.32,18.32 0 0 0 -3.55,8.97l0,0.02zm-27.9,0a3.65,3.65 0 0 1 -3.59,4.05l-11.65,0.12a2.48,2.48 0 0 1 -2.31,-2.48a2.48,2.48 0 0 1 1.56,-2.31l3.44,-1.37l5,-7l4,0a18.32,18.32 0 0 1 3.55,8.97l0,0.02z" fill="#ffb8b8" id="svg_28"/>
  <path d="m525.5,644.63l6,0l21,-91l11,92l7,0l9.5,-118.5l-48.5,-0.5l-6,118z" fill="#3f3d56" id="svg_29"/>
  <path d="m498.5,477.63l8,0l0,-19l1.82,-3.64a5.18,5.18 0 0 0 -3.85,-7.44a5.18,5.18 0 0 0 -5.97,5.12l0,24.96z" fill="#ffb8b8" id="svg_30"/>
  <circle cx="546" cy="412.13" fill="#ffb8b8" id="svg_31" r="18.5"/>
  <path d="m557.5,443.63l-19,0l0,-22l19,0l0,22z" fill="#ffb8b8" id="svg_32"/>
  <path d="m529.5,529.63c16.82,10.37 34.6,9.36 53,1l-4,-93l-21,-1l-22,3l-11,9l5,81z" fill="#e59d23" id="svg_33" transform="matrix(1 0 0 1 0 0)"/>
  <path d="m508.5,495.63l22,-17l-7,-31l-13,24l-4,-4l-12,9l14,19z" fill="#e59d23" id="svg_34" transform="matrix(1 0 0 1 0 0)"/>
  <path d="m607.16,439.22l-7,3.88l-9.21,-16.62l-3.36,-2.3a5.18,5.18 0 0 1 -0.24,-8.37a5.18,5.18 0 0 1 7.71,1.58l2.89,5.22l9.21,16.61z" fill="#ffb8b8" id="svg_35"/>
  <path d="m568,467.13l26.55,-14.1l13.95,-7.4l2,-12l-9,-9l-11,7l1,8l-13,-2l-10.5,29.5z" fill="#e59d23" id="svg_36" transform="matrix(1 0 0 1 0 0)"/>
  <circle cx="550" cy="405.13" fill="#2f2e41" id="svg_37" r="22"/>
  <circle cx="562" cy="380.13" fill="#2f2e41" id="svg_38" r="10"/>
  <path d="m561.51,388.49a10,10 0 0 0 12.84,-14.57a9.99,9.99 0 1 1 -14.22,13.68a10.02,10.02 0 0 0 1.38,0.89z" fill="#2f2e41" id="svg_39"/>
  <path d="m623.27,404.49l0.69,24.05a13.11,13.11 0 0 1 -11.8,13.42a13.11,13.11 0 0 1 -13.97,-16.47l5.4,-19.96l15.54,-84.94l-1.04,-49.72l33.15,-1.04l-6.22,55.94l-21.75,78.72z" fill="#ffb8b8" id="svg_40"/>
  <path d="m653.31,275.01a52.38,52.38 0 0 0 -37.29,0l2.07,-41.43a16.57,16.57 0 0 1 16.57,-16.57a16.57,16.57 0 0 1 16.58,16.57l2.07,41.43z" fill="#0aa8a7" id="svg_41"/>
 </g>
</svg>