<?xml version="1.0"?>
<svg width="668.405" height="538.45" xmlns="http://www.w3.org/2000/svg" xmlns:svg="http://www.w3.org/2000/svg" data-name="Layer 1">
 <g class="layer">
  <title>Layer 1</title>
  <path d="m661.38,39.72l0,420.06c18.97,30.72 -3.23,28.7 -33.68,21.21a757.69,757.69 0 0 0 -215.45,-21.27q-13.11,0.58 -26.18,1.64q-6.15,0.49 -12.3,1.09q-23.48,2.29 -46.83,6.06q-4.4,0.7 -8.77,1.48c-2.73,0.47 -5.45,0.96 -8.18,1.47q-22.25,4.12 -44.29,9.62c-0.02,0.01 -0.05,0.01 -0.07,0.02l-73.9,18.46l-155.73,38.89c-32.69,0 -59.19,-26.5 -4.49,-62.91l0,-420.06c-54.7,-28.98 -28.2,-55.48 4.49,-55.48l229.76,64.42a535.75,535.75 0 0 0 284.13,1.4c63.72,-17.18 120.97,-32.71 111.49,-26.1z" fill="#ffeaf8" id="svg_1" transform="matrix(1 0 0 1 0 0)"/>
  <path d="m280.94,87.22c7.86,-25.07 25.76,-48.07 50.5,-56.55c24.75,-8.48 60.98,4.44 79.58,22.98c34.03,33.91 35.08,75.43 11.7,112.25c-4.65,-0.25 -20.7,-0.43 -25.4,-0.61l-6.66,-22.19l0,21.98c-36.74,-1.14 -77.63,29.08 -113.25,0.31c-3.43,-26.07 -4.34,-53.09 3.53,-78.17z" fill="#2f2e41" id="svg_2"/>
  <path d="m381.55,343.54l7.59,19.74l-1.52,19.74l-145.77,-18.22l4.56,-16.71l16.7,-19.74l118.44,15.19z" fill="#ffb6b6" id="svg_3"/>
  <circle cx="334.57" cy="112.83" fill="#ffb7b7" id="svg_4" r="53.07"/>
  <path d="m278.3,203.84l30.36,-18.22l60.74,-6.07l53.69,12.14l-0.54,98.7l-34.06,86.62l-142.73,-18.22l-5.43,-30.56s-39.48,-53.02 3.04,-83.39l34.93,-41z" fill="#0aa8a7" id="svg_5"/>
  <path d="m412.25,459.72q-13.11,0.59 -26.18,1.64q-6.15,0.5 -12.3,1.09q-23.48,2.3 -46.83,6.06q-4.4,0.7 -8.77,1.48c-2.73,0.47 -5.45,0.96 -8.18,1.47q-22.25,4.13 -44.29,9.62c-0.02,0.01 -0.05,0.01 -0.07,0.02l-73.9,18.46c4.27,-38.5 14.33,-97.91 36.46,-111.99l14.46,-25.72l0.01,-0.02l0.89,-1.57l26.78,2.79l22.52,2.35l15.54,1.62l9.71,1l0.15,0.02l69.96,7.29l0.9,0.1l0.03,0l0,33.72s0.46,0.59 1.24,1.7c0.32,0.44 0.68,0.96 1.08,1.55a148.02,148.02 0 0 1 8.52,14.06c0.42,0.78 0.84,1.58 1.25,2.41a131.54,131.54 0 0 1 7.13,16.52a98.63,98.63 0 0 1 3.89,14.33zm-114.15,-416c20.28,-12.36 47.29,-12.71 67.89,-0.89c20.59,11.82 33.9,35.33 33.46,59.07c-29.67,1.36 -60.44,29.22 -92.43,1.78l-7.47,-18.28l-4.4,18.29q-14.44,0 -28.94,-0.04c-1.07,-23.72 11.62,-47.57 31.89,-59.93z" fill="#2f2e41" id="svg_6"/>
  <path d="m425.76,384.56l51.63,30.36c12.14,-6.07 9.8,-45.46 2.38,-47.77l-5.59,-131.42c-3.04,-60.74 -51.09,-44.04 -51.09,-44.04l-21.8,4.56l15.18,63.77l16.5,110.04a18.17,18.17 0 0 0 -7.21,14.5z" fill="#0aa8a7" id="svg_7"/>
  <path d="m406.71,416.12l-4.33,9.27l-1.15,2.48l-12.15,26.03l-3.01,6.46q-6.15,0.49 -12.3,1.09q-23.48,2.29 -46.83,6.06l4.52,-18.66l-13.29,20.14c-2.73,0.47 -5.45,0.96 -8.18,1.47q-22.25,4.12 -44.29,9.62l40.27,-93.31l0,-0.01l3.46,-8.02l80.95,31.11l2.14,0.82l14.19,5.45z" fill="#a86900" id="svg_8"/>
  <path d="m303.15,384.28c26.08,33.51 62.64,44.8 105.96,41.76l61.69,-190.26l-29.09,-5.14l-12.42,-16.19l-32.48,-4.26l-16.09,7.84l-26.9,-0.6l-20.46,67.39l-37.72,66.95l7.51,32.51z" fill="#e6e7e8" id="svg_9"/>
  <path d="m507.63,226.71l-12.97,11.28l-26.78,-30.82l-8.08,-3.34a11.14,11.14 0 0 1 -4.24,-17.49a11.14,11.14 0 0 1 16.9,-0.11l8.4,9.66l26.77,30.82z" fill="#ffb8b8" id="svg_10"/>
  <path d="m437.79,302.83l49.52,-41.47l20.12,-18.24a14.08,14.08 0 0 0 0.2,-20.67l-0.34,-6.21a11.57,11.57 0 0 0 -13.72,-10.73l-17.22,16.94l9.56,5.47l-11,6.63l-28.22,1.6l-8.9,66.68z" fill="#e6e7e8" id="svg_11"/>
  <circle cx="424.49" cy="170.88" fill="#ffb8b8" id="svg_12" r="39.75"/>
  <path d="m454.56,124.28c24.47,9.11 39.19,22.14 30.08,46.6s-33.99,48.87 -58.46,39.76s-8.58,-17.84 -35.52,-67.54c-12.44,-22.95 39.44,-27.93 63.9,-18.82z" fill="#2f2e41" id="svg_13"/>
  <path d="m473.95,412.9c-0.2,0.13 -0.41,0.26 -0.62,0.38q-0.62,0.37 -1.26,0.69l-63.71,31.42l-19.28,9.51l-15.31,7.55q-23.48,2.3 -46.83,6.06q-4.4,0.7 -8.77,1.48c-2.73,0.47 -5.45,0.96 -8.18,1.47a22.64,22.64 0 0 1 -0.08,-5.4a23.82,23.82 0 0 1 28.75,-20.9a23.39,23.39 0 0 1 3.59,1.11l31.07,-21.39l18.14,-12.48l1.06,-0.73l27.36,-18.84l0.01,-0.01l8.6,-5.91l0.58,-0.4l5.83,-4.01l-2.12,-27.24l40.69,-8.57l8.44,47.86a18.14,18.14 0 0 1 -7.96,18.35z" fill="#ffb6b6" id="svg_14"/>
  <path d="m478.5,367.15l-2.57,-38.8l-43.15,26.91l-1.08,14.8a18.17,18.17 0 0 0 -7.21,14.49l51.62,30.37c12.15,-6.07 9.8,-45.46 2.39,-47.77z" fill="#0aa8a7" id="svg_15"/>
  <path d="m222.94,186.87a13.69,13.69 0 0 0 17.98,10.81l110.03,58.56l9.34,-28.25l-111.09,-48.68a13.76,13.76 0 0 0 -26.26,7.56z" fill="#ffb6b6" id="svg_16"/>
  <path d="m395.43,271.1s-20.61,13.46 -34.4,6.79c-11.04,-5.33 -44.26,-33.94 -57.08,-45.14a10.75,10.75 0 0 1 -13.17,-0.49l20.16,-29.08c7.95,-1.05 9.08,4.19 9.02,7.33l20.49,8.39l17.37,-0.29l38.99,47.45l-1.38,5.04z" fill="#e6e7e8" id="svg_17"/>
  <path d="m392.49,390.39a23.18,23.18 0 0 1 -35.42,3l-144.22,4.67l-18.44,0.59c-18.97,0.61 -29.89,-21.33 -17.97,-36.09l12.81,-15.87l45.81,7.19l16.57,0.72l106.59,4.67a23.31,23.31 0 0 1 34.27,31.12z" fill="#ffb6b6" id="svg_18"/>
  <path d="m265.27,210.64s-27.49,-6.97 -40.52,15.47c-10.43,17.96 -45.91,85.9 -53.28,113.78c-35.94,86.62 47.63,52.13 45.29,60.3l27.95,-45.89c12.15,-6.08 -11.23,1.76 -14.31,-2.59l21.43,-23.29l24.3,-12.15l8.91,-95.11l-19.77,-10.52z" fill="#0aa8a7" id="svg_19"/>
 </g>
</svg>