<?xml version="1.0"?>
<svg width="864.67004" height="439.09557" xmlns="http://www.w3.org/2000/svg" xmlns:svg="http://www.w3.org/2000/svg" data-name="Layer 1">
 <g class="layer">
  <title>Layer 1</title>
  <path d="m112.91,412.71a3.61,3.61 0 0 1 -2.62,-6.26c0.09,-0.36 0.15,-0.62 0.25,-0.98q-0.05,-0.12 -0.1,-0.24a9.7,9.7 0 0 0 -17.9,0.07c-2.93,7.05 -6.66,14.11 -7.57,21.57a28.71,28.71 0 0 0 0.5,9.87a115.09,115.09 0 0 1 -10.47,-47.8a111.08,111.08 0 0 1 0.69,-12.39q0.57,-5.06 1.58,-10.05a116.42,116.42 0 0 1 23.09,-49.34a30.98,30.98 0 0 0 12.89,-13.37a23.63,23.63 0 0 0 2.15,-6.46c-0.63,0.08 -1.27,0.13 -1.9,0.18c-0.19,0.01 -0.4,0.02 -0.59,0.03l-0.08,0a3.58,3.58 0 0 1 -2.94,-5.83q0.41,-0.5 0.82,-1c0.41,-0.52 0.83,-1.02 1.24,-1.53a1.78,1.78 0 0 0 0.13,-0.16c0.48,-0.58 0.95,-1.16 1.42,-1.75a10.35,10.35 0 0 0 -3.39,-3.28c-4.74,-2.77 -11.28,-0.85 -14.71,3.44c-3.43,4.29 -4.08,10.3 -2.89,15.66a41.49,41.49 0 0 0 5.74,12.79c-0.25,0.33 -0.52,0.65 -0.78,0.98a117.17,117.17 0 0 0 -12.23,19.37a48.71,48.71 0 0 0 -2.91,-22.62c-2.78,-6.71 -8,-12.37 -12.59,-18.18c-5.52,-6.97 -16.84,-3.92 -17.81,4.91q-0.01,0.13 -0.03,0.26q1.03,0.58 2.01,1.23a4.9,4.9 0 0 1 -1.98,8.92l-0.1,0.01a48.77,48.77 0 0 0 1.29,7.29a50.21,50.21 0 0 0 25,31.47c0.4,0.21 0.79,0.41 1.19,0.61a119.6,119.6 0 0 0 -6.44,30.29a113.44,113.44 0 0 0 0.09,18.32l-0.04,-0.22a29.97,29.97 0 0 0 -10.23,-17.3c-7.87,-6.47 -19,-8.86 -27.49,-14.05a5.63,5.63 0 0 0 -8.62,5.47q0.02,0.11 0.04,0.22a32.93,32.93 0 0 1 3.69,1.78q1.02,0.58 2,1.23a4.9,4.9 0 0 1 -1.97,8.92l-0.1,0.01c-0.08,0.01 -0.14,0.02 -0.21,0.04a48.81,48.81 0 0 0 8.98,14.05a50.25,50.25 0 0 0 36.44,15.99l0.01,0a119.56,119.56 0 0 0 8.04,23.45l28.69,0c0.1,-0.32 0.19,-0.65 0.29,-0.97a32.6,32.6 0 0 1 -7.94,-0.47c2.13,-2.61 4.25,-5.24 6.38,-7.86a1.78,1.78 0 0 0 0.14,-0.15c1.08,-1.34 2.17,-2.66 3.25,-4l0,0a47.75,47.75 0 0 0 -1.4,-12.17z" fill="#ffc9bd" id="svg_1"/>
  <path d="m684.99,395.62a3.61,3.61 0 0 0 6.04,-3.11c0.16,-0.33 0.28,-0.57 0.44,-0.91q0.11,-0.06 0.23,-0.12a9.7,9.7 0 0 1 13.65,11.58c-2.3,7.28 -3.99,15.08 -8.09,21.38a28.71,28.71 0 0 1 -6.74,7.23a115.09,115.09 0 0 0 38.78,-29.84a111.08,111.08 0 0 0 7.45,-9.93q2.82,-4.24 5.26,-8.71a116.42,116.42 0 0 0 14.09,-52.62a30.98,30.98 0 0 1 -1.25,-18.52a23.63,23.63 0 0 1 2.51,-6.33c0.43,0.47 0.88,0.92 1.33,1.35c0.15,0.14 0.3,0.28 0.44,0.41l0.06,0.05a3.58,3.58 0 0 0 6,-2.57q0.01,-0.65 0.02,-1.29c0.02,-0.66 0.02,-1.31 0.04,-1.97a1.78,1.78 0 0 1 -0.01,-0.21c0.02,-0.75 0.03,-1.5 0.04,-2.25a10.35,10.35 0 0 1 4.71,-0.32c5.42,0.92 9.18,6.6 9.04,12.09c-0.13,5.49 -3.51,10.51 -7.87,13.85a41.48,41.48 0 0 1 -12.62,6.09c-0.02,0.42 -0.02,0.84 -0.03,1.25a117.17,117.17 0 0 1 -3.12,22.7a48.71,48.71 0 0 1 16.79,-15.44c6.45,-3.35 14.09,-4.32 21.34,-5.8c8.71,-1.78 15.41,7.83 10.47,15.22q-0.08,0.11 -0.15,0.21q-1.15,-0.21 -2.32,-0.35a4.9,4.9 0 0 0 -4.23,8.1l0.07,0.08a48.77,48.77 0 0 1 -5.68,4.75a50.21,50.21 0 0 1 -39.39,7.99c-0.44,-0.1 -0.87,-0.2 -1.3,-0.31a119.6,119.6 0 0 1 -14.58,27.33a113.43,113.43 0 0 1 -11.85,13.96l0.16,-0.14a29.97,29.97 0 0 1 18.97,-6.66c10.19,0.12 20.24,5.46 30.09,6.95a5.63,5.63 0 0 1 3.07,9.73q-0.09,0.08 -0.17,0.15a32.92,32.92 0 0 0 -3.97,-1.01q-1.16,-0.22 -2.33,-0.35a4.9,4.9 0 0 0 -4.23,8.09l0.07,0.08c0.05,0.05 0.09,0.1 0.14,0.16a48.81,48.81 0 0 1 -15.92,4.97a50.25,50.25 0 0 1 -38.19,-11.22l0,-0.01a119.56,119.56 0 0 1 -21.24,12.78l-21.96,-18.47c0.13,-0.31 0.27,-0.62 0.4,-0.93a32.6,32.6 0 0 0 6.38,4.75c0.05,-3.37 0.12,-6.75 0.17,-10.12a1.78,1.78 0 0 1 0,-0.21c0.03,-1.71 0.05,-3.43 0.09,-5.15l0,0a47.75,47.75 0 0 1 8.9,-8.41z" fill="#ffc9bd" id="svg_2"/>
  <path d="m378.34,470.88a5.65,5.65 0 0 1 -3.85,-7.77l-14.74,-13.65l10.14,-2.49l12.44,13.35a5.68,5.68 0 0 1 -3.99,10.56z" fill="#ffb6b6" id="svg_3" transform="translate(-167.66498 -230.45221)"/>
  <path d="m333.36,433.65l-15.45,-45.1a14.27,14.27 0 0 1 8.87,-18.1l0,0a14.25,14.25 0 0 1 18.71,11.4l6.18,41.87l25.83,26.46l-6.79,9.68l-37.35,-26.21z" fill="#3f3d56" id="svg_4" transform="translate(-167.66498 -230.45221)"/>
  <polygon fill="#ffb6b6" id="svg_5" points="140.192 415.96 151.222 415.96 156.469 373.418 140.19 373.418 140.192 415.96"/>
  <path d="m304.12,640.97l17.44,-1.04l0,7.47l16.57,11.45a4.67,4.67 0 0 1 -2.65,8.5l-33.56,0l2.2,-26.38z" fill="#2f2e41" id="svg_6" transform="translate(-167.66498 -230.45221)"/>
  <path d="m149.83,216.13s-3.44,-3.6 -10.03,4.91c-6.08,7.71 -5.78,9.21 -5,19c0.64,7 -5.63,42.18 0.62,48.16l5.04,112.68s15.29,4.3 16.01,-2.9l39.48,-143.29l-4.71,-36.63l-41.41,-1.93z" fill="#8eafce" id="svg_7" transform="matrix(1 0 0 1 0 0)"/>
  <polygon fill="#ffb6b6" id="svg_8" points="222.852 414.894 232.517 409.58 216.619 369.773 202.354 377.616 222.852 414.894"/>
  <path d="m384.62,642.38l14.78,-9.31l3.6,6.54l20.04,2.05a4.67,4.67 0 0 1 1.77,8.73l-18.19,10l-4.35,2.4l-6.86,3.77l-10.79,-24.18z" fill="#2f2e41" id="svg_9" transform="translate(-167.66498 -230.45221)"/>
  <path d="m135.03,235.15s-0.2,18.15 -1.88,28.78a38.89,38.89 0 0 0 5.89,27.83c3.93,5.82 9.72,11.25 18.08,13.48l58.71,96.31s15.46,-3.6 12.62,-10.26l-34.43,-144.57l-21.78,-29.83l-37.21,18.26z" fill="#8eafce" id="svg_10" transform="matrix(1 0 0 1 0 0)"/>
  <path d="m302.21,414.24l-1.75,56.25l58.26,-16.12l1.02,-2.78l2.5,-9.47s-5.78,-13.63 -4.6,-45.36l-14.71,-39.23l-23.31,-0.48l-0.13,0.13a63.08,63.08 0 0 0 -17.28,57.06z" fill="#3f3d56" id="svg_11" transform="translate(-167.66498 -230.45221)"/>
  <path d="m419.4,437.36a5.65,5.65 0 0 1 -7.26,-4.74l-19.62,-4.29l7.47,-7.29l17.49,5.19a5.68,5.68 0 0 1 1.92,11.13z" fill="#ffb6b6" id="svg_12" transform="translate(-167.66498 -230.45221)"/>
  <path d="m361.75,428.08l-36.18,-31.04a14.27,14.27 0 0 1 -1.54,-20.1l0,0a14.25,14.25 0 0 1 21.92,0.34l26.55,32.96l35.68,9.71l-0.95,11.79l-45.48,-3.66z" fill="#3f3d56" id="svg_13" transform="translate(-167.66498 -230.45221)"/>
  <path d="m355.46,319.09a25.14,25.14 0 1 1 -0.88,-6.6a25.14,25.14 0 0 1 0.88,6.6z" fill="#ffb8b8" id="svg_14" transform="translate(-167.66498 -230.45221)"/>
  <path d="m346.31,285.99c-2.04,-0.06 -1.34,-3.9 -2.98,-5.12q-0.01,0.05 -0.02,0.11a4,4 0 0 1 -7.65,0.32a6.08,6.08 0 0 0 -3.86,-4.05c-0.11,3.56 -2.8,6.65 -6.01,8.19s-6.88,1.79 -10.44,1.85c-3.56,0.05 -7.18,-0.07 -10.63,0.8c-3.45,0.87 -6.81,2.92 -8.29,6.17c-1.47,3.24 -0.42,7.7 2.81,9.21c-2.5,0.01 -4.63,2.08 -5.49,4.42a17.56,17.56 0 0 0 -0.54,7.42c0.7,9.2 2.41,19.1 9.11,25.44c5.1,4.83 12.41,6.78 19.43,6.75c7.03,-0.03 5.8,-0.68 12.59,-2.47c0,0 6.46,-18.52 4.84,-20.34c-1.63,-1.83 -2.98,-4.16 -2.69,-6.58s2.9,-4.6 5.16,-3.68c-0.38,-0.97 -0.66,-1.15 -0.84,-1.1a8.6,8.6 0 0 0 0.3,-0.85a9.62,9.62 0 0 1 6,-6.37a7.46,7.46 0 0 1 8.15,2.47c7.44,-6.98 2.83,-22.24 -8.95,-22.59z" fill="#2f2e41" id="svg_15" transform="translate(-167.66498 -230.45221)"/>
  <path d="m778.59,470.88a5.65,5.65 0 0 0 3.85,-7.77l14.74,-13.65l-10.14,-2.49l-12.44,13.35a5.68,5.68 0 0 0 3.99,10.56z" fill="#9e616a" id="svg_16" transform="translate(-167.66498 -230.45221)"/>
  <path d="m618.56,229.41l-6.79,-9.68l25.83,-26.46l6.17,-41.87a14.25,14.25 0 0 1 18.72,-11.4l0,0a14.27,14.27 0 0 1 8.87,18.1l-15.45,45.1l-37.35,26.21z" fill="#bf0000" id="svg_17" transform="matrix(1 0 0 1 0 0)"/>
  <polygon fill="#9e616a" id="svg_18" points="681.407 415.96 670.377 415.96 665.13 373.418 681.409 373.418 681.407 415.96"/>
  <path d="m855.01,667.35l-33.56,0a4.67,4.67 0 0 1 -2.65,-8.5l16.57,-11.45l0,-7.47l17.44,1.04l2.2,26.38z" fill="#2f2e41" id="svg_19" transform="translate(-167.66498 -230.45221)"/>
  <path d="m671.78,216.13s8.92,15.81 15.51,24.32c6.08,7.71 5.3,11.8 4.51,21.59c-0.64,7 0.64,20.18 -5.61,26.16l-5.04,112.68s-15.29,4.3 -16.01,-2.9l-39.48,-143.29l4.71,-36.63l41.41,-1.93z" fill="#b4b2c9" id="svg_20" transform="matrix(1 0 0 1 0 0)"/>
  <polygon fill="#9e616a" id="svg_21" points="598.747 414.894 589.082 409.58 604.981 369.773 619.245 377.616 598.747 414.894"/>
  <path d="m761.52,666.56l-6.86,-3.77l-4.36,-2.4l-18.18,-10a4.67,4.67 0 0 1 1.77,-8.73l20.04,-2.05l3.6,-6.54l14.78,9.31l-10.79,24.18z" fill="#2f2e41" id="svg_22" transform="translate(-167.66498 -230.45221)"/>
  <path d="m686.58,235.15s0.2,18.15 1.88,28.78a38.89,38.89 0 0 1 -5.89,27.83c-3.93,5.82 -9.72,11.25 -18.08,13.48l-58.71,96.31s-15.46,-3.6 -12.62,-10.26l34.43,-144.57l21.78,-29.83l37.21,18.26z" fill="#b4b2c9" id="svg_23" transform="matrix(1 0 0 1 0 0)"/>
  <path d="m669.78,126.73l-0.13,-0.13l-23.31,0.48l-14.71,39.23c1.17,31.73 -4.6,45.36 -4.6,45.36l2.5,9.47l-7.73,46.9l74.24,-15.02l-8.98,-69.23a63.08,63.08 0 0 0 -17.28,-57.06z" fill="#bf0000" id="svg_24" stroke="#bf0000" transform="matrix(1 0 0 1 0 0)"/>
  <path d="m737.53,437.36a5.65,5.65 0 0 0 7.26,-4.74l19.62,-4.29l-7.47,-7.29l-17.49,5.19a5.68,5.68 0 0 0 -1.92,11.13z" fill="#9e616a" id="svg_25" transform="translate(-167.66498 -230.45221)"/>
  <path d="m582.04,201.04l-0.95,-11.79l35.68,-9.71l26.55,-32.96a14.25,14.25 0 0 1 21.92,-0.34l0,0a14.27,14.27 0 0 1 -1.54,20.1l-36.18,31.04l-45.48,3.66z" fill="#bf0000" id="svg_26" stroke="#bf0000"/>
  <path d="m634.68,82.04a25.14,25.14 0 1 1 -0.88,6.6a25.14,25.14 0 0 1 0.88,-6.6z" fill="#d3838d" id="svg_27"/>
  <path d="m642.96,55.54c2.04,-0.06 27.4,1.24 30.96,1.3c3.56,0.05 7.18,-0.07 10.63,0.8c3.45,0.87 6.81,2.92 8.29,6.17c1.47,3.24 1.81,11.29 2.68,13.63a17.56,17.56 0 0 1 0.54,7.42c-0.7,9.2 -2.41,19.1 -9.11,25.44c-5.1,4.83 -12.41,6.78 -19.44,6.75c-7.02,-0.03 -5.79,-0.68 -12.58,-2.47c0,0 -6.46,-18.52 -4.84,-20.34c1.63,-1.83 2.98,-4.16 2.69,-6.58s-2.9,-4.6 -5.17,-3.68c0.38,-0.97 0.67,-1.15 0.85,-1.1a8.6,8.6 0 0 1 -0.3,-0.85a9.62,9.62 0 0 0 -6,-6.37a7.46,7.46 0 0 0 -8.15,2.47c-7.45,-6.98 -2.83,-22.24 8.95,-22.59z" fill="#dbdb00" id="svg_28" transform="matrix(1 0 0 1 0 0)"/>
  <path d="m417.65,435.53c32.58,-4.27 68.95,-8.62 97.47,11.48c11.48,8.09 20.47,19.8 23.21,33.76c1.73,8.83 1.18,17.9 1.29,26.84c0.1,8.01 0.82,16 3.52,23.59c4.56,12.83 13.5,23.73 24.57,31.56a73.76,73.76 0 0 0 40.84,13.22c32.38,0.8 61.9,-16.75 82.51,-40.7c22.14,-25.72 34.84,-57.62 45.92,-89.27q2.19,-6.26 4.34,-12.54c0.63,-1.83 -2.27,-2.62 -2.89,-0.8c-11.08,32.18 -22.44,65.02 -43.08,92.52c-18.93,25.22 -46.46,45.28 -78.74,47.59c-14.71,1.06 -29.52,-1.84 -42.3,-9.33c-11.73,-6.88 -21.56,-17.24 -27,-29.78a61.4,61.4 0 0 1 -4.6,-22.41c-0.33,-8.9 0.32,-17.85 -0.77,-26.71c-1.76,-14.21 -8.98,-26.61 -19.82,-35.87a81.89,81.89 0 0 0 -38.12,-17.74c-17.47,-3.29 -35.36,-2.15 -52.91,-0.1c-4.49,0.52 -8.97,1.11 -13.44,1.69c-1.89,0.25 -1.91,3.25 0,3z" fill="#3f3d56" id="svg_29" transform="translate(-167.66498 -230.45221)"/>
  <path d="m685.51,362.9c-5.71,6.06 -14.01,9.27 -22.31,9.91a43.64,43.64 0 0 1 -46.98,-42.97c-0.09,-6.7 1.37,-13.37 1.04,-20.07c-0.82,-16.55 -12.44,-31.59 -11.2,-48.12l7.96,2.47q-8.01,-2.52 -16.02,-5.04a20.85,20.85 0 0 1 -5.22,-2.19c-4.66,-3.06 -6.03,-9.81 -3.79,-14.92c2.25,-5.11 7.44,-8.53 12.91,-9.67a29.23,29.23 0 0 1 11.26,0.07a44.77,44.77 0 0 1 5.26,1.27a34.91,34.91 0 0 1 30.31,4.12a34.81,34.81 0 0 1 12.18,14.75a34.15,34.15 0 0 1 2.87,11.89c0.6,11.16 -4.16,22.72 -3.48,33.5a25.35,25.35 0 0 0 1.95,8.57c5.9,13.73 24.45,19.16 29.1,33.37c2.59,7.91 -0.13,17 -5.84,23.06z" fill="#2f2e41" id="svg_30" transform="translate(-167.66498 -230.45221)"/>
  <polygon fill="#9e616a" id="svg_31" points="522.187 347.025 514.529 354.962 480.27 329.2 491.573 317.486 522.187 347.025"/>
  <path d="m709.04,587.75l-5.43,5.63l-3.46,3.58l-14.41,14.94a4.67,4.67 0 0 1 -7.96,-4l3.27,-19.88l-5.38,-5.18l12.86,-11.83l20.51,16.74z" fill="#2f2e41" id="svg_32" transform="translate(-167.66498 -230.45221)"/>
  <polygon fill="#9e616a" id="svg_33" points="448.577 362.145 438.648 366.948 415.399 330.936 430.053 323.848 448.577 362.145"/>
  <path d="m630.7,608.87l-7.04,3.4l-4.48,2.17l-18.69,9.04a4.67,4.67 0 0 1 -6.09,-6.5l9.94,-17.53l-3.25,-6.72l16.14,-6.66l13.47,22.8z" fill="#2f2e41" id="svg_34" transform="translate(-167.66498 -230.45221)"/>
  <path d="m632.44,393.58s8.92,15.81 15.51,24.32c6.08,7.71 5.3,11.8 4.51,21.59c-0.64,7 0.64,20.18 -5.61,26.16l-2.74,61.07l33.7,38.61s-13.63,19.36 -14.35,12.16l-49.87,-46.38l-27.27,-98.97l4.71,-36.63l41.41,-1.93z" fill="#2f2e41" id="svg_35" transform="translate(-167.66498 -230.45221)"/>
  <path d="m647.24,412.6s0.2,18.15 1.88,28.78a38.89,38.89 0 0 1 -5.89,27.83c-3.93,5.82 -9.72,11.25 -18.08,13.48l-28.58,46.89l15.87,45.42s-22.81,13.15 -19.98,6.49l-27.61,-59.06l23.4,-98.26l21.78,-29.83l37.21,18.26z" fill="#2f2e41" id="svg_36" transform="translate(-167.66498 -230.45221)"/>
  <path d="m630.44,304.18l-0.13,-0.13l-23.31,0.48l-14.71,39.23c1.17,31.73 -4.6,45.36 -4.6,45.36l2.5,9.47l1.02,2.78l65.49,29.1l-8.98,-69.23a63.08,63.08 0 0 0 -17.28,-57.06z" fill="#0aa8a7" id="svg_37" transform="translate(-167.66498 -230.45221)"/>
  <path d="m530.53,384.36a5.65,5.65 0 0 0 7.26,-4.74l19.62,-4.29l-7.47,-7.29l-17.49,5.19a5.68,5.68 0 0 0 -1.92,11.13z" fill="#9e616a" id="svg_38" transform="translate(-167.66498 -230.45221)"/>
  <path d="m542.7,378.74l-0.95,-11.79l35.68,-9.71l26.55,-32.96a14.25,14.25 0 0 1 21.92,-0.34l0,0a14.27,14.27 0 0 1 -1.54,20.1l-36.18,31.04l-45.48,3.66z" fill="#0aa8a7" id="svg_39" transform="translate(-167.66498 -230.45221)"/>
  <path d="m681.54,432.18a5.65,5.65 0 0 0 -3.98,-7.69l-2.3,-19.96l-8,6.7l3.41,17.93a5.68,5.68 0 0 0 10.87,3.02z" fill="#9e616a" id="svg_40" transform="translate(-167.66498 -230.45221)"/>
  <path d="m677.17,419.51l-11.82,-0.24l-6.07,-36.47l-30.13,-29.73a14.25,14.25 0 0 1 1.87,-21.84l0,0a14.27,14.27 0 0 1 19.84,3.55l27.25,39.12l-0.94,45.61z" fill="#0aa8a7" id="svg_41" transform="translate(-167.66498 -230.45221)"/>
  <path d="m595.34,259.49a25.14,25.14 0 1 1 -0.88,6.6a25.14,25.14 0 0 1 0.88,-6.6z" fill="#9e616a" id="svg_42" transform="translate(-167.66498 -230.45221)"/>
  <path d="m592.15,405.33a27.25,27.25 0 0 1 -22.31,-11.75c-1.39,-2.08 -2.58,-4.68 -1.77,-7.21a3.79,3.79 0 0 1 4.07,-2.87c1.97,0.28 3.67,1.79 4.99,3.17a54.66,54.66 0 0 1 4.92,6.3c2.35,3.32 6.92,8.69 3.39,12.67c-2.98,3.34 -7.97,3.62 -11.98,4.83c-4.32,1.3 -8.75,4.22 -9.13,9.15c-0.38,4.79 4.22,8.02 8.47,8.72a15.68,15.68 0 0 0 13.83,-5a21.23,21.23 0 0 0 5.17,-14.02a1.5,1.5 0 0 0 -3,-0.05c-0.07,4.68 -1.61,9.47 -5.08,12.76c-3.25,3.07 -8.42,4.54 -12.65,2.73c-2.1,-0.9 -4.05,-2.78 -3.72,-5.24c0.29,-2.25 2.12,-4.01 4.04,-5.03c4.32,-2.3 9.51,-2.1 13.73,-4.75c4.02,-2.53 5.62,-6.76 3.8,-11.25a36.1,36.1 0 0 0 -4.27,-7.01a67.8,67.8 0 0 0 -5.02,-6.53c-2.71,-2.97 -6.96,-5.86 -11.04,-3.74c-4.65,2.43 -4.34,8.51 -2.19,12.48c4.91,9.07 15.58,14.6 25.7,14.64a1.5,1.5 0 0 0 0.05,-3z" fill="#2f2e41" id="svg_43" transform="translate(-167.66498 -230.45221)"/>
  <path d="m660.3,297.9l-39.86,-8.15c-1.45,-7.65 11.94,-17.96 15.42,-30.53c-6.22,-0.75 -14.55,-2 -21.76,-3.63c-7.21,-1.64 -13.31,-3.65 -15.07,-5.94a24.02,24.02 0 0 1 28.33,-18.71l4.89,1c0.16,0.03 0.32,0.07 0.48,0.11a23.88,23.88 0 0 1 14.65,10.05a56.81,56.81 0 0 1 13.53,10.41a34.15,34.15 0 0 1 2.87,11.89c0.6,11.16 -4.16,22.72 -3.48,33.5z" fill="#2f2e41" id="svg_44" transform="translate(-167.66498 -230.45221)"/>
  <path d="m1032.34,668.36a1.19,1.19 0 0 1 -1.2,1.19l-862.28,0a1.19,1.19 0 0 1 0,-2.38l862.28,0a1.19,1.19 0 0 1 1.2,1.19z" fill="#ccc" id="svg_45" transform="translate(-167.66498 -230.45221)"/>
 </g>
</svg>