<svg width="844" height="624.592" xmlns="http://www.w3.org/2000/svg" data-name="Layer 1"><g class="layer"><circle cx="84" cy="83" fill="#bdefee" r="83"/><circle cx="761" cy="269" fill="#bdefee" r="83"/><path d="m501.72 617.876-14.6-6.15-10.01-73.15h-133.3l-10.85 72.85-13.06 6.53a3.1 3.1 0 0 0 1.39 5.87h179.22a3.1 3.1 0 0 0 1.21-5.95z" fill="#e6e6e6"/><path d="M738.61 548.306H83.78a12.97 12.97 0 0 1-12.95-12.97v-92.34h680.72v92.34a12.97 12.97 0 0 1-12.94 12.97z" fill="#ccc"/><path d="M752.24 486.636h-682v-395.1a15.66 15.66 0 0 1 15.64-15.64H736.6a15.66 15.66 0 0 1 15.64 15.64v395.1z" fill="#3f3d56"/><path d="M711.5 457.96H110.97a12.07 12.07 0 0 1-12.06-12.05V116.63a12.07 12.07 0 0 1 12.06-12.05H711.5a12.07 12.07 0 0 1 12.06 12.05v329.28a12.07 12.07 0 0 1-12.06 12.05z" fill="#fff"/><path d="M579.66 624.596H242.21a1.57 1.57 0 0 1-1.54-1.14 1.53 1.53 0 0 1 1.48-1.92h337.38a1.62 1.62 0 0 1 1.62 1.2 1.53 1.53 0 0 1-1.49 1.86z" fill="#ccc"/><path d="M643.43 399.346H516.91a1.21 1.21 0 0 1-1.31-1.08v-102.06a1.21 1.21 0 0 1 1.31-1.08h126.52a1.21 1.21 0 0 1 1.31 1.08v102.06a1.21 1.21 0 0 1-1.31 1.08z" fill="#f0f0f0"/><path d="M629.68 306.416h-99.02a1.3 1.3 0 0 0-1.3 1.31v76.72a1.3 1.3 0 0 0 1.3 1.31h99.02a1.3 1.3 0 0 0 1.3-1.31v-76.72a1.3 1.3 0 0 0-1.3-1.31z" fill="#fff"/><circle cx="577.72" cy="345.82" fill="#ffb8b8" r="12.59"/><path fill="#0aa8a7" d="M596.144 385.752H568.23l.912-20.522.217-.228 3.133-3.31h9.968l3.695 3.579.298.289 7.867 7.54 1.824 12.652z"/><path d="M573.03 385.756h-21.12l-.08-7.41 1.22-.74.01-.01 13.46-8.17 2.82-4.59.02.17.83 9.67s1.37 4.43 2.84 11.08zM608.52 385.756h-22.37c.34-13.51-1.48-20.92-.54-20.92l.54.44 6.6 5.2 8.69 3.19 5.99 2.2 1.05.38v.5c.01 1.18.01 4.43.04 9.01zM565.81 349.756s1.07-1.87.82-8.15 9.31-2.73 17.3-3.32 6.29 10.47 6.29 10.47.58-.66 1.81-6-1.57-10.67-1.57-10.67c-.82-5.62-5.27-3.82-5.27-3.82a2.33 2.33 0 0 1 1.73 2.61c-1.81-3.17-6.25-1.37-6.25-1.37-5.93-3.72-11.94 1.18-11.94 1.18-7.16 1.62-2.96 7.32-2.96 7.32-7.2 3.64.04 11.75.04 11.75z" fill="#2f2e41"/><path d="M554.73 385.756h-8.68a26.16 26.16 0 0 0 .01-3.21c-.52-2.07 6.77-4.86 6.99-4.94l.01-.01 1.39.75.28 7.41zM610.09 385.756h-9.11l-1.14-11.24 1.28-.93s.11.03.32.08a25 25 0 0 1 5.99 2.2 3.71 3.71 0 0 1 1.05.88 1.09 1.09 0 0 1 .25.77c-.04.42.49 3.51 1.36 8.24z" fill="#2f2e41"/><path d="M643.02 269.126H516.49a1.21 1.21 0 0 1-1.3-1.08v-102.09a1.21 1.21 0 0 1 1.3-1.08h126.53a1.21 1.21 0 0 1 1.3 1.08v102.09a1.21 1.21 0 0 1-1.3 1.08z" fill="#f0f0f0"/><path d="M629.27 176.166h-99.02a1.3 1.3 0 0 0-1.31 1.3v76.73a1.3 1.3 0 0 0 1.31 1.3h99.02a1.3 1.3 0 0 0 1.3-1.3v-76.73a1.3 1.3 0 0 0-1.3-1.3z" fill="#fff"/><path d="M604.13 255.496c.56-2.01.99-3.74 1.22-4.97a3.55 3.55 0 0 0 .02-1.15c-.84-5.93-15.9-10.95-17.83-11.57l-.47-5.16-18.95-2.04-2.4 6.6-6.81 2.56a3.24 3.24 0 0 0-.7.35 3.37 3.37 0 0 0-1.38 3.6l2.9 11.78h44.4z" fill="#0aa8a7"/><path d="M564.83 255.496h-14.71c.53-3.28 1-6.19 1.3-8.03 1.13-6.73 6.03-7.3 6.79-7.35H561.41l3.42 15.38zM604.13 255.496h3.57a11.61 11.61 0 0 0-2.33-6.12 7.31 7.31 0 0 0-2.55-2.12l-.27-.12-3.14 8.36h4.72z" fill="#0aa8a7"/><circle cx="576.85" cy="213.68" data-name="Ellipse 109" fill="#a0616a" r="13.65"/><path d="M567.69 207.036c1.42 1.67 3.81 2.14 6.01 2.33a56.61 56.61 0 0 0 15.38-1.25c.31 3.03-.54 6.29 1.24 8.78a40.79 40.79 0 0 0 1.45-9.24 8.86 8.86 0 0 0-.51-3.96 3.64 3.64 0 0 0-3.11-2.29 7.78 7.78 0 0 1 3.47-1.48l-4.33-2.18 1.11-1.14-7.85-.48 2.28-1.45a49.28 49.28 0 0 0-10.33-.32 8.86 8.86 0 0 0-4.57 1.27c-1.29.92-2.04 2.77-1.24 4.13a5.99 5.99 0 0 0-4.57 3.62 9.68 9.68 0 0 0-.34 4.65 32.97 32.97 0 0 0 1.73 7.32" data-name="Path 696" fill="#2f2e41"/><path d="M177.74 396.486v-230.86a2.76 2.76 0 0 1 2.99-2.44H471a2.76 2.76 0 0 1 2.99 2.44v230.86a2.76 2.76 0 0 1-2.99 2.44H180.73a2.76 2.76 0 0 1-2.99-2.44z" fill="#e4e4e4"/><path d="M209.29 192.086v176.02a2.99 2.99 0 0 0 2.99 2.99h227.17a2.99 2.99 0 0 0 2.99-2.99v-176.02a2.99 2.99 0 0 0-2.99-2.99H212.28a2.99 2.99 0 0 0-2.99 2.99z" fill="#fff"/><path d="M303.51 371.096h45.72l-2.85-42.76-16.49 3.8-16.04-6.17-.43-.16-.03-.01a.21.21 0 0 0-.01.04c-.25 1.02-5.29 21.18-9.87 45.26z" fill="#0aa8a7"/><path fill="#2f2e41" d="m275.957 335.315 4.271 35.782h38.533l-4.915-45.128-.047-.439-.378.279-.04.027-9.506 6.935-27.918 2.544zM342.47 371.096h34.51l.49-28.17-25.39-8.42-5.7-6.17s-1.8 18.56-3.91 42.76z"/><path d="M259.34 371.1h28.6l-1.83-25.63-10.15-10.15s-8.03 16.84-16.62 35.78zM368.84 371.096h15.08c-.06-8.21-.1-13.88-.1-15.48a14.95 14.95 0 0 0-6.35-12.69l-7.62 2.54-1.01 25.63z" fill="#2f2e41"/><path d="M371.19 314.88h-79.93v-33.69c0-11.54 8.13-25.43 18.13-30.94 14.03-7.75 29.38-7.88 42.09-.37a40.18 40.18 0 0 1 19.71 34.44v30.56z" fill="#bf0000"/><circle cx="510.81" cy="422.88" fill="#ffb8b8" r="28.87" transform="rotate(-61.337 305.702 504.109)"/><path d="M360.25 286.67h-41.19l-.1-.47a65.96 65.96 0 0 0-1.84-7.26 82.64 82.64 0 0 0-4.52 7.43l-.17.3h-8.01a3.54 3.54 0 0 1-2.61-1.15c-.21-.24-.72-.81 1.39-26.55a3.56 3.56 0 0 1 2.01-2.88c18.07-8.44 36.39-8.21 54.44.67h.32l.12.45c3.56 27.4 3.04 27.99 2.83 28.24a3.53 3.53 0 0 1-2.67 1.22z" fill="#bf0000"/></g></svg>